<?xml version="1.0" encoding="UTF-8" standalone="no"?>
<!DOCTYPE svg PUBLIC "-//W3C//DTD SVG 1.1//EN"
 "http://www.w3.org/Graphics/SVG/1.1/DTD/svg11.dtd">
<!-- Generated by graphviz version 2.38.0 (20140413.2041)
 -->
<!-- Title: /home/mirai/docs/include/CBaseNode.hpp Pages: 1 -->
<svg width="266pt" height="240pt"
 viewBox="0.00 0.00 265.50 240.00" xmlns="http://www.w3.org/2000/svg" xmlns:xlink="http://www.w3.org/1999/xlink">
<g id="graph0" class="graph" transform="scale(1 1) rotate(0) translate(4 236)">
<title>/home/mirai/docs/include/CBaseNode.hpp</title>
<polygon fill="white" stroke="none" points="-4,4 -4,-236 261.5,-236 261.5,4 -4,4"/>
<!-- Node1 -->
<g id="node1" class="node"><title>Node1</title>
<polygon fill="#bfbfbf" stroke="black" points="59,-201.5 59,-231.5 196,-231.5 196,-201.5 59,-201.5"/>
<text text-anchor="start" x="67" y="-219.5" font-family="Helvetica,sans-Serif" font-size="10.00">/home/mirai/docs/include</text>
<text text-anchor="middle" x="127.5" y="-208.5" font-family="Helvetica,sans-Serif" font-size="10.00">/CBaseNode.hpp</text>
</g>
<!-- Node2 -->
<g id="node2" class="node"><title>Node2</title>
<g id="a_node2"><a xlink:href="_c_node_8hpp.html" target="_top" xlink:title="/home/mirai/docs/include\l/CNode.hpp">
<polygon fill="white" stroke="black" points="59,-134.5 59,-164.5 196,-164.5 196,-134.5 59,-134.5"/>
<text text-anchor="start" x="67" y="-152.5" font-family="Helvetica,sans-Serif" font-size="10.00">/home/mirai/docs/include</text>
<text text-anchor="middle" x="127.5" y="-141.5" font-family="Helvetica,sans-Serif" font-size="10.00">/CNode.hpp</text>
</a>
</g>
</g>
<!-- Node1&#45;&gt;Node2 -->
<g id="edge1" class="edge"><title>Node1&#45;&gt;Node2</title>
<path fill="none" stroke="midnightblue" d="M127.5,-191.108C127.5,-182.154 127.5,-172.323 127.5,-164.577"/>
<polygon fill="midnightblue" stroke="midnightblue" points="124,-191.396 127.5,-201.396 131,-191.396 124,-191.396"/>
</g>
<!-- Node3 -->
<g id="node3" class="node"><title>Node3</title>
<g id="a_node3"><a xlink:href="_c_list_8hpp.html" target="_top" xlink:title="/home/mirai/docs/include\l/CList.hpp">
<polygon fill="white" stroke="black" points="59,-67.5 59,-97.5 196,-97.5 196,-67.5 59,-67.5"/>
<text text-anchor="start" x="67" y="-85.5" font-family="Helvetica,sans-Serif" font-size="10.00">/home/mirai/docs/include</text>
<text text-anchor="middle" x="127.5" y="-74.5" font-family="Helvetica,sans-Serif" font-size="10.00">/CList.hpp</text>
</a>
</g>
</g>
<!-- Node2&#45;&gt;Node3 -->
<g id="edge2" class="edge"><title>Node2&#45;&gt;Node3</title>
<path fill="none" stroke="midnightblue" d="M127.5,-124.108C127.5,-115.154 127.5,-105.323 127.5,-97.5765"/>
<polygon fill="midnightblue" stroke="midnightblue" points="124,-124.396 127.5,-134.396 131,-124.396 124,-124.396"/>
</g>
<!-- Node4 -->
<g id="node4" class="node"><title>Node4</title>
<g id="a_node4"><a xlink:href="src_2main_8cpp.html" target="_top" xlink:title="/home/mirai/docs/src\l/main.cpp">
<polygon fill="white" stroke="black" points="0,-0.5 0,-30.5 117,-30.5 117,-0.5 0,-0.5"/>
<text text-anchor="start" x="8" y="-18.5" font-family="Helvetica,sans-Serif" font-size="10.00">/home/mirai/docs/src</text>
<text text-anchor="middle" x="58.5" y="-7.5" font-family="Helvetica,sans-Serif" font-size="10.00">/main.cpp</text>
</a>
</g>
</g>
<!-- Node3&#45;&gt;Node4 -->
<g id="edge3" class="edge"><title>Node3&#45;&gt;Node4</title>
<path fill="none" stroke="midnightblue" d="M105.008,-60.3115C94.6573,-50.5612 82.6596,-39.259 73.4428,-30.5765"/>
<polygon fill="midnightblue" stroke="midnightblue" points="102.849,-63.0866 112.528,-67.396 107.649,-57.9914 102.849,-63.0866"/>
</g>
<!-- Node5 -->
<g id="node5" class="node"><title>Node5</title>
<g id="a_node5"><a xlink:href="test_2main_8cpp.html" target="_top" xlink:title="/home/mirai/docs/test\l/main.cpp">
<polygon fill="white" stroke="black" points="135.5,-0.5 135.5,-30.5 257.5,-30.5 257.5,-0.5 135.5,-0.5"/>
<text text-anchor="start" x="143.5" y="-18.5" font-family="Helvetica,sans-Serif" font-size="10.00">/home/mirai/docs/test</text>
<text text-anchor="middle" x="196.5" y="-7.5" font-family="Helvetica,sans-Serif" font-size="10.00">/main.cpp</text>
</a>
</g>
</g>
<!-- Node3&#45;&gt;Node5 -->
<g id="edge4" class="edge"><title>Node3&#45;&gt;Node5</title>
<path fill="none" stroke="midnightblue" d="M149.992,-60.3115C160.343,-50.5612 172.34,-39.259 181.557,-30.5765"/>
<polygon fill="midnightblue" stroke="midnightblue" points="147.351,-57.9914 142.472,-67.396 152.151,-63.0866 147.351,-57.9914"/>
</g>
</g>
</svg>
