<?xml version="1.0" encoding="UTF-8" standalone="no"?>
<!DOCTYPE svg PUBLIC "-//W3C//DTD SVG 1.1//EN"
 "http://www.w3.org/Graphics/SVG/1.1/DTD/svg11.dtd">
<!-- Generated by graphviz version 2.38.0 (20140413.2041)
 -->
<!-- Title: /home/mirai/docs/include/CList.hpp Pages: 1 -->
<svg width="298pt" height="151pt"
 viewBox="0.00 0.00 297.50 151.00" xmlns="http://www.w3.org/2000/svg" xmlns:xlink="http://www.w3.org/1999/xlink">
<g id="graph0" class="graph" transform="scale(1 1) rotate(0) translate(4 147)">
<title>/home/mirai/docs/include/CList.hpp</title>
<polygon fill="white" stroke="none" points="-4,4 -4,-147 293.5,-147 293.5,4 -4,4"/>
<!-- Node1 -->
<g id="node1" class="node"><title>Node1</title>
<polygon fill="#bfbfbf" stroke="black" points="58,-112.5 58,-142.5 195,-142.5 195,-112.5 58,-112.5"/>
<text text-anchor="start" x="66" y="-130.5" font-family="Helvetica,sans-Serif" font-size="10.00">/home/mirai/docs/include</text>
<text text-anchor="middle" x="126.5" y="-119.5" font-family="Helvetica,sans-Serif" font-size="10.00">/CList.hpp</text>
</g>
<!-- Node2 -->
<g id="node2" class="node"><title>Node2</title>
<polygon fill="white" stroke="#bfbfbf" points="-3.55271e-15,-56.5 -3.55271e-15,-75.5 53,-75.5 53,-56.5 -3.55271e-15,-56.5"/>
<text text-anchor="middle" x="26.5" y="-63.5" font-family="Helvetica,sans-Serif" font-size="10.00">cstddef</text>
</g>
<!-- Node1&#45;&gt;Node2 -->
<g id="edge1" class="edge"><title>Node1&#45;&gt;Node2</title>
<path fill="none" stroke="midnightblue" d="M102.801,-112.399C86.7721,-102.862 65.7013,-90.3248 49.7642,-80.8422"/>
<polygon fill="midnightblue" stroke="midnightblue" points="51.4344,-77.7633 41.0509,-75.6578 47.855,-83.779 51.4344,-77.7633"/>
</g>
<!-- Node3 -->
<g id="node3" class="node"><title>Node3</title>
<polygon fill="white" stroke="#bfbfbf" points="71.5,-56.5 71.5,-75.5 113.5,-75.5 113.5,-56.5 71.5,-56.5"/>
<text text-anchor="middle" x="92.5" y="-63.5" font-family="Helvetica,sans-Serif" font-size="10.00">limits</text>
</g>
<!-- Node1&#45;&gt;Node3 -->
<g id="edge2" class="edge"><title>Node1&#45;&gt;Node3</title>
<path fill="none" stroke="midnightblue" d="M118.442,-112.399C113.655,-104.021 107.544,-93.3269 102.456,-84.4229"/>
<polygon fill="midnightblue" stroke="midnightblue" points="105.448,-82.6037 97.4473,-75.6578 99.3699,-86.0767 105.448,-82.6037"/>
</g>
<!-- Node4 -->
<g id="node4" class="node"><title>Node4</title>
<polygon fill="white" stroke="#bfbfbf" points="131.5,-56.5 131.5,-75.5 189.5,-75.5 189.5,-56.5 131.5,-56.5"/>
<text text-anchor="middle" x="160.5" y="-63.5" font-family="Helvetica,sans-Serif" font-size="10.00">memory</text>
</g>
<!-- Node1&#45;&gt;Node4 -->
<g id="edge3" class="edge"><title>Node1&#45;&gt;Node4</title>
<path fill="none" stroke="midnightblue" d="M134.558,-112.399C139.345,-104.021 145.456,-93.3269 150.544,-84.4229"/>
<polygon fill="midnightblue" stroke="midnightblue" points="153.63,-86.0767 155.553,-75.6578 147.552,-82.6037 153.63,-86.0767"/>
</g>
<!-- Node5 -->
<g id="node5" class="node"><title>Node5</title>
<g id="a_node5"><a xlink:href="_c_node_8hpp.html" target="_top" xlink:title="CNode.hpp">
<polygon fill="white" stroke="black" points="207.5,-56.5 207.5,-75.5 277.5,-75.5 277.5,-56.5 207.5,-56.5"/>
<text text-anchor="middle" x="242.5" y="-63.5" font-family="Helvetica,sans-Serif" font-size="10.00">CNode.hpp</text>
</a>
</g>
</g>
<!-- Node1&#45;&gt;Node5 -->
<g id="edge4" class="edge"><title>Node1&#45;&gt;Node5</title>
<path fill="none" stroke="midnightblue" d="M153.99,-112.399C172.932,-102.684 197.942,-89.8551 216.544,-80.3137"/>
<polygon fill="midnightblue" stroke="midnightblue" points="218.321,-83.336 225.621,-75.6578 215.126,-77.1076 218.321,-83.336"/>
</g>
<!-- Node6 -->
<g id="node6" class="node"><title>Node6</title>
<g id="a_node6"><a xlink:href="_c_base_node_8hpp.html" target="_top" xlink:title="CBaseNode.hpp">
<polygon fill="white" stroke="black" points="195.5,-0.5 195.5,-19.5 289.5,-19.5 289.5,-0.5 195.5,-0.5"/>
<text text-anchor="middle" x="242.5" y="-7.5" font-family="Helvetica,sans-Serif" font-size="10.00">CBaseNode.hpp</text>
</a>
</g>
</g>
<!-- Node5&#45;&gt;Node6 -->
<g id="edge5" class="edge"><title>Node5&#45;&gt;Node6</title>
<path fill="none" stroke="midnightblue" d="M242.5,-56.083C242.5,-49.0059 242.5,-38.8611 242.5,-29.9865"/>
<polygon fill="midnightblue" stroke="midnightblue" points="246,-29.751 242.5,-19.7511 239,-29.7511 246,-29.751"/>
</g>
</g>
</svg>
