<?xml version="1.0" encoding="UTF-8" standalone="no"?>
<!DOCTYPE svg PUBLIC "-//W3C//DTD SVG 1.1//EN"
 "http://www.w3.org/Graphics/SVG/1.1/DTD/svg11.dtd">
<!-- Generated by graphviz version 2.38.0 (20140413.2041)
 -->
<!-- Title: nsSdD::CList::push_back Pages: 1 -->
<svg width="579pt" height="66pt"
 viewBox="0.00 0.00 579.00 66.00" xmlns="http://www.w3.org/2000/svg" xmlns:xlink="http://www.w3.org/1999/xlink">
<g id="graph0" class="graph" transform="scale(1 1) rotate(0) translate(4 62)">
<title>nsSdD::CList::push_back</title>
<polygon fill="white" stroke="none" points="-4,4 -4,-62 575,-62 575,4 -4,4"/>
<!-- Node1 -->
<g id="node1" class="node"><title>Node1</title>
<polygon fill="#bfbfbf" stroke="black" points="0,-0.5 0,-19.5 134,-19.5 134,-0.5 0,-0.5"/>
<text text-anchor="middle" x="67" y="-7.5" font-family="Helvetica,sans-Serif" font-size="10.00">nsSdD::CList::push_back</text>
</g>
<!-- Node2 -->
<g id="node2" class="node"><title>Node2</title>
<g id="a_node2"><a xlink:href="classns_sd_d_1_1_c_list.html#a14b55f9a1acefa302eb5df42c7c99c9b" target="_top" xlink:title="Inserts a copy of every element in the range [first;last[ before position. ">
<polygon fill="white" stroke="black" points="170,-19.5 170,-38.5 280,-38.5 280,-19.5 170,-19.5"/>
<text text-anchor="middle" x="225" y="-26.5" font-family="Helvetica,sans-Serif" font-size="10.00">nsSdD::CList::insert</text>
</a>
</g>
</g>
<!-- Node1&#45;&gt;Node2 -->
<g id="edge1" class="edge"><title>Node1&#45;&gt;Node2</title>
<path fill="none" stroke="midnightblue" d="M134.158,-18.0577C142.541,-19.0788 151.112,-20.1226 159.469,-21.1405"/>
<polygon fill="midnightblue" stroke="midnightblue" points="159.181,-24.6312 169.531,-22.366 160.028,-17.6825 159.181,-24.6312"/>
</g>
<!-- Node5 -->
<g id="node5" class="node"><title>Node5</title>
<g id="a_node5"><a xlink:href="classns_sd_d_1_1_c_list.html#a9d67e4a55aac8ccd2b7cd8fd3939a176" target="_top" xlink:title="Returns an iterator pointing after the last element. ">
<polygon fill="white" stroke="black" points="466,-0.5 466,-19.5 567,-19.5 567,-0.5 466,-0.5"/>
<text text-anchor="middle" x="516.5" y="-7.5" font-family="Helvetica,sans-Serif" font-size="10.00">nsSdD::CList::end</text>
</a>
</g>
</g>
<!-- Node1&#45;&gt;Node5 -->
<g id="edge6" class="edge"><title>Node1&#45;&gt;Node5</title>
<path fill="none" stroke="midnightblue" d="M134.03,-10C220.851,-10 372.134,-10 455.723,-10"/>
<polygon fill="midnightblue" stroke="midnightblue" points="455.819,-13.5001 465.819,-10 455.819,-6.5001 455.819,-13.5001"/>
</g>
<!-- Node3 -->
<g id="node3" class="node"><title>Node3</title>
<g id="a_node3"><a xlink:href="classns_sd_d_1_1_c_list.html#af41da388e9983741e7a559f1b6a0ae01" target="_top" xlink:title="Returns an iterator to the first element. ">
<polygon fill="white" stroke="black" points="462,-38.5 462,-57.5 571,-57.5 571,-38.5 462,-38.5"/>
<text text-anchor="middle" x="516.5" y="-45.5" font-family="Helvetica,sans-Serif" font-size="10.00">nsSdD::CList::begin</text>
</a>
</g>
</g>
<!-- Node2&#45;&gt;Node3 -->
<g id="edge2" class="edge"><title>Node2&#45;&gt;Node3</title>
<path fill="none" stroke="midnightblue" d="M262.508,-38.509C278.761,-42.2739 298.211,-46.1427 316,-48 361.22,-52.7212 412.52,-52.6006 451.776,-51.3623"/>
<polygon fill="midnightblue" stroke="midnightblue" points="452.126,-54.8523 461.998,-51.0062 451.882,-47.8566 452.126,-54.8523"/>
</g>
<!-- Node4 -->
<g id="node4" class="node"><title>Node4</title>
<g id="a_node4"><a xlink:href="classns_sd_d_1_1_c_list.html#aa8b0bd58b9cb6a6463b6e22341e87ea7" target="_top" xlink:title="Move the content of a list before an element in another Moves the content of x before the element poi...">
<polygon fill="white" stroke="black" points="316,-19.5 316,-38.5 426,-38.5 426,-19.5 316,-19.5"/>
<text text-anchor="middle" x="371" y="-26.5" font-family="Helvetica,sans-Serif" font-size="10.00">nsSdD::CList::splice</text>
</a>
</g>
</g>
<!-- Node2&#45;&gt;Node4 -->
<g id="edge3" class="edge"><title>Node2&#45;&gt;Node4</title>
<path fill="none" stroke="midnightblue" d="M280.03,-29C288.314,-29 296.936,-29 305.42,-29"/>
<polygon fill="midnightblue" stroke="midnightblue" points="305.667,-32.5001 315.667,-29 305.667,-25.5001 305.667,-32.5001"/>
</g>
<!-- Node4&#45;&gt;Node3 -->
<g id="edge4" class="edge"><title>Node4&#45;&gt;Node3</title>
<path fill="none" stroke="midnightblue" d="M426.251,-36.1831C434.489,-37.2739 443.055,-38.408 451.478,-39.5232"/>
<polygon fill="midnightblue" stroke="midnightblue" points="451.275,-43.0268 461.648,-40.8698 452.194,-36.0874 451.275,-43.0268"/>
</g>
<!-- Node4&#45;&gt;Node5 -->
<g id="edge5" class="edge"><title>Node4&#45;&gt;Node5</title>
<path fill="none" stroke="midnightblue" d="M426.251,-21.8169C435.912,-20.5378 446.023,-19.199 455.825,-17.9012"/>
<polygon fill="midnightblue" stroke="midnightblue" points="456.442,-21.3502 465.896,-16.5678 455.523,-14.4108 456.442,-21.3502"/>
</g>
</g>
</svg>
