<?xml version="1.0" encoding="UTF-8" standalone="no"?>
<!DOCTYPE svg PUBLIC "-//W3C//DTD SVG 1.1//EN"
 "http://www.w3.org/Graphics/SVG/1.1/DTD/svg11.dtd">
<!-- Generated by graphviz version 2.38.0 (20140413.2041)
 -->
<!-- Title: nsSdD::CList::swap Pages: 1 -->
<svg width="441pt" height="104pt"
 viewBox="0.00 0.00 441.00 104.00" xmlns="http://www.w3.org/2000/svg" xmlns:xlink="http://www.w3.org/1999/xlink">
<g id="graph0" class="graph" transform="scale(1 1) rotate(0) translate(4 100)">
<title>nsSdD::CList::swap</title>
<polygon fill="white" stroke="none" points="-4,4 -4,-100 437,-100 437,4 -4,4"/>
<!-- Node1 -->
<g id="node1" class="node"><title>Node1</title>
<polygon fill="#bfbfbf" stroke="black" points="0,-38.5 0,-57.5 108,-57.5 108,-38.5 0,-38.5"/>
<text text-anchor="middle" x="54" y="-45.5" font-family="Helvetica,sans-Serif" font-size="10.00">nsSdD::CList::swap</text>
</g>
<!-- Node2 -->
<g id="node2" class="node"><title>Node2</title>
<g id="a_node2"><a xlink:href="classns_sd_d_1_1_c_list.html#a55df73e3651d4bcd13b671bf5cf7e5eb" target="_top" xlink:title="Swaps the content of two lists. This sort is stable, it means consecutive equal elements keep their o...">
<polygon fill="white" stroke="black" points="144,-76.5 144,-95.5 245,-95.5 245,-76.5 144,-76.5"/>
<text text-anchor="middle" x="194.5" y="-83.5" font-family="Helvetica,sans-Serif" font-size="10.00">nsSdD::CList::sort</text>
</a>
</g>
</g>
<!-- Node1&#45;&gt;Node2 -->
<g id="edge1" class="edge"><title>Node1&#45;&gt;Node2</title>
<path fill="none" stroke="midnightblue" d="M99.6342,-60.2462C118.725,-65.484 140.684,-71.5091 158.562,-76.4141"/>
<polygon fill="midnightblue" stroke="midnightblue" points="100.519,-56.8597 89.9494,-57.589 98.6669,-63.6102 100.519,-56.8597"/>
</g>
<!-- Node4 -->
<g id="node4" class="node"><title>Node4</title>
<g id="a_node4"><a xlink:href="namespacens_sd_d.html#a5e97bcc4eb3c219b6b25ce9a669c2905" target="_top" xlink:title="Swaps the content of two lists. ">
<polygon fill="white" stroke="black" points="155,-38.5 155,-57.5 234,-57.5 234,-38.5 155,-38.5"/>
<text text-anchor="middle" x="194.5" y="-45.5" font-family="Helvetica,sans-Serif" font-size="10.00">nsSdD::swap</text>
</a>
</g>
</g>
<!-- Node1&#45;&gt;Node4 -->
<g id="edge3" class="edge"><title>Node1&#45;&gt;Node4</title>
<path fill="none" stroke="midnightblue" d="M118.494,-48C130.917,-48 143.59,-48 154.897,-48"/>
<polygon fill="midnightblue" stroke="midnightblue" points="118.152,-44.5001 108.152,-48 118.152,-51.5001 118.152,-44.5001"/>
</g>
<!-- Node3 -->
<g id="node3" class="node"><title>Node3</title>
<g id="a_node3"><a xlink:href="test_2main_8cpp.html#aed75b3aafd0856fd8d1c9050617a8696" target="_top" xlink:title="TEST">
<polygon fill="white" stroke="black" points="336.5,-76.5 336.5,-95.5 377.5,-95.5 377.5,-76.5 336.5,-76.5"/>
<text text-anchor="middle" x="357" y="-83.5" font-family="Helvetica,sans-Serif" font-size="10.00">TEST</text>
</a>
</g>
</g>
<!-- Node2&#45;&gt;Node3 -->
<g id="edge2" class="edge"><title>Node2&#45;&gt;Node3</title>
<path fill="none" stroke="midnightblue" d="M255.709,-86C284.204,-86 316.299,-86 336.337,-86"/>
<polygon fill="midnightblue" stroke="midnightblue" points="255.403,-82.5001 245.403,-86 255.403,-89.5001 255.403,-82.5001"/>
</g>
<!-- Node5 -->
<g id="node5" class="node"><title>Node5</title>
<g id="a_node5"><a xlink:href="classns_sd_d_1_1_c_base_node.html#a0656434b7fb2980ab261d51ac4b7741d" target="_top" xlink:title="Reverse the order of the elements in a list. ">
<polygon fill="white" stroke="black" points="281,-38.5 281,-57.5 433,-57.5 433,-38.5 281,-38.5"/>
<text text-anchor="middle" x="357" y="-45.5" font-family="Helvetica,sans-Serif" font-size="10.00">nsSdD::CBaseNode::reverse</text>
</a>
</g>
</g>
<!-- Node4&#45;&gt;Node5 -->
<g id="edge4" class="edge"><title>Node4&#45;&gt;Node5</title>
<path fill="none" stroke="midnightblue" d="M244.551,-48C256,-48 268.452,-48 280.747,-48"/>
<polygon fill="midnightblue" stroke="midnightblue" points="244.353,-44.5001 234.353,-48 244.353,-51.5001 244.353,-44.5001"/>
</g>
<!-- Node6 -->
<g id="node6" class="node"><title>Node6</title>
<g id="a_node6"><a xlink:href="classns_sd_d_1_1_c_base_node.html#aa988b77c9d11ded6ac33e0450616dceb" target="_top" xlink:title="Swaps two nodes, that could be in differents lists. ">
<polygon fill="white" stroke="black" points="286.5,-0.5 286.5,-19.5 427.5,-19.5 427.5,-0.5 286.5,-0.5"/>
<text text-anchor="middle" x="357" y="-7.5" font-family="Helvetica,sans-Serif" font-size="10.00">nsSdD::CBaseNode::swap</text>
</a>
</g>
</g>
<!-- Node4&#45;&gt;Node6 -->
<g id="edge5" class="edge"><title>Node4&#45;&gt;Node6</title>
<path fill="none" stroke="midnightblue" d="M244.224,-36.464C267.132,-31.0405 294.114,-24.6521 315.829,-19.5109"/>
<polygon fill="midnightblue" stroke="midnightblue" points="243.277,-33.0914 234.353,-38.8013 244.89,-39.9031 243.277,-33.0914"/>
</g>
<!-- Node6&#45;&gt;Node1 -->
<g id="edge6" class="edge"><title>Node6&#45;&gt;Node1</title>
<path fill="none" stroke="midnightblue" d="M275.865,-14.8848C236.076,-17.8931 187.361,-22.4531 144,-29 127.753,-31.4531 110.018,-35.0488 94.6854,-38.4539"/>
<polygon fill="midnightblue" stroke="midnightblue" points="276.328,-18.3602 286.043,-14.1342 275.813,-11.3792 276.328,-18.3602"/>
</g>
</g>
</svg>
