<?xml version="1.0" encoding="UTF-8" standalone="no"?>
<!DOCTYPE svg PUBLIC "-//W3C//DTD SVG 1.1//EN"
 "http://www.w3.org/Graphics/SVG/1.1/DTD/svg11.dtd">
<!-- Generated by graphviz version 2.38.0 (20140413.2041)
 -->
<!-- Title: nsSdD::CList::assign Pages: 1 -->
<svg width="558pt" height="108pt"
 viewBox="0.00 0.00 558.00 107.65" xmlns="http://www.w3.org/2000/svg" xmlns:xlink="http://www.w3.org/1999/xlink">
<g id="graph0" class="graph" transform="scale(1 1) rotate(0) translate(4 103.653)">
<title>nsSdD::CList::assign</title>
<polygon fill="white" stroke="none" points="-4,4 -4,-103.653 554,-103.653 554,4 -4,4"/>
<!-- Node1 -->
<g id="node1" class="node"><title>Node1</title>
<polygon fill="#bfbfbf" stroke="black" points="0,-41.9007 0,-60.9007 113,-60.9007 113,-41.9007 0,-41.9007"/>
<text text-anchor="middle" x="56.5" y="-48.9007" font-family="Helvetica,sans-Serif" font-size="10.00">nsSdD::CList::assign</text>
</g>
<!-- Node2 -->
<g id="node2" class="node"><title>Node2</title>
<g id="a_node2"><a xlink:href="classns_sd_d_1_1_c_list.html#af41da388e9983741e7a559f1b6a0ae01" target="_top" xlink:title="Returns an iterator to the first element. ">
<polygon fill="white" stroke="black" points="441,-60.9007 441,-79.9007 550,-79.9007 550,-60.9007 441,-60.9007"/>
<text text-anchor="middle" x="495.5" y="-67.9007" font-family="Helvetica,sans-Serif" font-size="10.00">nsSdD::CList::begin</text>
</a>
</g>
</g>
<!-- Node1&#45;&gt;Node2 -->
<g id="edge1" class="edge"><title>Node1&#45;&gt;Node2</title>
<path fill="none" stroke="midnightblue" d="M74.7295,-60.9786C92.6527,-70.3517 121.841,-83.9854 149,-89.4007 250.147,-109.569 371.021,-94.1398 439.67,-81.789"/>
<polygon fill="midnightblue" stroke="midnightblue" points="440.621,-85.1728 449.82,-79.9165 439.351,-78.289 440.621,-85.1728"/>
</g>
<!-- Node3 -->
<g id="node3" class="node"><title>Node3</title>
<g id="a_node3"><a xlink:href="classns_sd_d_1_1_c_list.html#a9d67e4a55aac8ccd2b7cd8fd3939a176" target="_top" xlink:title="Returns an iterator pointing after the last element. ">
<polygon fill="white" stroke="black" points="445,-3.90075 445,-22.9007 546,-22.9007 546,-3.90075 445,-3.90075"/>
<text text-anchor="middle" x="495.5" y="-10.9007" font-family="Helvetica,sans-Serif" font-size="10.00">nsSdD::CList::end</text>
</a>
</g>
</g>
<!-- Node1&#45;&gt;Node3 -->
<g id="edge2" class="edge"><title>Node1&#45;&gt;Node3</title>
<path fill="none" stroke="midnightblue" d="M74.7295,-41.8228C92.6527,-32.4498 121.841,-18.8161 149,-13.4007 247.616,6.26274 365.237,0.172585 434.682,-6.37369"/>
<polygon fill="midnightblue" stroke="midnightblue" points="434.693,-9.89144 444.987,-7.38203 435.375,-2.92471 434.693,-9.89144"/>
</g>
<!-- Node4 -->
<g id="node4" class="node"><title>Node4</title>
<g id="a_node4"><a xlink:href="classns_sd_d_1_1_c_list.html#a0ab43df16936388ddf36555d762006db" target="_top" xlink:title="Removes a node from the list, given an iterator position to it. ">
<polygon fill="white" stroke="black" points="149,-22.9007 149,-41.9007 259,-41.9007 259,-22.9007 149,-22.9007"/>
<text text-anchor="middle" x="204" y="-29.9007" font-family="Helvetica,sans-Serif" font-size="10.00">nsSdD::CList::erase</text>
</a>
</g>
</g>
<!-- Node1&#45;&gt;Node4 -->
<g id="edge3" class="edge"><title>Node1&#45;&gt;Node4</title>
<path fill="none" stroke="midnightblue" d="M113.338,-44.1092C121.748,-43.011 130.477,-41.8712 139.041,-40.7528"/>
<polygon fill="midnightblue" stroke="midnightblue" points="139.527,-44.2192 148.989,-39.4537 138.62,-37.2781 139.527,-44.2192"/>
</g>
<!-- Node5 -->
<g id="node5" class="node"><title>Node5</title>
<g id="a_node5"><a xlink:href="classns_sd_d_1_1_c_list.html#a14b55f9a1acefa302eb5df42c7c99c9b" target="_top" xlink:title="Inserts a copy of every element in the range [first;last[ before position. ">
<polygon fill="white" stroke="black" points="149,-60.9007 149,-79.9007 259,-79.9007 259,-60.9007 149,-60.9007"/>
<text text-anchor="middle" x="204" y="-67.9007" font-family="Helvetica,sans-Serif" font-size="10.00">nsSdD::CList::insert</text>
</a>
</g>
</g>
<!-- Node1&#45;&gt;Node5 -->
<g id="edge4" class="edge"><title>Node1&#45;&gt;Node5</title>
<path fill="none" stroke="midnightblue" d="M113.338,-58.6923C121.748,-59.7905 130.477,-60.9303 139.041,-62.0487"/>
<polygon fill="midnightblue" stroke="midnightblue" points="138.62,-65.5234 148.989,-63.3478 139.527,-58.5823 138.62,-65.5234"/>
</g>
<!-- Node5&#45;&gt;Node2 -->
<g id="edge5" class="edge"><title>Node5&#45;&gt;Node2</title>
<path fill="none" stroke="midnightblue" d="M259.113,-70.4007C307.75,-70.4007 379.23,-70.4007 430.649,-70.4007"/>
<polygon fill="midnightblue" stroke="midnightblue" points="430.652,-73.9008 440.652,-70.4007 430.652,-66.9008 430.652,-73.9008"/>
</g>
<!-- Node6 -->
<g id="node6" class="node"><title>Node6</title>
<g id="a_node6"><a xlink:href="classns_sd_d_1_1_c_list.html#aa8b0bd58b9cb6a6463b6e22341e87ea7" target="_top" xlink:title="Move the content of a list before an element in another Moves the content of x before the element poi...">
<polygon fill="white" stroke="black" points="295,-22.9007 295,-41.9007 405,-41.9007 405,-22.9007 295,-22.9007"/>
<text text-anchor="middle" x="350" y="-29.9007" font-family="Helvetica,sans-Serif" font-size="10.00">nsSdD::CList::splice</text>
</a>
</g>
</g>
<!-- Node5&#45;&gt;Node6 -->
<g id="edge6" class="edge"><title>Node5&#45;&gt;Node6</title>
<path fill="none" stroke="midnightblue" d="M241.337,-60.8117C260.083,-55.865 283.143,-49.7796 303.107,-44.5115"/>
<polygon fill="midnightblue" stroke="midnightblue" points="304.148,-47.8566 312.924,-41.9208 302.362,-41.0883 304.148,-47.8566"/>
</g>
<!-- Node6&#45;&gt;Node2 -->
<g id="edge7" class="edge"><title>Node6&#45;&gt;Node2</title>
<path fill="none" stroke="midnightblue" d="M387.211,-41.9898C405.821,-46.9177 428.697,-52.9756 448.539,-58.2299"/>
<polygon fill="midnightblue" stroke="midnightblue" points="447.738,-61.6383 458.3,-60.8148 449.53,-54.8715 447.738,-61.6383"/>
</g>
<!-- Node6&#45;&gt;Node3 -->
<g id="edge8" class="edge"><title>Node6&#45;&gt;Node3</title>
<path fill="none" stroke="midnightblue" d="M405.251,-25.2177C414.912,-23.9386 425.023,-22.5998 434.825,-21.302"/>
<polygon fill="midnightblue" stroke="midnightblue" points="435.442,-24.751 444.896,-19.9686 434.523,-17.8115 435.442,-24.751"/>
</g>
</g>
</svg>
