<?xml version="1.0" encoding="UTF-8" standalone="no"?>
<!DOCTYPE svg PUBLIC "-//W3C//DTD SVG 1.1//EN"
 "http://www.w3.org/Graphics/SVG/1.1/DTD/svg11.dtd">
<!-- Generated by graphviz version 2.38.0 (20140413.2041)
 -->
<!-- Title: nsSdD::CList::assign Pages: 1 -->
<!--zoomable 108 -->
<svg id="main" version="1.1" xmlns="http://www.w3.org/2000/svg" xmlns:xlink="http://www.w3.org/1999/xlink" xml:space="preserve" onload="init(evt)">
<style type="text/css"><![CDATA[
.edge:hover path { stroke: red; }
.edge:hover polygon { stroke: red; fill: red; }
]]></style>
<script type="text/javascript"><![CDATA[
var edges = document.getElementsByTagName('g');
if (edges && edges.length) {
  for (var i=0;i<edges.length;i++) {
    if (edges[i].id.substr(0,4)=='edge') {
      edges[i].setAttribute('class','edge');
    }
  }
}
]]></script>
        <defs>
                <circle id="rim" cx="0" cy="0" r="7"/>
                <circle id="rim2" cx="0" cy="0" r="3.5"/>
                <g id="zoomPlus">
                        <use xlink:href="#rim" fill="#404040">
                                <set attributeName="fill" to="#808080" begin="zoomplus.mouseover" end="zoomplus.mouseout"/>
                        </use>
                        <path d="M-4,0h8M0,-4v8" fill="none" stroke="white" stroke-width="1.5" pointer-events="none"/>
                </g>
                <g id="zoomMin">
                        <use xlink:href="#rim" fill="#404040">
                                <set attributeName="fill" to="#808080" begin="zoomminus.mouseover" end="zoomminus.mouseout"/>
                        </use>
                        <path d="M-4,0h8" fill="none" stroke="white" stroke-width="1.5" pointer-events="none"/>
                </g>
                <g id="dirArrow">
                        <path fill="none" stroke="white" stroke-width="1.5" d="M0,-3.0v7 M-2.5,-0.5L0,-3.0L2.5,-0.5"/>
                </g>
               <g id="resetDef">
                       <use xlink:href="#rim2" fill="#404040">
                               <set attributeName="fill" to="#808080" begin="reset.mouseover" end="reset.mouseout"/>
                       </use>
               </g>
        </defs>

<script type="text/javascript">
var viewWidth = 558;
var viewHeight = 108;
var sectionId = 'dynsection-3';
</script>
<script xlink:href="svgpan.js"/>
<svg id="graph" class="graph">
<g id="viewport">
<title>nsSdD::CList::assign</title>
<polygon fill="white" stroke="none" points="-4,4 -4,-103.653 554,-103.653 554,4 -4,4"/>
<!-- Node1 -->
<g id="node1" class="node"><title>Node1</title>
<polygon fill="#bfbfbf" stroke="black" points="0,-41.9007 0,-60.9007 113,-60.9007 113,-41.9007 0,-41.9007"/>
<text text-anchor="middle" x="56.5" y="-48.9007" font-family="Helvetica,sans-Serif" font-size="10.00">nsSdD::CList::assign</text>
</g>
<!-- Node2 -->
<g id="node2" class="node"><title>Node2</title>
<g id="a_node2"><a xlink:href="classns_sd_d_1_1_c_list.html#af41da388e9983741e7a559f1b6a0ae01" target="_top" xlink:title="Returns an iterator to the first element. ">
<polygon fill="white" stroke="black" points="441,-60.9007 441,-79.9007 550,-79.9007 550,-60.9007 441,-60.9007"/>
<text text-anchor="middle" x="495.5" y="-67.9007" font-family="Helvetica,sans-Serif" font-size="10.00">nsSdD::CList::begin</text>
</a>
</g>
</g>
<!-- Node1&#45;&gt;Node2 -->
<g id="edge1" class="edge"><title>Node1&#45;&gt;Node2</title>
<path fill="none" stroke="midnightblue" d="M74.7295,-60.9786C92.6527,-70.3517 121.841,-83.9854 149,-89.4007 250.147,-109.569 371.021,-94.1398 439.67,-81.789"/>
<polygon fill="midnightblue" stroke="midnightblue" points="440.621,-85.1728 449.82,-79.9165 439.351,-78.289 440.621,-85.1728"/>
</g>
<!-- Node3 -->
<g id="node3" class="node"><title>Node3</title>
<g id="a_node3"><a xlink:href="classns_sd_d_1_1_c_list.html#a9d67e4a55aac8ccd2b7cd8fd3939a176" target="_top" xlink:title="Returns an iterator pointing after the last element. ">
<polygon fill="white" stroke="black" points="445,-3.90075 445,-22.9007 546,-22.9007 546,-3.90075 445,-3.90075"/>
<text text-anchor="middle" x="495.5" y="-10.9007" font-family="Helvetica,sans-Serif" font-size="10.00">nsSdD::CList::end</text>
</a>
</g>
</g>
<!-- Node1&#45;&gt;Node3 -->
<g id="edge2" class="edge"><title>Node1&#45;&gt;Node3</title>
<path fill="none" stroke="midnightblue" d="M74.7295,-41.8228C92.6527,-32.4498 121.841,-18.8161 149,-13.4007 247.616,6.26274 365.237,0.172585 434.682,-6.37369"/>
<polygon fill="midnightblue" stroke="midnightblue" points="434.693,-9.89144 444.987,-7.38203 435.375,-2.92471 434.693,-9.89144"/>
</g>
<!-- Node4 -->
<g id="node4" class="node"><title>Node4</title>
<g id="a_node4"><a xlink:href="classns_sd_d_1_1_c_list.html#a0ab43df16936388ddf36555d762006db" target="_top" xlink:title="Removes a node from the list, given an iterator position to it. ">
<polygon fill="white" stroke="black" points="149,-22.9007 149,-41.9007 259,-41.9007 259,-22.9007 149,-22.9007"/>
<text text-anchor="middle" x="204" y="-29.9007" font-family="Helvetica,sans-Serif" font-size="10.00">nsSdD::CList::erase</text>
</a>
</g>
</g>
<!-- Node1&#45;&gt;Node4 -->
<g id="edge3" class="edge"><title>Node1&#45;&gt;Node4</title>
<path fill="none" stroke="midnightblue" d="M113.338,-44.1092C121.748,-43.011 130.477,-41.8712 139.041,-40.7528"/>
<polygon fill="midnightblue" stroke="midnightblue" points="139.527,-44.2192 148.989,-39.4537 138.62,-37.2781 139.527,-44.2192"/>
</g>
<!-- Node5 -->
<g id="node5" class="node"><title>Node5</title>
<g id="a_node5"><a xlink:href="classns_sd_d_1_1_c_list.html#a14b55f9a1acefa302eb5df42c7c99c9b" target="_top" xlink:title="Inserts a copy of every element in the range [first;last[ before position. ">
<polygon fill="white" stroke="black" points="149,-60.9007 149,-79.9007 259,-79.9007 259,-60.9007 149,-60.9007"/>
<text text-anchor="middle" x="204" y="-67.9007" font-family="Helvetica,sans-Serif" font-size="10.00">nsSdD::CList::insert</text>
</a>
</g>
</g>
<!-- Node1&#45;&gt;Node5 -->
<g id="edge4" class="edge"><title>Node1&#45;&gt;Node5</title>
<path fill="none" stroke="midnightblue" d="M113.338,-58.6923C121.748,-59.7905 130.477,-60.9303 139.041,-62.0487"/>
<polygon fill="midnightblue" stroke="midnightblue" points="138.62,-65.5234 148.989,-63.3478 139.527,-58.5823 138.62,-65.5234"/>
</g>
<!-- Node5&#45;&gt;Node2 -->
<g id="edge5" class="edge"><title>Node5&#45;&gt;Node2</title>
<path fill="none" stroke="midnightblue" d="M259.113,-70.4007C307.75,-70.4007 379.23,-70.4007 430.649,-70.4007"/>
<polygon fill="midnightblue" stroke="midnightblue" points="430.652,-73.9008 440.652,-70.4007 430.652,-66.9008 430.652,-73.9008"/>
</g>
<!-- Node6 -->
<g id="node6" class="node"><title>Node6</title>
<g id="a_node6"><a xlink:href="classns_sd_d_1_1_c_list.html#aa8b0bd58b9cb6a6463b6e22341e87ea7" target="_top" xlink:title="Move the content of a list before an element in another Moves the content of x before the element poi...">
<polygon fill="white" stroke="black" points="295,-22.9007 295,-41.9007 405,-41.9007 405,-22.9007 295,-22.9007"/>
<text text-anchor="middle" x="350" y="-29.9007" font-family="Helvetica,sans-Serif" font-size="10.00">nsSdD::CList::splice</text>
</a>
</g>
</g>
<!-- Node5&#45;&gt;Node6 -->
<g id="edge6" class="edge"><title>Node5&#45;&gt;Node6</title>
<path fill="none" stroke="midnightblue" d="M241.337,-60.8117C260.083,-55.865 283.143,-49.7796 303.107,-44.5115"/>
<polygon fill="midnightblue" stroke="midnightblue" points="304.148,-47.8566 312.924,-41.9208 302.362,-41.0883 304.148,-47.8566"/>
</g>
<!-- Node6&#45;&gt;Node2 -->
<g id="edge7" class="edge"><title>Node6&#45;&gt;Node2</title>
<path fill="none" stroke="midnightblue" d="M387.211,-41.9898C405.821,-46.9177 428.697,-52.9756 448.539,-58.2299"/>
<polygon fill="midnightblue" stroke="midnightblue" points="447.738,-61.6383 458.3,-60.8148 449.53,-54.8715 447.738,-61.6383"/>
</g>
<!-- Node6&#45;&gt;Node3 -->
<g id="edge8" class="edge"><title>Node6&#45;&gt;Node3</title>
<path fill="none" stroke="midnightblue" d="M405.251,-25.2177C414.912,-23.9386 425.023,-22.5998 434.825,-21.302"/>
<polygon fill="midnightblue" stroke="midnightblue" points="435.442,-24.751 444.896,-19.9686 434.523,-17.8115 435.442,-24.751"/>
</g>
</g>
</svg>
        <g id="navigator" transform="translate(0 0)" fill="#404254">
                <rect fill="#f2f5e9" fill-opacity="0.5" stroke="#606060" stroke-width=".5" x="0" y="0" width="60" height="60"/>
                <use id="zoomplus" xlink:href="#zoomPlus" x="17" y="9" onmousedown="handleZoom(evt,'in')"/>
                <use id="zoomminus" xlink:href="#zoomMin" x="42" y="9" onmousedown="handleZoom(evt,'out')"/>
                <use id="reset" xlink:href="#resetDef" x="30" y="36" onmousedown="handleReset()"/>
                <g id="arrowUp" xlink:href="#dirArrow" transform="translate(30 24)" onmousedown="handlePan(0,-1)">
                  <use xlink:href="#rim" fill="#404040">
                        <set attributeName="fill" to="#808080" begin="arrowUp.mouseover" end="arrowUp.mouseout"/>
                  </use>
                  <path fill="none" stroke="white" stroke-width="1.5" d="M0,-3.0v7 M-2.5,-0.5L0,-3.0L2.5,-0.5"/>
                </g>
                <g id="arrowRight" xlink:href="#dirArrow" transform="rotate(90) translate(36 -43)" onmousedown="handlePan(1,0)">
                  <use xlink:href="#rim" fill="#404040">
                        <set attributeName="fill" to="#808080" begin="arrowRight.mouseover" end="arrowRight.mouseout"/>
                  </use>
                  <path fill="none" stroke="white" stroke-width="1.5" d="M0,-3.0v7 M-2.5,-0.5L0,-3.0L2.5,-0.5"/>
                </g>
                <g id="arrowDown" xlink:href="#dirArrow" transform="rotate(180) translate(-30 -48)" onmousedown="handlePan(0,1)">
                  <use xlink:href="#rim" fill="#404040">
                        <set attributeName="fill" to="#808080" begin="arrowDown.mouseover" end="arrowDown.mouseout"/>
                  </use>
                  <path fill="none" stroke="white" stroke-width="1.5" d="M0,-3.0v7 M-2.5,-0.5L0,-3.0L2.5,-0.5"/>
                </g>
                <g id="arrowLeft" xlink:href="#dirArrow" transform="rotate(270) translate(-36 17)" onmousedown="handlePan(-1,0)">
                  <use xlink:href="#rim" fill="#404040">
                        <set attributeName="fill" to="#808080" begin="arrowLeft.mouseover" end="arrowLeft.mouseout"/>
                  </use>
                  <path fill="none" stroke="white" stroke-width="1.5" d="M0,-3.0v7 M-2.5,-0.5L0,-3.0L2.5,-0.5"/>
                </g>
        </g>
        <svg viewBox="0 0 15 15" width="100%" height="30px" preserveAspectRatio="xMaxYMin meet">
         <g id="arrow_out" transform="scale(0.3 0.3)">
          <a xlink:href="classns_sd_d_1_1_c_list_ac9c0f95ce50cfe935e81bc158c34c7aa_cgraph_org.svg" target="_base">
           <rect id="button" ry="5" rx="5" y="6" x="6" height="38" width="38"
                fill="#f2f5e9" fill-opacity="0.5" stroke="#606060" stroke-width="1.0"/>
           <path id="arrow"
             d="M 11.500037,31.436501 C 11.940474,20.09759 22.043105,11.32322 32.158766,21.979434 L 37.068811,17.246167 C 37.068811,17.246167 37.088388,32 37.088388,32 L 22.160133,31.978069 C 22.160133,31.978069 26.997745,27.140456 26.997745,27.140456 C 18.528582,18.264221 13.291696,25.230495 11.500037,31.436501 z"
             style="fill:#404040;"/>
          </a>
         </g>
        </svg>
</svg>
