<?xml version="1.0" encoding="UTF-8" standalone="no"?>
<!DOCTYPE svg PUBLIC "-//W3C//DTD SVG 1.1//EN"
 "http://www.w3.org/Graphics/SVG/1.1/DTD/svg11.dtd">
<!-- Generated by graphviz version 2.38.0 (20140413.2041)
 -->
<!-- Title: nsSdD::CBaseNode::swap Pages: 1 -->
<svg width="408pt" height="47pt"
 viewBox="0.00 0.00 408.00 47.00" xmlns="http://www.w3.org/2000/svg" xmlns:xlink="http://www.w3.org/1999/xlink">
<g id="graph0" class="graph" transform="scale(1 1) rotate(0) translate(4 43)">
<title>nsSdD::CBaseNode::swap</title>
<polygon fill="white" stroke="none" points="-4,4 -4,-43 404,-43 404,4 -4,4"/>
<!-- Node1 -->
<g id="node1" class="node"><title>Node1</title>
<polygon fill="#bfbfbf" stroke="black" points="0,-0.5 0,-19.5 141,-19.5 141,-0.5 0,-0.5"/>
<text text-anchor="middle" x="70.5" y="-7.5" font-family="Helvetica,sans-Serif" font-size="10.00">nsSdD::CBaseNode::swap</text>
</g>
<!-- Node2 -->
<g id="node2" class="node"><title>Node2</title>
<g id="a_node2"><a xlink:href="namespacens_sd_d.html#a5e97bcc4eb3c219b6b25ce9a669c2905" target="_top" xlink:title="Swaps the content of two lists. ">
<polygon fill="white" stroke="black" points="177,-19.5 177,-38.5 256,-38.5 256,-19.5 177,-19.5"/>
<text text-anchor="middle" x="216.5" y="-26.5" font-family="Helvetica,sans-Serif" font-size="10.00">nsSdD::swap</text>
</a>
</g>
</g>
<!-- Node1&#45;&gt;Node2 -->
<g id="edge1" class="edge"><title>Node1&#45;&gt;Node2</title>
<path fill="none" stroke="midnightblue" d="M141.391,-19.2217C149.956,-20.3519 158.562,-21.4873 166.721,-22.5639"/>
<polygon fill="midnightblue" stroke="midnightblue" points="166.41,-26.0531 176.782,-23.8914 167.326,-19.1132 166.41,-26.0531"/>
</g>
<!-- Node3 -->
<g id="node3" class="node"><title>Node3</title>
<g id="a_node3"><a xlink:href="classns_sd_d_1_1_c_list.html#a46b0ba608257cee1897c1ca772eeacd3" target="_top" xlink:title="Swaps the content of two lists. ">
<polygon fill="white" stroke="black" points="292,-0.5 292,-19.5 400,-19.5 400,-0.5 292,-0.5"/>
<text text-anchor="middle" x="346" y="-7.5" font-family="Helvetica,sans-Serif" font-size="10.00">nsSdD::CList::swap</text>
</a>
</g>
</g>
<!-- Node2&#45;&gt;Node3 -->
<g id="edge2" class="edge"><title>Node2&#45;&gt;Node3</title>
<path fill="none" stroke="midnightblue" d="M256.1,-23.2478C264.301,-22.0257 273.163,-20.7051 282.006,-19.3873"/>
<polygon fill="midnightblue" stroke="midnightblue" points="282.571,-22.842 291.945,-17.9062 281.539,-15.9184 282.571,-22.842"/>
</g>
<!-- Node3&#45;&gt;Node1 -->
<g id="edge3" class="edge"><title>Node3&#45;&gt;Node1</title>
<path fill="none" stroke="midnightblue" d="M291.81,-10C251.878,-10 196.53,-10 151.301,-10"/>
<polygon fill="midnightblue" stroke="midnightblue" points="151.223,-6.5001 141.223,-10 151.223,-13.5001 151.223,-6.5001"/>
</g>
</g>
</svg>
