<?xml version="1.0" encoding="UTF-8" standalone="no"?>
<!DOCTYPE svg PUBLIC "-//W3C//DTD SVG 1.1//EN"
 "http://www.w3.org/Graphics/SVG/1.1/DTD/svg11.dtd">
<!-- Generated by graphviz version 2.38.0 (20140413.2041)
 -->
<!-- Title: nsSdD::CList::insert Pages: 1 -->
<svg width="456pt" height="230pt"
 viewBox="0.00 0.00 456.00 230.00" xmlns="http://www.w3.org/2000/svg" xmlns:xlink="http://www.w3.org/1999/xlink">
<g id="graph0" class="graph" transform="scale(1 1) rotate(0) translate(4 226)">
<title>nsSdD::CList::insert</title>
<polygon fill="white" stroke="none" points="-4,4 -4,-226 452,-226 452,4 -4,4"/>
<!-- Node1 -->
<g id="node1" class="node"><title>Node1</title>
<polygon fill="#bfbfbf" stroke="black" points="0,-95.5 0,-114.5 110,-114.5 110,-95.5 0,-95.5"/>
<text text-anchor="middle" x="55" y="-102.5" font-family="Helvetica,sans-Serif" font-size="10.00">nsSdD::CList::insert</text>
</g>
<!-- Node2 -->
<g id="node2" class="node"><title>Node2</title>
<g id="a_node2"><a xlink:href="classns_sd_d_1_1_c_list.html#abb9078f033ce1db015873f77bcaa2c64" target="_top" xlink:title="Creates a list by copying the elements in the range [first;last[. ">
<polygon fill="white" stroke="black" points="160,-202.5 160,-221.5 266,-221.5 266,-202.5 160,-202.5"/>
<text text-anchor="middle" x="213" y="-209.5" font-family="Helvetica,sans-Serif" font-size="10.00">nsSdD::CList::CList</text>
</a>
</g>
</g>
<!-- Node1&#45;&gt;Node2 -->
<g id="edge1" class="edge"><title>Node1&#45;&gt;Node2</title>
<path fill="none" stroke="midnightblue" d="M69.311,-122.455C85.386,-142.356 114.25,-174.515 146,-193 152.595,-196.84 160.017,-199.947 167.441,-202.448"/>
<polygon fill="midnightblue" stroke="midnightblue" points="71.9866,-120.196 63.0468,-114.51 66.4896,-124.53 71.9866,-120.196"/>
</g>
<!-- Node3 -->
<g id="node3" class="node"><title>Node3</title>
<g id="a_node3"><a xlink:href="classns_sd_d_1_1_c_list.html#a72562c1a0ba029b9f019790afe8a5425" target="_top" xlink:title="nsSdD::CList::push\l_front">
<polygon fill="white" stroke="black" points="160,-153 160,-183 266,-183 266,-153 160,-153"/>
<text text-anchor="start" x="168" y="-171" font-family="Helvetica,sans-Serif" font-size="10.00">nsSdD::CList::push</text>
<text text-anchor="middle" x="213" y="-160" font-family="Helvetica,sans-Serif" font-size="10.00">_front</text>
</a>
</g>
</g>
<!-- Node1&#45;&gt;Node3 -->
<g id="edge2" class="edge"><title>Node1&#45;&gt;Node3</title>
<path fill="none" stroke="midnightblue" d="M87.6529,-118.706C104.848,-126.065 126.52,-135.201 146,-143 154.19,-146.279 162.994,-149.691 171.418,-152.902"/>
<polygon fill="midnightblue" stroke="midnightblue" points="88.666,-115.332 78.0963,-114.602 85.9036,-121.764 88.666,-115.332"/>
</g>
<!-- Node6 -->
<g id="node6" class="node"><title>Node6</title>
<g id="a_node6"><a xlink:href="classns_sd_d_1_1_c_list.html#a24058246d6dcac6b17dccc3569d81189" target="_top" xlink:title="nsSdD::CList::push_back">
<polygon fill="white" stroke="black" points="146,-114.5 146,-133.5 280,-133.5 280,-114.5 146,-114.5"/>
<text text-anchor="middle" x="213" y="-121.5" font-family="Helvetica,sans-Serif" font-size="10.00">nsSdD::CList::push_back</text>
</a>
</g>
</g>
<!-- Node1&#45;&gt;Node6 -->
<g id="edge5" class="edge"><title>Node1&#45;&gt;Node6</title>
<path fill="none" stroke="midnightblue" d="M120.286,-112.83C128.73,-113.858 137.395,-114.914 145.869,-115.946"/>
<polygon fill="midnightblue" stroke="midnightblue" points="120.473,-109.327 110.123,-111.592 119.627,-116.275 120.473,-109.327"/>
</g>
<!-- Node9 -->
<g id="node9" class="node"><title>Node9</title>
<g id="a_node9"><a xlink:href="classns_sd_d_1_1_c_list.html#ac9c0f95ce50cfe935e81bc158c34c7aa" target="_top" xlink:title="Assigns the content of the list by the elements in the [first; last[ range If the range is smaller th...">
<polygon fill="white" stroke="black" points="156.5,-76.5 156.5,-95.5 269.5,-95.5 269.5,-76.5 156.5,-76.5"/>
<text text-anchor="middle" x="213" y="-83.5" font-family="Helvetica,sans-Serif" font-size="10.00">nsSdD::CList::assign</text>
</a>
</g>
</g>
<!-- Node1&#45;&gt;Node9 -->
<g id="edge8" class="edge"><title>Node1&#45;&gt;Node9</title>
<path fill="none" stroke="midnightblue" d="M120.101,-97.1928C132.138,-95.7268 144.631,-94.2052 156.384,-92.7737"/>
<polygon fill="midnightblue" stroke="midnightblue" points="119.627,-93.7246 110.123,-98.408 120.473,-100.673 119.627,-93.7246"/>
</g>
<!-- Node11 -->
<g id="node11" class="node"><title>Node11</title>
<g id="a_node11"><a xlink:href="classns_sd_d_1_1_c_list.html#a3982b8ab302ebe53b0f7b8866d1d5aa9" target="_top" xlink:title="Resize the container to n elements. If n &gt; size(), the extra element are default constructed or copie...">
<polygon fill="white" stroke="black" points="157.5,-38.5 157.5,-57.5 268.5,-57.5 268.5,-38.5 157.5,-38.5"/>
<text text-anchor="middle" x="213" y="-45.5" font-family="Helvetica,sans-Serif" font-size="10.00">nsSdD::CList::resize</text>
</a>
</g>
</g>
<!-- Node1&#45;&gt;Node11 -->
<g id="edge10" class="edge"><title>Node1&#45;&gt;Node11</title>
<path fill="none" stroke="midnightblue" d="M86.3748,-91.1078C103.656,-83.4752 125.816,-74.1377 146,-67 155.555,-63.6209 166.041,-60.3911 175.787,-57.584"/>
<polygon fill="midnightblue" stroke="midnightblue" points="84.5204,-88.1027 76.8159,-95.3753 87.3741,-94.4946 84.5204,-88.1027"/>
</g>
<!-- Node12 -->
<g id="node12" class="node"><title>Node12</title>
<g id="a_node12"><a xlink:href="test_2main_8cpp.html#ae2423dc27cca68542e2b91dbd7f4a659" target="_top" xlink:title="TEST">
<polygon fill="white" stroke="black" points="192.5,-0.5 192.5,-19.5 233.5,-19.5 233.5,-0.5 192.5,-0.5"/>
<text text-anchor="middle" x="213" y="-7.5" font-family="Helvetica,sans-Serif" font-size="10.00">TEST</text>
</a>
</g>
</g>
<!-- Node1&#45;&gt;Node12 -->
<g id="edge11" class="edge"><title>Node1&#45;&gt;Node12</title>
<path fill="none" stroke="midnightblue" d="M72.0795,-87.6856C88.9539,-70.4812 117.014,-44.4897 146,-29 160.618,-21.1885 178.819,-16.2583 192.403,-13.3835"/>
<polygon fill="midnightblue" stroke="midnightblue" points="69.1339,-85.7006 64.7393,-95.341 74.1866,-90.5452 69.1339,-85.7006"/>
</g>
<!-- Node4 -->
<g id="node4" class="node"><title>Node4</title>
<g id="a_node4"><a xlink:href="src_2main_8cpp.html#ae66f6b31b5ad750f1fe042a706a4e3d4" target="_top" xlink:title="main">
<polygon fill="white" stroke="black" points="361.5,-196.5 361.5,-215.5 402.5,-215.5 402.5,-196.5 361.5,-196.5"/>
<text text-anchor="middle" x="382" y="-203.5" font-family="Helvetica,sans-Serif" font-size="10.00">main</text>
</a>
</g>
</g>
<!-- Node3&#45;&gt;Node4 -->
<g id="edge3" class="edge"><title>Node3&#45;&gt;Node4</title>
<path fill="none" stroke="midnightblue" d="M276.433,-182.206C306.587,-189.068 340.662,-196.821 361.487,-201.56"/>
<polygon fill="midnightblue" stroke="midnightblue" points="276.909,-178.725 266.382,-179.919 275.356,-185.551 276.909,-178.725"/>
</g>
<!-- Node5 -->
<g id="node5" class="node"><title>Node5</title>
<g id="a_node5"><a xlink:href="test_2main_8cpp.html#adbbafc21068a029870c5e9619a10bf21" target="_top" xlink:title="TEST">
<polygon fill="white" stroke="black" points="361.5,-158.5 361.5,-177.5 402.5,-177.5 402.5,-158.5 361.5,-158.5"/>
<text text-anchor="middle" x="382" y="-165.5" font-family="Helvetica,sans-Serif" font-size="10.00">TEST</text>
</a>
</g>
</g>
<!-- Node3&#45;&gt;Node5 -->
<g id="edge4" class="edge"><title>Node3&#45;&gt;Node5</title>
<path fill="none" stroke="midnightblue" d="M276.433,-168C306.587,-168 340.662,-168 361.487,-168"/>
<polygon fill="midnightblue" stroke="midnightblue" points="276.382,-164.5 266.382,-168 276.382,-171.5 276.382,-164.5"/>
</g>
<!-- Node7 -->
<g id="node7" class="node"><title>Node7</title>
<g id="a_node7"><a xlink:href="classns_sd_d_1_1_c_list.html#a847ac0924d9e5f86718bd1a9af55d0f4" target="_top" xlink:title="Creates a list of n elements with a value of val. ">
<polygon fill="white" stroke="black" points="329,-120.5 329,-139.5 435,-139.5 435,-120.5 329,-120.5"/>
<text text-anchor="middle" x="382" y="-127.5" font-family="Helvetica,sans-Serif" font-size="10.00">nsSdD::CList::CList</text>
</a>
</g>
</g>
<!-- Node6&#45;&gt;Node7 -->
<g id="edge6" class="edge"><title>Node6&#45;&gt;Node7</title>
<path fill="none" stroke="midnightblue" d="M290.371,-126.744C303.392,-127.212 316.646,-127.688 328.854,-128.126"/>
<polygon fill="midnightblue" stroke="midnightblue" points="290.122,-123.233 280.003,-126.371 289.871,-130.228 290.122,-123.233"/>
</g>
<!-- Node8 -->
<g id="node8" class="node"><title>Node8</title>
<g id="a_node8"><a xlink:href="test_2main_8cpp.html#aed75b3aafd0856fd8d1c9050617a8696" target="_top" xlink:title="TEST">
<polygon fill="white" stroke="black" points="361.5,-82.5 361.5,-101.5 402.5,-101.5 402.5,-82.5 361.5,-82.5"/>
<text text-anchor="middle" x="382" y="-89.5" font-family="Helvetica,sans-Serif" font-size="10.00">TEST</text>
</a>
</g>
</g>
<!-- Node6&#45;&gt;Node8 -->
<g id="edge7" class="edge"><title>Node6&#45;&gt;Node8</title>
<path fill="none" stroke="midnightblue" d="M273.845,-112.533C304.499,-106.659 339.789,-99.8968 361.236,-95.7871"/>
<polygon fill="midnightblue" stroke="midnightblue" points="272.816,-109.166 263.653,-114.486 274.133,-116.041 272.816,-109.166"/>
</g>
<!-- Node10 -->
<g id="node10" class="node"><title>Node10</title>
<g id="a_node10"><a xlink:href="classns_sd_d_1_1_c_list.html#a054317243498e5a560050e16db28c5f2" target="_top" xlink:title="Assigns the content of rhs to this Assigns the content of rhs to this. ">
<polygon fill="white" stroke="black" points="316,-44.5 316,-63.5 448,-63.5 448,-44.5 316,-44.5"/>
<text text-anchor="middle" x="382" y="-51.5" font-family="Helvetica,sans-Serif" font-size="10.00">nsSdD::CList::operator=</text>
</a>
</g>
</g>
<!-- Node9&#45;&gt;Node10 -->
<g id="edge9" class="edge"><title>Node9&#45;&gt;Node10</title>
<path fill="none" stroke="midnightblue" d="M273.631,-74.5738C292.501,-70.9578 313.148,-67.0016 331.25,-63.533"/>
<polygon fill="midnightblue" stroke="midnightblue" points="272.816,-71.1661 263.653,-76.4856 274.133,-78.041 272.816,-71.1661"/>
</g>
</g>
</svg>
