<?xml version="1.0" encoding="UTF-8" standalone="no"?>
<!DOCTYPE svg PUBLIC "-//W3C//DTD SVG 1.1//EN"
 "http://www.w3.org/Graphics/SVG/1.1/DTD/svg11.dtd">
<!-- Generated by graphviz version 2.38.0 (20140413.2041)
 -->
<!-- Title: nsSdD::CList::splice Pages: 1 -->
<svg width="602pt" height="249pt"
 viewBox="0.00 0.00 602.00 249.00" xmlns="http://www.w3.org/2000/svg" xmlns:xlink="http://www.w3.org/1999/xlink">
<g id="graph0" class="graph" transform="scale(1 1) rotate(0) translate(4 245)">
<title>nsSdD::CList::splice</title>
<polygon fill="white" stroke="none" points="-4,4 -4,-245 598,-245 598,4 -4,4"/>
<!-- Node1 -->
<g id="node1" class="node"><title>Node1</title>
<polygon fill="#bfbfbf" stroke="black" points="0,-66.5 0,-85.5 110,-85.5 110,-66.5 0,-66.5"/>
<text text-anchor="middle" x="55" y="-73.5" font-family="Helvetica,sans-Serif" font-size="10.00">nsSdD::CList::splice</text>
</g>
<!-- Node2 -->
<g id="node2" class="node"><title>Node2</title>
<g id="a_node2"><a xlink:href="classns_sd_d_1_1_c_list.html#a14b55f9a1acefa302eb5df42c7c99c9b" target="_top" xlink:title="Inserts a copy of every element in the range [first;last[ before position. ">
<polygon fill="white" stroke="black" points="146,-95.5 146,-114.5 256,-114.5 256,-95.5 146,-95.5"/>
<text text-anchor="middle" x="201" y="-102.5" font-family="Helvetica,sans-Serif" font-size="10.00">nsSdD::CList::insert</text>
</a>
</g>
</g>
<!-- Node1&#45;&gt;Node2 -->
<g id="edge1" class="edge"><title>Node1&#45;&gt;Node2</title>
<path fill="none" stroke="midnightblue" d="M113.706,-87.6214C126.581,-90.2143 140.092,-92.9351 152.5,-95.434"/>
<polygon fill="midnightblue" stroke="midnightblue" points="114.044,-84.1193 103.55,-85.5761 112.662,-90.9815 114.044,-84.1193"/>
</g>
<!-- Node14 -->
<g id="node14" class="node"><title>Node14</title>
<g id="a_node14"><a xlink:href="classns_sd_d_1_1_c_list.html#a55df73e3651d4bcd13b671bf5cf7e5eb" target="_top" xlink:title="Swaps the content of two lists. This sort is stable, it means consecutive equal elements keep their o...">
<polygon fill="white" stroke="black" points="150.5,-9.5 150.5,-28.5 251.5,-28.5 251.5,-9.5 150.5,-9.5"/>
<text text-anchor="middle" x="201" y="-16.5" font-family="Helvetica,sans-Serif" font-size="10.00">nsSdD::CList::sort</text>
</a>
</g>
</g>
<!-- Node1&#45;&gt;Node14 -->
<g id="edge13" class="edge"><title>Node1&#45;&gt;Node14</title>
<path fill="none" stroke="midnightblue" d="M89.7033,-62.6591C116.114,-52.205 152.221,-37.9126 175.819,-28.5716"/>
<polygon fill="midnightblue" stroke="midnightblue" points="88.1122,-59.5246 80.1024,-66.4595 90.6886,-66.0333 88.1122,-59.5246"/>
</g>
<!-- Node3 -->
<g id="node3" class="node"><title>Node3</title>
<g id="a_node3"><a xlink:href="classns_sd_d_1_1_c_list.html#abb9078f033ce1db015873f77bcaa2c64" target="_top" xlink:title="Creates a list by copying the elements in the range [first;last[. ">
<polygon fill="white" stroke="black" points="306,-183.5 306,-202.5 412,-202.5 412,-183.5 306,-183.5"/>
<text text-anchor="middle" x="359" y="-190.5" font-family="Helvetica,sans-Serif" font-size="10.00">nsSdD::CList::CList</text>
</a>
</g>
</g>
<!-- Node2&#45;&gt;Node3 -->
<g id="edge2" class="edge"><title>Node2&#45;&gt;Node3</title>
<path fill="none" stroke="midnightblue" d="M219.871,-121.561C237.164,-136.81 264.7,-159.111 292,-173 300.217,-177.18 309.462,-180.656 318.373,-183.471"/>
<polygon fill="midnightblue" stroke="midnightblue" points="222.026,-118.793 212.25,-114.709 217.346,-123.998 222.026,-118.793"/>
</g>
<!-- Node4 -->
<g id="node4" class="node"><title>Node4</title>
<g id="a_node4"><a xlink:href="classns_sd_d_1_1_c_list.html#a72562c1a0ba029b9f019790afe8a5425" target="_top" xlink:title="nsSdD::CList::push\l_front">
<polygon fill="white" stroke="black" points="306,-134 306,-164 412,-164 412,-134 306,-134"/>
<text text-anchor="start" x="314" y="-152" font-family="Helvetica,sans-Serif" font-size="10.00">nsSdD::CList::push</text>
<text text-anchor="middle" x="359" y="-141" font-family="Helvetica,sans-Serif" font-size="10.00">_front</text>
</a>
</g>
</g>
<!-- Node2&#45;&gt;Node4 -->
<g id="edge3" class="edge"><title>Node2&#45;&gt;Node4</title>
<path fill="none" stroke="midnightblue" d="M245.574,-117.29C264.264,-122.562 286.252,-128.763 305.803,-134.278"/>
<polygon fill="midnightblue" stroke="midnightblue" points="246.424,-113.893 235.85,-114.547 244.524,-120.631 246.424,-113.893"/>
</g>
<!-- Node7 -->
<g id="node7" class="node"><title>Node7</title>
<g id="a_node7"><a xlink:href="classns_sd_d_1_1_c_list.html#a24058246d6dcac6b17dccc3569d81189" target="_top" xlink:title="nsSdD::CList::push_back">
<polygon fill="white" stroke="black" points="292,-57.5 292,-76.5 426,-76.5 426,-57.5 292,-57.5"/>
<text text-anchor="middle" x="359" y="-64.5" font-family="Helvetica,sans-Serif" font-size="10.00">nsSdD::CList::push_back</text>
</a>
</g>
</g>
<!-- Node2&#45;&gt;Node7 -->
<g id="edge6" class="edge"><title>Node2&#45;&gt;Node7</title>
<path fill="none" stroke="midnightblue" d="M251.132,-93.032C272.993,-87.7069 298.376,-81.5238 318.918,-76.5201"/>
<polygon fill="midnightblue" stroke="midnightblue" points="250.253,-89.6437 241.365,-95.411 251.91,-96.4448 250.253,-89.6437"/>
</g>
<!-- Node10 -->
<g id="node10" class="node"><title>Node10</title>
<g id="a_node10"><a xlink:href="classns_sd_d_1_1_c_list.html#ac9c0f95ce50cfe935e81bc158c34c7aa" target="_top" xlink:title="Assigns the content of the list by the elements in the [first; last[ range If the range is smaller th...">
<polygon fill="white" stroke="black" points="302.5,-95.5 302.5,-114.5 415.5,-114.5 415.5,-95.5 302.5,-95.5"/>
<text text-anchor="middle" x="359" y="-102.5" font-family="Helvetica,sans-Serif" font-size="10.00">nsSdD::CList::assign</text>
</a>
</g>
</g>
<!-- Node2&#45;&gt;Node10 -->
<g id="edge9" class="edge"><title>Node2&#45;&gt;Node10</title>
<path fill="none" stroke="midnightblue" d="M266.462,-105C278.388,-105 290.749,-105 302.384,-105"/>
<polygon fill="midnightblue" stroke="midnightblue" points="266.123,-101.5 256.123,-105 266.123,-108.5 266.123,-101.5"/>
</g>
<!-- Node12 -->
<g id="node12" class="node"><title>Node12</title>
<g id="a_node12"><a xlink:href="classns_sd_d_1_1_c_list.html#a3982b8ab302ebe53b0f7b8866d1d5aa9" target="_top" xlink:title="Resize the container to n elements. If n &gt; size(), the extra element are default constructed or copie...">
<polygon fill="white" stroke="black" points="303.5,-19.5 303.5,-38.5 414.5,-38.5 414.5,-19.5 303.5,-19.5"/>
<text text-anchor="middle" x="359" y="-26.5" font-family="Helvetica,sans-Serif" font-size="10.00">nsSdD::CList::resize</text>
</a>
</g>
</g>
<!-- Node2&#45;&gt;Node12 -->
<g id="edge11" class="edge"><title>Node2&#45;&gt;Node12</title>
<path fill="none" stroke="midnightblue" d="M222.844,-89.378C240.492,-76.7594 266.861,-59.2999 292,-48 300.157,-44.3336 309.199,-41.1847 317.908,-38.5648"/>
<polygon fill="midnightblue" stroke="midnightblue" points="220.489,-86.7631 214.462,-95.4772 224.607,-92.423 220.489,-86.7631"/>
</g>
<!-- Node13 -->
<g id="node13" class="node"><title>Node13</title>
<g id="a_node13"><a xlink:href="test_2main_8cpp.html#ae2423dc27cca68542e2b91dbd7f4a659" target="_top" xlink:title="TEST">
<polygon fill="white" stroke="black" points="338.5,-221.5 338.5,-240.5 379.5,-240.5 379.5,-221.5 338.5,-221.5"/>
<text text-anchor="middle" x="359" y="-228.5" font-family="Helvetica,sans-Serif" font-size="10.00">TEST</text>
</a>
</g>
</g>
<!-- Node2&#45;&gt;Node13 -->
<g id="edge12" class="edge"><title>Node2&#45;&gt;Node13</title>
<path fill="none" stroke="midnightblue" d="M212.653,-123.45C227.43,-147.406 256.392,-188.879 292,-212 306.001,-221.091 324.427,-225.921 338.251,-228.432"/>
<polygon fill="midnightblue" stroke="midnightblue" points="215.516,-121.418 207.373,-114.639 209.511,-125.016 215.516,-121.418"/>
</g>
<!-- Node5 -->
<g id="node5" class="node"><title>Node5</title>
<g id="a_node5"><a xlink:href="src_2main_8cpp.html#ae66f6b31b5ad750f1fe042a706a4e3d4" target="_top" xlink:title="main">
<polygon fill="white" stroke="black" points="507.5,-136.5 507.5,-155.5 548.5,-155.5 548.5,-136.5 507.5,-136.5"/>
<text text-anchor="middle" x="528" y="-143.5" font-family="Helvetica,sans-Serif" font-size="10.00">main</text>
</a>
</g>
</g>
<!-- Node4&#45;&gt;Node5 -->
<g id="edge4" class="edge"><title>Node4&#45;&gt;Node5</title>
<path fill="none" stroke="midnightblue" d="M422.433,-147.878C452.587,-147.337 486.662,-146.725 507.487,-146.351"/>
<polygon fill="midnightblue" stroke="midnightblue" points="422.317,-144.38 412.382,-148.059 422.443,-151.379 422.317,-144.38"/>
</g>
<!-- Node6 -->
<g id="node6" class="node"><title>Node6</title>
<g id="a_node6"><a xlink:href="test_2main_8cpp.html#adbbafc21068a029870c5e9619a10bf21" target="_top" xlink:title="TEST">
<polygon fill="white" stroke="black" points="507.5,-174.5 507.5,-193.5 548.5,-193.5 548.5,-174.5 507.5,-174.5"/>
<text text-anchor="middle" x="528" y="-181.5" font-family="Helvetica,sans-Serif" font-size="10.00">TEST</text>
</a>
</g>
</g>
<!-- Node4&#45;&gt;Node6 -->
<g id="edge5" class="edge"><title>Node4&#45;&gt;Node6</title>
<path fill="none" stroke="midnightblue" d="M422.433,-162.085C452.587,-168.404 486.662,-175.546 507.487,-179.91"/>
<polygon fill="midnightblue" stroke="midnightblue" points="422.887,-158.604 412.382,-159.978 421.451,-165.455 422.887,-158.604"/>
</g>
<!-- Node8 -->
<g id="node8" class="node"><title>Node8</title>
<g id="a_node8"><a xlink:href="classns_sd_d_1_1_c_list.html#a847ac0924d9e5f86718bd1a9af55d0f4" target="_top" xlink:title="Creates a list of n elements with a value of val. ">
<polygon fill="white" stroke="black" points="475,-57.5 475,-76.5 581,-76.5 581,-57.5 475,-57.5"/>
<text text-anchor="middle" x="528" y="-64.5" font-family="Helvetica,sans-Serif" font-size="10.00">nsSdD::CList::CList</text>
</a>
</g>
</g>
<!-- Node7&#45;&gt;Node8 -->
<g id="edge7" class="edge"><title>Node7&#45;&gt;Node8</title>
<path fill="none" stroke="midnightblue" d="M436.371,-67C449.392,-67 462.646,-67 474.854,-67"/>
<polygon fill="midnightblue" stroke="midnightblue" points="436.003,-63.5001 426.003,-67 436.003,-70.5001 436.003,-63.5001"/>
</g>
<!-- Node9 -->
<g id="node9" class="node"><title>Node9</title>
<g id="a_node9"><a xlink:href="test_2main_8cpp.html#aed75b3aafd0856fd8d1c9050617a8696" target="_top" xlink:title="TEST">
<polygon fill="white" stroke="black" points="507.5,-0.5 507.5,-19.5 548.5,-19.5 548.5,-0.5 507.5,-0.5"/>
<text text-anchor="middle" x="528" y="-7.5" font-family="Helvetica,sans-Serif" font-size="10.00">TEST</text>
</a>
</g>
</g>
<!-- Node7&#45;&gt;Node9 -->
<g id="edge8" class="edge"><title>Node7&#45;&gt;Node9</title>
<path fill="none" stroke="midnightblue" d="M404.704,-54.6531C411.855,-52.5279 419.153,-50.2698 426,-48 454.631,-38.5095 487.197,-25.9264 507.425,-17.8943"/>
<polygon fill="midnightblue" stroke="midnightblue" points="403.716,-51.2953 395.097,-57.4573 405.677,-58.0149 403.716,-51.2953"/>
</g>
<!-- Node11 -->
<g id="node11" class="node"><title>Node11</title>
<g id="a_node11"><a xlink:href="classns_sd_d_1_1_c_list.html#a054317243498e5a560050e16db28c5f2" target="_top" xlink:title="Assigns the content of rhs to this Assigns the content of rhs to this. ">
<polygon fill="white" stroke="black" points="462,-95.5 462,-114.5 594,-114.5 594,-95.5 462,-95.5"/>
<text text-anchor="middle" x="528" y="-102.5" font-family="Helvetica,sans-Serif" font-size="10.00">nsSdD::CList::operator=</text>
</a>
</g>
</g>
<!-- Node10&#45;&gt;Node11 -->
<g id="edge10" class="edge"><title>Node10&#45;&gt;Node11</title>
<path fill="none" stroke="midnightblue" d="M425.847,-105C437.672,-105 449.992,-105 461.798,-105"/>
<polygon fill="midnightblue" stroke="midnightblue" points="425.609,-101.5 415.609,-105 425.609,-108.5 425.609,-101.5"/>
</g>
<!-- Node14&#45;&gt;Node9 -->
<g id="edge14" class="edge"><title>Node14&#45;&gt;Node9</title>
<path fill="none" stroke="midnightblue" d="M262.161,-12.1462C272.116,-11.2529 282.339,-10.4819 292,-10 371.866,-6.01663 467.19,-8.1328 507.486,-9.34356"/>
<polygon fill="midnightblue" stroke="midnightblue" points="261.545,-8.6887 251.919,-13.1142 262.204,-15.6576 261.545,-8.6887"/>
</g>
</g>
</svg>
