<?xml version="1.0" encoding="UTF-8" standalone="no"?>
<!DOCTYPE svg PUBLIC "-//W3C//DTD SVG 1.1//EN"
 "http://www.w3.org/Graphics/SVG/1.1/DTD/svg11.dtd">
<!-- Generated by graphviz version 2.38.0 (20140413.2041)
 -->
<!-- Title: nsSdD::CList::unique Pages: 1 -->
<svg width="273pt" height="142pt"
 viewBox="0.00 0.00 273.00 142.00" xmlns="http://www.w3.org/2000/svg" xmlns:xlink="http://www.w3.org/1999/xlink">
<g id="graph0" class="graph" transform="scale(1 1) rotate(0) translate(4 138)">
<title>nsSdD::CList::unique</title>
<polygon fill="white" stroke="none" points="-4,4 -4,-138 269,-138 269,4 -4,4"/>
<!-- Node1 -->
<g id="node1" class="node"><title>Node1</title>
<polygon fill="#bfbfbf" stroke="black" points="0,-57.5 0,-76.5 115,-76.5 115,-57.5 0,-57.5"/>
<text text-anchor="middle" x="57.5" y="-64.5" font-family="Helvetica,sans-Serif" font-size="10.00">nsSdD::CList::unique</text>
</g>
<!-- Node2 -->
<g id="node2" class="node"><title>Node2</title>
<g id="a_node2"><a xlink:href="classns_sd_d_1_1_c_list.html#ad9c0ecbdedb0a8ad28625874f3c11c4d" target="_top" xlink:title="Checks whether a list is empty. ">
<polygon fill="white" stroke="black" points="151,-114.5 151,-133.5 265,-133.5 265,-114.5 151,-114.5"/>
<text text-anchor="middle" x="208" y="-121.5" font-family="Helvetica,sans-Serif" font-size="10.00">nsSdD::CList::empty</text>
</a>
</g>
</g>
<!-- Node1&#45;&gt;Node2 -->
<g id="edge1" class="edge"><title>Node1&#45;&gt;Node2</title>
<path fill="none" stroke="midnightblue" d="M80.7745,-76.61C99.4147,-84.5409 126.776,-95.9249 151,-105 156.543,-107.077 162.43,-109.182 168.224,-111.197"/>
<polygon fill="midnightblue" stroke="midnightblue" points="167.218,-114.552 177.812,-114.483 169.487,-107.93 167.218,-114.552"/>
</g>
<!-- Node3 -->
<g id="node3" class="node"><title>Node3</title>
<g id="a_node3"><a xlink:href="classns_sd_d_1_1_c_list.html#af41da388e9983741e7a559f1b6a0ae01" target="_top" xlink:title="Returns an iterator to the first element. ">
<polygon fill="white" stroke="black" points="153.5,-76.5 153.5,-95.5 262.5,-95.5 262.5,-76.5 153.5,-76.5"/>
<text text-anchor="middle" x="208" y="-83.5" font-family="Helvetica,sans-Serif" font-size="10.00">nsSdD::CList::begin</text>
</a>
</g>
</g>
<!-- Node1&#45;&gt;Node3 -->
<g id="edge2" class="edge"><title>Node1&#45;&gt;Node3</title>
<path fill="none" stroke="midnightblue" d="M115.065,-74.2373C124.214,-75.4079 133.744,-76.6272 143.054,-77.8183"/>
<polygon fill="midnightblue" stroke="midnightblue" points="142.677,-81.2986 153.04,-79.0961 143.565,-74.3552 142.677,-81.2986"/>
</g>
<!-- Node4 -->
<g id="node4" class="node"><title>Node4</title>
<g id="a_node4"><a xlink:href="classns_sd_d_1_1_c_list.html#a9d67e4a55aac8ccd2b7cd8fd3939a176" target="_top" xlink:title="Returns an iterator pointing after the last element. ">
<polygon fill="white" stroke="black" points="157.5,-38.5 157.5,-57.5 258.5,-57.5 258.5,-38.5 157.5,-38.5"/>
<text text-anchor="middle" x="208" y="-45.5" font-family="Helvetica,sans-Serif" font-size="10.00">nsSdD::CList::end</text>
</a>
</g>
</g>
<!-- Node1&#45;&gt;Node4 -->
<g id="edge3" class="edge"><title>Node1&#45;&gt;Node4</title>
<path fill="none" stroke="midnightblue" d="M115.065,-59.7627C125.624,-58.4117 136.691,-56.9958 147.34,-55.6333"/>
<polygon fill="midnightblue" stroke="midnightblue" points="147.917,-59.0881 157.392,-54.3472 147.029,-52.1447 147.917,-59.0881"/>
</g>
<!-- Node5 -->
<g id="node5" class="node"><title>Node5</title>
<g id="a_node5"><a xlink:href="classns_sd_d_1_1_c_list.html#a0ab43df16936388ddf36555d762006db" target="_top" xlink:title="Removes a node from the list, given an iterator position to it. ">
<polygon fill="white" stroke="black" points="153,-0.5 153,-19.5 263,-19.5 263,-0.5 153,-0.5"/>
<text text-anchor="middle" x="208" y="-7.5" font-family="Helvetica,sans-Serif" font-size="10.00">nsSdD::CList::erase</text>
</a>
</g>
</g>
<!-- Node1&#45;&gt;Node5 -->
<g id="edge4" class="edge"><title>Node1&#45;&gt;Node5</title>
<path fill="none" stroke="midnightblue" d="M80.7745,-57.39C99.4147,-49.4591 126.776,-38.0751 151,-29 156.543,-26.9234 162.43,-24.8184 168.224,-22.8032"/>
<polygon fill="midnightblue" stroke="midnightblue" points="169.487,-26.0704 177.812,-19.5173 167.218,-19.4485 169.487,-26.0704"/>
</g>
</g>
</svg>
