<?xml version="1.0" encoding="UTF-8" standalone="no"?>
<!DOCTYPE svg PUBLIC "-//W3C//DTD SVG 1.1//EN"
 "http://www.w3.org/Graphics/SVG/1.1/DTD/svg11.dtd">
<!-- Generated by graphviz version 2.38.0 (20140413.2041)
 -->
<!-- Title: nsSdD::CList::begin Pages: 1 -->
<!--zoomable 621 -->
<svg id="main" version="1.1" xmlns="http://www.w3.org/2000/svg" xmlns:xlink="http://www.w3.org/1999/xlink" xml:space="preserve" onload="init(evt)">
<style type="text/css"><![CDATA[
.edge:hover path { stroke: red; }
.edge:hover polygon { stroke: red; fill: red; }
]]></style>
<script type="text/javascript"><![CDATA[
var edges = document.getElementsByTagName('g');
if (edges && edges.length) {
  for (var i=0;i<edges.length;i++) {
    if (edges[i].id.substr(0,4)=='edge') {
      edges[i].setAttribute('class','edge');
    }
  }
}
]]></script>
        <defs>
                <circle id="rim" cx="0" cy="0" r="7"/>
                <circle id="rim2" cx="0" cy="0" r="3.5"/>
                <g id="zoomPlus">
                        <use xlink:href="#rim" fill="#404040">
                                <set attributeName="fill" to="#808080" begin="zoomplus.mouseover" end="zoomplus.mouseout"/>
                        </use>
                        <path d="M-4,0h8M0,-4v8" fill="none" stroke="white" stroke-width="1.5" pointer-events="none"/>
                </g>
                <g id="zoomMin">
                        <use xlink:href="#rim" fill="#404040">
                                <set attributeName="fill" to="#808080" begin="zoomminus.mouseover" end="zoomminus.mouseout"/>
                        </use>
                        <path d="M-4,0h8" fill="none" stroke="white" stroke-width="1.5" pointer-events="none"/>
                </g>
                <g id="dirArrow">
                        <path fill="none" stroke="white" stroke-width="1.5" d="M0,-3.0v7 M-2.5,-0.5L0,-3.0L2.5,-0.5"/>
                </g>
               <g id="resetDef">
                       <use xlink:href="#rim2" fill="#404040">
                               <set attributeName="fill" to="#808080" begin="reset.mouseover" end="reset.mouseout"/>
                       </use>
               </g>
        </defs>

<script type="text/javascript">
var viewWidth = 768;
var viewHeight = 621;
var sectionId = 'dynsection-7';
</script>
<script xlink:href="svgpan.js"/>
<svg id="graph" class="graph">
<g id="viewport">
<title>nsSdD::CList::begin</title>
<polygon fill="white" stroke="none" points="-4,4 -4,-617.045 764,-617.045 764,4 -4,4"/>
<!-- Node1 -->
<g id="node1" class="node"><title>Node1</title>
<polygon fill="#bfbfbf" stroke="black" points="0,-285.5 0,-304.5 109,-304.5 109,-285.5 0,-285.5"/>
<text text-anchor="middle" x="54.5" y="-292.5" font-family="Helvetica,sans-Serif" font-size="10.00">nsSdD::CList::begin</text>
</g>
<!-- Node2 -->
<g id="node2" class="node"><title>Node2</title>
<g id="a_node2"><a xlink:href="classns_sd_d_1_1_c_list.html#a054317243498e5a560050e16db28c5f2" target="_top" xlink:title="Assigns the content of rhs to this Assigns the content of rhs to this. ">
<polygon fill="white" stroke="black" points="628,-497.5 628,-516.5 760,-516.5 760,-497.5 628,-497.5"/>
<text text-anchor="middle" x="694" y="-504.5" font-family="Helvetica,sans-Serif" font-size="10.00">nsSdD::CList::operator=</text>
</a>
</g>
</g>
<!-- Node1&#45;&gt;Node2 -->
<g id="edge1" class="edge"><title>Node1&#45;&gt;Node2</title>
<path fill="none" stroke="midnightblue" d="M55.081,-314.83C55.2133,-365.977 63.5204,-502.447 145,-561 316.763,-684.433 600.955,-554.175 674.944,-516.538"/>
<polygon fill="midnightblue" stroke="midnightblue" points="58.5813,-314.788 55.1631,-304.759 51.5816,-314.731 58.5813,-314.788"/>
</g>
<!-- Node3 -->
<g id="node3" class="node"><title>Node3</title>
<g id="a_node3"><a xlink:href="classns_sd_d_1_1_c_list.html#a3d320af3b5706fdcd52a350fe3b71dde" target="_top" xlink:title="Remove duplicated consecutive elements. ">
<polygon fill="white" stroke="black" points="153,-532.5 153,-551.5 268,-551.5 268,-532.5 153,-532.5"/>
<text text-anchor="middle" x="210.5" y="-539.5" font-family="Helvetica,sans-Serif" font-size="10.00">nsSdD::CList::unique</text>
</a>
</g>
</g>
<!-- Node1&#45;&gt;Node3 -->
<g id="edge2" class="edge"><title>Node1&#45;&gt;Node3</title>
<path fill="none" stroke="midnightblue" d="M57.5028,-314.96C63.0097,-359.109 82.4052,-465.661 145,-523 149.218,-526.864 154.184,-529.945 159.458,-532.4"/>
<polygon fill="midnightblue" stroke="midnightblue" points="60.9689,-314.463 56.361,-304.923 54.0137,-315.254 60.9689,-314.463"/>
</g>
<!-- Node5 -->
<g id="node5" class="node"><title>Node5</title>
<g id="a_node5"><a xlink:href="classns_sd_d_1_1_c_list.html#a37b247ba8ad19c1b28dbe49576dbb556" target="_top" xlink:title="Remove every elements equal to val Remove every elements in the list that are equal to val...">
<polygon fill="white" stroke="black" points="150.5,-494.5 150.5,-513.5 270.5,-513.5 270.5,-494.5 150.5,-494.5"/>
<text text-anchor="middle" x="210.5" y="-501.5" font-family="Helvetica,sans-Serif" font-size="10.00">nsSdD::CList::remove</text>
</a>
</g>
</g>
<!-- Node1&#45;&gt;Node5 -->
<g id="edge4" class="edge"><title>Node1&#45;&gt;Node5</title>
<path fill="none" stroke="midnightblue" d="M59.1556,-314.475C67.3964,-352.91 91.0732,-438.787 145,-485 149.521,-488.874 154.8,-491.959 160.356,-494.414"/>
<polygon fill="midnightblue" stroke="midnightblue" points="62.5642,-313.673 57.1522,-304.564 55.703,-315.06 62.5642,-313.673"/>
</g>
<!-- Node7 -->
<g id="node7" class="node"><title>Node7</title>
<g id="a_node7"><a xlink:href="classns_sd_d_1_1_c_list.html#a4df5ac6a378172689d7a0369f3f34cb8" target="_top" xlink:title="nsSdD::CList::remove_if">
<polygon fill="white" stroke="black" points="145,-456.5 145,-475.5 276,-475.5 276,-456.5 145,-456.5"/>
<text text-anchor="middle" x="210.5" y="-463.5" font-family="Helvetica,sans-Serif" font-size="10.00">nsSdD::CList::remove_if</text>
</a>
</g>
</g>
<!-- Node1&#45;&gt;Node7 -->
<g id="edge6" class="edge"><title>Node1&#45;&gt;Node7</title>
<path fill="none" stroke="midnightblue" d="M62.4642,-314.445C74.5639,-345.603 102.332,-406.78 145,-442 152.556,-448.237 161.889,-452.941 171.085,-456.454"/>
<polygon fill="midnightblue" stroke="midnightblue" points="65.6247,-312.904 58.8391,-304.768 59.0696,-315.36 65.6247,-312.904"/>
</g>
<!-- Node9 -->
<g id="node9" class="node"><title>Node9</title>
<g id="a_node9"><a xlink:href="classns_sd_d_1_1_c_list.html#a14b55f9a1acefa302eb5df42c7c99c9b" target="_top" xlink:title="Inserts a copy of every element in the range [first;last[ before position. ">
<polygon fill="white" stroke="black" points="312,-266.5 312,-285.5 422,-285.5 422,-266.5 312,-266.5"/>
<text text-anchor="middle" x="367" y="-273.5" font-family="Helvetica,sans-Serif" font-size="10.00">nsSdD::CList::insert</text>
</a>
</g>
</g>
<!-- Node1&#45;&gt;Node9 -->
<g id="edge8" class="edge"><title>Node1&#45;&gt;Node9</title>
<path fill="none" stroke="midnightblue" d="M119.527,-291.082C176.308,-287.608 258.318,-282.589 311.887,-279.311"/>
<polygon fill="midnightblue" stroke="midnightblue" points="118.998,-287.608 109.23,-291.712 119.426,-294.595 118.998,-287.608"/>
</g>
<!-- Node11 -->
<g id="node11" class="node"><title>Node11</title>
<g id="a_node11"><a xlink:href="classns_sd_d_1_1_c_list.html#a72562c1a0ba029b9f019790afe8a5425" target="_top" xlink:title="nsSdD::CList::push\l_front">
<polygon fill="white" stroke="black" points="472,-337 472,-367 578,-367 578,-337 472,-337"/>
<text text-anchor="start" x="480" y="-355" font-family="Helvetica,sans-Serif" font-size="10.00">nsSdD::CList::push</text>
<text text-anchor="middle" x="525" y="-344" font-family="Helvetica,sans-Serif" font-size="10.00">_front</text>
</a>
</g>
</g>
<!-- Node1&#45;&gt;Node11 -->
<g id="edge20" class="edge"><title>Node1&#45;&gt;Node11</title>
<path fill="none" stroke="midnightblue" d="M101.284,-307.004C115.24,-310.321 130.679,-313.651 145,-316 260.934,-335.017 398.591,-344.981 471.912,-349.296"/>
<polygon fill="midnightblue" stroke="midnightblue" points="101.965,-303.567 91.4206,-304.605 100.31,-310.369 101.965,-303.567"/>
</g>
<!-- Node12 -->
<g id="node12" class="node"><title>Node12</title>
<g id="a_node12"><a xlink:href="src_2main_8cpp.html#ae66f6b31b5ad750f1fe042a706a4e3d4" target="_top" xlink:title="main">
<polygon fill="white" stroke="black" points="673.5,-364.5 673.5,-383.5 714.5,-383.5 714.5,-364.5 673.5,-364.5"/>
<text text-anchor="middle" x="694" y="-371.5" font-family="Helvetica,sans-Serif" font-size="10.00">main</text>
</a>
</g>
</g>
<!-- Node1&#45;&gt;Node12 -->
<g id="edge35" class="edge"><title>Node1&#45;&gt;Node12</title>
<path fill="none" stroke="midnightblue" d="M79.9501,-309.851C97.4401,-319.756 121.883,-332.17 145,-339 344.079,-397.821 600.966,-381.9 673.287,-375.829"/>
<polygon fill="midnightblue" stroke="midnightblue" points="81.4072,-306.65 71.0013,-304.658 77.8938,-312.704 81.4072,-306.65"/>
</g>
<!-- Node17 -->
<g id="node17" class="node"><title>Node17</title>
<g id="a_node17"><a xlink:href="classns_sd_d_1_1_c_list.html#ac9c0f95ce50cfe935e81bc158c34c7aa" target="_top" xlink:title="Assigns the content of the list by the elements in the [first; last[ range If the range is smaller th...">
<polygon fill="white" stroke="black" points="468.5,-424.5 468.5,-443.5 581.5,-443.5 581.5,-424.5 468.5,-424.5"/>
<text text-anchor="middle" x="525" y="-431.5" font-family="Helvetica,sans-Serif" font-size="10.00">nsSdD::CList::assign</text>
</a>
</g>
</g>
<!-- Node1&#45;&gt;Node17 -->
<g id="edge27" class="edge"><title>Node1&#45;&gt;Node17</title>
<path fill="none" stroke="midnightblue" d="M64.7302,-313.811C78.3625,-339.29 106.485,-383.892 145,-404 199.707,-432.562 376.719,-435.404 468.165,-434.861"/>
<polygon fill="midnightblue" stroke="midnightblue" points="67.7677,-312.065 60.077,-304.778 61.5448,-315.27 67.7677,-312.065"/>
</g>
<!-- Node18 -->
<g id="node18" class="node"><title>Node18</title>
<g id="a_node18"><a xlink:href="classns_sd_d_1_1_c_list.html#a3982b8ab302ebe53b0f7b8866d1d5aa9" target="_top" xlink:title="Resize the container to n elements. If n &gt; size(), the extra element are default constructed or copie...">
<polygon fill="white" stroke="black" points="469.5,-298.5 469.5,-317.5 580.5,-317.5 580.5,-298.5 469.5,-298.5"/>
<text text-anchor="middle" x="525" y="-305.5" font-family="Helvetica,sans-Serif" font-size="10.00">nsSdD::CList::resize</text>
</a>
</g>
</g>
<!-- Node1&#45;&gt;Node18 -->
<g id="edge32" class="edge"><title>Node1&#45;&gt;Node18</title>
<path fill="none" stroke="midnightblue" d="M119.441,-298.843C128.031,-299.28 136.729,-299.682 145,-300 260.417,-304.441 395.707,-306.553 469.379,-307.442"/>
<polygon fill="midnightblue" stroke="midnightblue" points="119.609,-295.347 109.439,-298.317 119.242,-302.337 119.609,-295.347"/>
</g>
<!-- Node19 -->
<g id="node19" class="node"><title>Node19</title>
<g id="a_node19"><a xlink:href="test_2main_8cpp.html#ae2423dc27cca68542e2b91dbd7f4a659" target="_top" xlink:title="TEST">
<polygon fill="white" stroke="black" points="504.5,-184.5 504.5,-203.5 545.5,-203.5 545.5,-184.5 504.5,-184.5"/>
<text text-anchor="middle" x="525" y="-191.5" font-family="Helvetica,sans-Serif" font-size="10.00">TEST</text>
</a>
</g>
</g>
<!-- Node1&#45;&gt;Node19 -->
<g id="edge36" class="edge"><title>Node1&#45;&gt;Node19</title>
<path fill="none" stroke="midnightblue" d="M109.551,-283.348C213.487,-260.941 436.9,-212.777 504.333,-198.24"/>
<polygon fill="midnightblue" stroke="midnightblue" points="108.613,-279.969 99.5753,-285.498 110.088,-286.812 108.613,-279.969"/>
</g>
<!-- Node20 -->
<g id="node20" class="node"><title>Node20</title>
<g id="a_node20"><a xlink:href="classns_sd_d_1_1_c_list.html#abdbbecf160c26dcb207ab9e2866d68de" target="_top" xlink:title="Removes the first element of a list. ">
<polygon fill="white" stroke="black" points="460.5,-146.5 460.5,-165.5 589.5,-165.5 589.5,-146.5 460.5,-146.5"/>
<text text-anchor="middle" x="525" y="-153.5" font-family="Helvetica,sans-Serif" font-size="10.00">nsSdD::CList::pop_front</text>
</a>
</g>
</g>
<!-- Node1&#45;&gt;Node20 -->
<g id="edge21" class="edge"><title>Node1&#45;&gt;Node20</title>
<path fill="none" stroke="midnightblue" d="M78.2137,-279.966C95.8038,-268.914 121.119,-254.264 145,-245 251.965,-203.505 383.716,-177.908 460.352,-165.37"/>
<polygon fill="midnightblue" stroke="midnightblue" points="76.3047,-277.032 69.7679,-285.37 80.0775,-282.929 76.3047,-277.032"/>
</g>
<!-- Node21 -->
<g id="node21" class="node"><title>Node21</title>
<g id="a_node21"><a xlink:href="classns_sd_d_1_1_c_list.html#af317152a38e8088b3c58449168735851" target="_top" xlink:title="Computes the size of a list. ">
<polygon fill="white" stroke="black" points="160,-76.5 160,-95.5 261,-95.5 261,-76.5 160,-76.5"/>
<text text-anchor="middle" x="210.5" y="-83.5" font-family="Helvetica,sans-Serif" font-size="10.00">nsSdD::CList::size</text>
</a>
</g>
</g>
<!-- Node1&#45;&gt;Node21 -->
<g id="edge23" class="edge"><title>Node1&#45;&gt;Node21</title>
<path fill="none" stroke="midnightblue" d="M59.8345,-275.34C69.0531,-237.984 94.0573,-156.349 145,-110 151.893,-103.728 160.574,-99.0504 169.313,-95.5773"/>
<polygon fill="midnightblue" stroke="midnightblue" points="56.3455,-274.889 57.4692,-285.424 63.1605,-276.487 56.3455,-274.889"/>
</g>
<!-- Node23 -->
<g id="node23" class="node"><title>Node23</title>
<g id="a_node23"><a xlink:href="classns_sd_d_1_1_c_list.html#ab5d8f403cceec009060888db58c44e95" target="_top" xlink:title="Returns a reference to the first element of the list. ">
<polygon fill="white" stroke="black" points="157.5,-38.5 157.5,-57.5 263.5,-57.5 263.5,-38.5 157.5,-38.5"/>
<text text-anchor="middle" x="210.5" y="-45.5" font-family="Helvetica,sans-Serif" font-size="10.00">nsSdD::CList::front</text>
</a>
</g>
</g>
<!-- Node1&#45;&gt;Node23 -->
<g id="edge25" class="edge"><title>Node1&#45;&gt;Node23</title>
<path fill="none" stroke="midnightblue" d="M57.5028,-275.04C63.0097,-230.891 82.4052,-124.339 145,-67 149.218,-63.1362 154.184,-60.0555 159.458,-57.5996"/>
<polygon fill="midnightblue" stroke="midnightblue" points="54.0137,-274.746 56.361,-285.077 60.9689,-275.537 54.0137,-274.746"/>
</g>
<!-- Node25 -->
<g id="node25" class="node"><title>Node25</title>
<g id="a_node25"><a xlink:href="classns_sd_d_1_1_c_list.html#aa8b0bd58b9cb6a6463b6e22341e87ea7" target="_top" xlink:title="Move the content of a list before an element in another Moves the content of x before the element poi...">
<polygon fill="white" stroke="black" points="155.5,-152.5 155.5,-171.5 265.5,-171.5 265.5,-152.5 155.5,-152.5"/>
<text text-anchor="middle" x="210.5" y="-159.5" font-family="Helvetica,sans-Serif" font-size="10.00">nsSdD::CList::splice</text>
</a>
</g>
</g>
<!-- Node1&#45;&gt;Node25 -->
<g id="edge28" class="edge"><title>Node1&#45;&gt;Node25</title>
<path fill="none" stroke="midnightblue" d="M66.2593,-276.604C81.1365,-252.639 110.139,-210.875 145,-186 153.559,-179.893 163.855,-175.148 173.683,-171.551"/>
<polygon fill="midnightblue" stroke="midnightblue" points="63.1168,-275.036 60.9362,-285.404 69.1064,-278.659 63.1168,-275.036"/>
</g>
<!-- Node26 -->
<g id="node26" class="node"><title>Node26</title>
<g id="a_node26"><a xlink:href="classns_sd_d_1_1_c_list.html#a55df73e3651d4bcd13b671bf5cf7e5eb" target="_top" xlink:title="Swaps the content of two lists. This sort is stable, it means consecutive equal elements keep their o...">
<polygon fill="white" stroke="black" points="316.5,-114.5 316.5,-133.5 417.5,-133.5 417.5,-114.5 316.5,-114.5"/>
<text text-anchor="middle" x="367" y="-121.5" font-family="Helvetica,sans-Serif" font-size="10.00">nsSdD::CList::sort</text>
</a>
</g>
</g>
<!-- Node1&#45;&gt;Node26 -->
<g id="edge34" class="edge"><title>Node1&#45;&gt;Node26</title>
<path fill="none" stroke="midnightblue" d="M60.6716,-275.38C70.6728,-241.762 96.1148,-173.799 145,-143 196.48,-110.566 268.598,-110.931 316.269,-115.962"/>
<polygon fill="midnightblue" stroke="midnightblue" points="57.2026,-274.787 57.8603,-285.361 63.9404,-276.685 57.2026,-274.787"/>
</g>
<!-- Node27 -->
<g id="node27" class="node"><title>Node27</title>
<g id="a_node27"><a xlink:href="classns_sd_d_1_1_c_list.html#a4e22bae1385d8646f782c6a4e1749e00" target="_top" xlink:title="Merges two sorted lists into one If the lists aren&#39;t sorted this causes undefined behavior x is empti...">
<polygon fill="white" stroke="black" points="153.5,-0.5 153.5,-19.5 267.5,-19.5 267.5,-0.5 153.5,-0.5"/>
<text text-anchor="middle" x="210.5" y="-7.5" font-family="Helvetica,sans-Serif" font-size="10.00">nsSdD::CList::merge</text>
</a>
</g>
</g>
<!-- Node1&#45;&gt;Node27 -->
<g id="edge33" class="edge"><title>Node1&#45;&gt;Node27</title>
<path fill="none" stroke="midnightblue" d="M56.2085,-275.163C59.0558,-226.086 73.3417,-97.9791 145,-29 149.037,-25.114 153.828,-22.0173 158.947,-19.5505"/>
<polygon fill="midnightblue" stroke="midnightblue" points="52.702,-275.216 55.7205,-285.372 59.6941,-275.55 52.702,-275.216"/>
</g>
<!-- Node4 -->
<g id="node4" class="node"><title>Node4</title>
<g id="a_node4"><a xlink:href="test_2main_8cpp.html#a4507235c78fce25dde5282f27b610d3b" target="_top" xlink:title="TEST">
<polygon fill="white" stroke="black" points="346.5,-532.5 346.5,-551.5 387.5,-551.5 387.5,-532.5 346.5,-532.5"/>
<text text-anchor="middle" x="367" y="-539.5" font-family="Helvetica,sans-Serif" font-size="10.00">TEST</text>
</a>
</g>
</g>
<!-- Node3&#45;&gt;Node4 -->
<g id="edge3" class="edge"><title>Node3&#45;&gt;Node4</title>
<path fill="none" stroke="midnightblue" d="M278.239,-542C302.906,-542 329.031,-542 346.298,-542"/>
<polygon fill="midnightblue" stroke="midnightblue" points="278.153,-538.5 268.153,-542 278.153,-545.5 278.153,-538.5"/>
</g>
<!-- Node6 -->
<g id="node6" class="node"><title>Node6</title>
<g id="a_node6"><a xlink:href="test_2main_8cpp.html#ac01eb8c418210780d9e70f125aa52140" target="_top" xlink:title="TEST">
<polygon fill="white" stroke="black" points="346.5,-494.5 346.5,-513.5 387.5,-513.5 387.5,-494.5 346.5,-494.5"/>
<text text-anchor="middle" x="367" y="-501.5" font-family="Helvetica,sans-Serif" font-size="10.00">TEST</text>
</a>
</g>
</g>
<!-- Node5&#45;&gt;Node6 -->
<g id="edge5" class="edge"><title>Node5&#45;&gt;Node6</title>
<path fill="none" stroke="midnightblue" d="M280.927,-504C304.783,-504 329.645,-504 346.285,-504"/>
<polygon fill="midnightblue" stroke="midnightblue" points="280.792,-500.5 270.792,-504 280.792,-507.5 280.792,-500.5"/>
</g>
<!-- Node8 -->
<g id="node8" class="node"><title>Node8</title>
<g id="a_node8"><a xlink:href="test_2main_8cpp.html#ac0772c644307b326a919bf04ed741e61" target="_top" xlink:title="TEST">
<polygon fill="white" stroke="black" points="346.5,-456.5 346.5,-475.5 387.5,-475.5 387.5,-456.5 346.5,-456.5"/>
<text text-anchor="middle" x="367" y="-463.5" font-family="Helvetica,sans-Serif" font-size="10.00">TEST</text>
</a>
</g>
</g>
<!-- Node7&#45;&gt;Node8 -->
<g id="edge7" class="edge"><title>Node7&#45;&gt;Node8</title>
<path fill="none" stroke="midnightblue" d="M286.28,-466C308.478,-466 330.948,-466 346.349,-466"/>
<polygon fill="midnightblue" stroke="midnightblue" points="286.127,-462.5 276.127,-466 286.127,-469.5 286.127,-462.5"/>
</g>
<!-- Node10 -->
<g id="node10" class="node"><title>Node10</title>
<g id="a_node10"><a xlink:href="classns_sd_d_1_1_c_list.html#abb9078f033ce1db015873f77bcaa2c64" target="_top" xlink:title="Creates a list by copying the elements in the range [first;last[. ">
<polygon fill="white" stroke="black" points="472,-260.5 472,-279.5 578,-279.5 578,-260.5 472,-260.5"/>
<text text-anchor="middle" x="525" y="-267.5" font-family="Helvetica,sans-Serif" font-size="10.00">nsSdD::CList::CList</text>
</a>
</g>
</g>
<!-- Node9&#45;&gt;Node10 -->
<g id="edge9" class="edge"><title>Node9&#45;&gt;Node10</title>
<path fill="none" stroke="midnightblue" d="M432.486,-273.52C445.583,-273.016 459.205,-272.492 471.813,-272.007"/>
<polygon fill="midnightblue" stroke="midnightblue" points="431.981,-270.036 422.123,-273.918 432.251,-277.031 431.981,-270.036"/>
</g>
<!-- Node9&#45;&gt;Node11 -->
<g id="edge10" class="edge"><title>Node9&#45;&gt;Node11</title>
<path fill="none" stroke="midnightblue" d="M391.833,-290.839C409.673,-301.615 434.88,-316.149 458,-327 465.432,-330.488 473.494,-333.863 481.348,-336.944"/>
<polygon fill="midnightblue" stroke="midnightblue" points="393.585,-287.808 383.225,-285.586 389.938,-293.783 393.585,-287.808"/>
</g>
<!-- Node14 -->
<g id="node14" class="node"><title>Node14</title>
<g id="a_node14"><a xlink:href="classns_sd_d_1_1_c_list.html#a24058246d6dcac6b17dccc3569d81189" target="_top" xlink:title="nsSdD::CList::push_back">
<polygon fill="white" stroke="black" points="458,-222.5 458,-241.5 592,-241.5 592,-222.5 458,-222.5"/>
<text text-anchor="middle" x="525" y="-229.5" font-family="Helvetica,sans-Serif" font-size="10.00">nsSdD::CList::push_back</text>
</a>
</g>
</g>
<!-- Node9&#45;&gt;Node14 -->
<g id="edge13" class="edge"><title>Node9&#45;&gt;Node14</title>
<path fill="none" stroke="midnightblue" d="M411.755,-263.659C436.602,-256.651 467.233,-248.011 490.216,-241.529"/>
<polygon fill="midnightblue" stroke="midnightblue" points="410.524,-260.369 401.85,-266.453 412.424,-267.107 410.524,-260.369"/>
</g>
<!-- Node9&#45;&gt;Node17 -->
<g id="edge16" class="edge"><title>Node9&#45;&gt;Node17</title>
<path fill="none" stroke="midnightblue" d="M382.699,-293.548C400.052,-313.971 430.089,-348.418 458,-376 476.011,-393.799 498.415,-412.902 511.942,-424.134"/>
<polygon fill="midnightblue" stroke="midnightblue" points="385.209,-291.095 376.082,-285.715 379.861,-295.612 385.209,-291.095"/>
</g>
<!-- Node9&#45;&gt;Node18 -->
<g id="edge18" class="edge"><title>Node9&#45;&gt;Node18</title>
<path fill="none" stroke="midnightblue" d="M424.435,-287.576C441.863,-291.151 460.851,-295.046 477.527,-298.467"/>
<polygon fill="midnightblue" stroke="midnightblue" points="424.882,-284.095 414.383,-285.514 423.475,-290.953 424.882,-284.095"/>
</g>
<!-- Node9&#45;&gt;Node19 -->
<g id="edge19" class="edge"><title>Node9&#45;&gt;Node19</title>
<path fill="none" stroke="midnightblue" d="M404.654,-262.156C410.684,-259.2 416.692,-255.804 422,-252 441.174,-238.259 437.925,-225.387 458,-213 472.207,-204.234 490.613,-199.374 504.378,-196.769"/>
<polygon fill="midnightblue" stroke="midnightblue" points="402.907,-259.106 395.256,-266.434 405.807,-265.477 402.907,-259.106"/>
</g>
<!-- Node11&#45;&gt;Node12 -->
<g id="edge11" class="edge"><title>Node11&#45;&gt;Node12</title>
<path fill="none" stroke="midnightblue" d="M588.433,-360.225C618.587,-364.197 652.662,-368.686 673.487,-371.429"/>
<polygon fill="midnightblue" stroke="midnightblue" points="588.753,-356.737 578.382,-358.901 587.839,-363.677 588.753,-356.737"/>
</g>
<!-- Node13 -->
<g id="node13" class="node"><title>Node13</title>
<g id="a_node13"><a xlink:href="test_2main_8cpp.html#adbbafc21068a029870c5e9619a10bf21" target="_top" xlink:title="TEST">
<polygon fill="white" stroke="black" points="673.5,-304.5 673.5,-323.5 714.5,-323.5 714.5,-304.5 673.5,-304.5"/>
<text text-anchor="middle" x="694" y="-311.5" font-family="Helvetica,sans-Serif" font-size="10.00">TEST</text>
</a>
</g>
</g>
<!-- Node11&#45;&gt;Node13 -->
<g id="edge12" class="edge"><title>Node11&#45;&gt;Node13</title>
<path fill="none" stroke="midnightblue" d="M588.433,-337.794C618.587,-330.932 652.662,-323.179 673.487,-318.44"/>
<polygon fill="midnightblue" stroke="midnightblue" points="587.356,-334.449 578.382,-340.081 588.909,-341.275 587.356,-334.449"/>
</g>
<!-- Node15 -->
<g id="node15" class="node"><title>Node15</title>
<g id="a_node15"><a xlink:href="classns_sd_d_1_1_c_list.html#a847ac0924d9e5f86718bd1a9af55d0f4" target="_top" xlink:title="Creates a list of n elements with a value of val. ">
<polygon fill="white" stroke="black" points="641,-222.5 641,-241.5 747,-241.5 747,-222.5 641,-222.5"/>
<text text-anchor="middle" x="694" y="-229.5" font-family="Helvetica,sans-Serif" font-size="10.00">nsSdD::CList::CList</text>
</a>
</g>
</g>
<!-- Node14&#45;&gt;Node15 -->
<g id="edge14" class="edge"><title>Node14&#45;&gt;Node15</title>
<path fill="none" stroke="midnightblue" d="M602.371,-232C615.392,-232 628.646,-232 640.854,-232"/>
<polygon fill="midnightblue" stroke="midnightblue" points="602.003,-228.5 592.003,-232 602.003,-235.5 602.003,-228.5"/>
</g>
<!-- Node16 -->
<g id="node16" class="node"><title>Node16</title>
<g id="a_node16"><a xlink:href="test_2main_8cpp.html#aed75b3aafd0856fd8d1c9050617a8696" target="_top" xlink:title="TEST">
<polygon fill="white" stroke="black" points="673.5,-146.5 673.5,-165.5 714.5,-165.5 714.5,-146.5 673.5,-146.5"/>
<text text-anchor="middle" x="694" y="-153.5" font-family="Helvetica,sans-Serif" font-size="10.00">TEST</text>
</a>
</g>
</g>
<!-- Node14&#45;&gt;Node16 -->
<g id="edge15" class="edge"><title>Node14&#45;&gt;Node16</title>
<path fill="none" stroke="midnightblue" d="M574.761,-219.366C580.641,-217.432 586.505,-215.304 592,-213 624.308,-199.452 659.357,-177.989 678.495,-165.628"/>
<polygon fill="midnightblue" stroke="midnightblue" points="573.42,-216.118 564.913,-222.433 575.501,-222.801 573.42,-216.118"/>
</g>
<!-- Node17&#45;&gt;Node2 -->
<g id="edge17" class="edge"><title>Node17&#45;&gt;Node2</title>
<path fill="none" stroke="midnightblue" d="M557.081,-447.586C590.276,-462.097 642.03,-484.72 671.162,-497.454"/>
<polygon fill="midnightblue" stroke="midnightblue" points="558.397,-444.342 547.832,-443.543 555.593,-450.756 558.397,-444.342"/>
</g>
<!-- Node20&#45;&gt;Node13 -->
<g id="edge22" class="edge"><title>Node20&#45;&gt;Node13</title>
<path fill="none" stroke="midnightblue" d="M585.649,-170.369C587.883,-171.772 590.012,-173.311 592,-175 620.481,-199.202 606.232,-220.618 628,-251 643.377,-272.462 666.565,-292.887 680.689,-304.393"/>
<polygon fill="midnightblue" stroke="midnightblue" points="587.084,-167.17 576.605,-165.609 583.824,-173.364 587.084,-167.17"/>
</g>
<!-- Node22 -->
<g id="node22" class="node"><title>Node22</title>
<g id="a_node22"><a xlink:href="test_2main_8cpp.html#a5bb77ef627dbb255fb52e6c146bb9d81" target="_top" xlink:title="TEST">
<polygon fill="white" stroke="black" points="346.5,-76.5 346.5,-95.5 387.5,-95.5 387.5,-76.5 346.5,-76.5"/>
<text text-anchor="middle" x="367" y="-83.5" font-family="Helvetica,sans-Serif" font-size="10.00">TEST</text>
</a>
</g>
</g>
<!-- Node21&#45;&gt;Node22 -->
<g id="edge24" class="edge"><title>Node21&#45;&gt;Node22</title>
<path fill="none" stroke="midnightblue" d="M271.268,-86C297.893,-86 327.442,-86 346.344,-86"/>
<polygon fill="midnightblue" stroke="midnightblue" points="271.235,-82.5001 261.235,-86 271.235,-89.5001 271.235,-82.5001"/>
</g>
<!-- Node24 -->
<g id="node24" class="node"><title>Node24</title>
<g id="a_node24"><a xlink:href="test_2main_8cpp.html#aacaecca7f8c7e97348cadf497c8901d0" target="_top" xlink:title="TEST">
<polygon fill="white" stroke="black" points="346.5,-38.5 346.5,-57.5 387.5,-57.5 387.5,-38.5 346.5,-38.5"/>
<text text-anchor="middle" x="367" y="-45.5" font-family="Helvetica,sans-Serif" font-size="10.00">TEST</text>
</a>
</g>
</g>
<!-- Node23&#45;&gt;Node24 -->
<g id="edge26" class="edge"><title>Node23&#45;&gt;Node24</title>
<path fill="none" stroke="midnightblue" d="M273.957,-48C299.822,-48 327.985,-48 346.256,-48"/>
<polygon fill="midnightblue" stroke="midnightblue" points="273.807,-44.5001 263.807,-48 273.807,-51.5001 273.807,-44.5001"/>
</g>
<!-- Node25&#45;&gt;Node9 -->
<g id="edge29" class="edge"><title>Node25&#45;&gt;Node9</title>
<path fill="none" stroke="midnightblue" d="M232.744,-177.675C265.164,-201.597 326.037,-246.512 352.802,-266.262"/>
<polygon fill="midnightblue" stroke="midnightblue" points="234.532,-174.645 224.407,-171.523 230.375,-180.277 234.532,-174.645"/>
</g>
<!-- Node25&#45;&gt;Node26 -->
<g id="edge30" class="edge"><title>Node25&#45;&gt;Node26</title>
<path fill="none" stroke="midnightblue" d="M260.452,-149.96C282.036,-144.651 307.041,-138.501 327.293,-133.52"/>
<polygon fill="midnightblue" stroke="midnightblue" points="259.362,-146.624 250.487,-152.411 261.033,-153.421 259.362,-146.624"/>
</g>
<!-- Node26&#45;&gt;Node16 -->
<g id="edge31" class="edge"><title>Node26&#45;&gt;Node16</title>
<path fill="none" stroke="midnightblue" d="M427.767,-125.391C472.997,-126.946 536.58,-130.207 592,-137 620.513,-140.495 653.11,-147.109 673.376,-151.536"/>
<polygon fill="midnightblue" stroke="midnightblue" points="427.652,-121.885 417.544,-125.057 427.424,-128.881 427.652,-121.885"/>
</g>
</g>
</svg>
        <g id="navigator" transform="translate(0 0)" fill="#404254">
                <rect fill="#f2f5e9" fill-opacity="0.5" stroke="#606060" stroke-width=".5" x="0" y="0" width="60" height="60"/>
                <use id="zoomplus" xlink:href="#zoomPlus" x="17" y="9" onmousedown="handleZoom(evt,'in')"/>
                <use id="zoomminus" xlink:href="#zoomMin" x="42" y="9" onmousedown="handleZoom(evt,'out')"/>
                <use id="reset" xlink:href="#resetDef" x="30" y="36" onmousedown="handleReset()"/>
                <g id="arrowUp" xlink:href="#dirArrow" transform="translate(30 24)" onmousedown="handlePan(0,-1)">
                  <use xlink:href="#rim" fill="#404040">
                        <set attributeName="fill" to="#808080" begin="arrowUp.mouseover" end="arrowUp.mouseout"/>
                  </use>
                  <path fill="none" stroke="white" stroke-width="1.5" d="M0,-3.0v7 M-2.5,-0.5L0,-3.0L2.5,-0.5"/>
                </g>
                <g id="arrowRight" xlink:href="#dirArrow" transform="rotate(90) translate(36 -43)" onmousedown="handlePan(1,0)">
                  <use xlink:href="#rim" fill="#404040">
                        <set attributeName="fill" to="#808080" begin="arrowRight.mouseover" end="arrowRight.mouseout"/>
                  </use>
                  <path fill="none" stroke="white" stroke-width="1.5" d="M0,-3.0v7 M-2.5,-0.5L0,-3.0L2.5,-0.5"/>
                </g>
                <g id="arrowDown" xlink:href="#dirArrow" transform="rotate(180) translate(-30 -48)" onmousedown="handlePan(0,1)">
                  <use xlink:href="#rim" fill="#404040">
                        <set attributeName="fill" to="#808080" begin="arrowDown.mouseover" end="arrowDown.mouseout"/>
                  </use>
                  <path fill="none" stroke="white" stroke-width="1.5" d="M0,-3.0v7 M-2.5,-0.5L0,-3.0L2.5,-0.5"/>
                </g>
                <g id="arrowLeft" xlink:href="#dirArrow" transform="rotate(270) translate(-36 17)" onmousedown="handlePan(-1,0)">
                  <use xlink:href="#rim" fill="#404040">
                        <set attributeName="fill" to="#808080" begin="arrowLeft.mouseover" end="arrowLeft.mouseout"/>
                  </use>
                  <path fill="none" stroke="white" stroke-width="1.5" d="M0,-3.0v7 M-2.5,-0.5L0,-3.0L2.5,-0.5"/>
                </g>
        </g>
        <svg viewBox="0 0 15 15" width="100%" height="30px" preserveAspectRatio="xMaxYMin meet">
         <g id="arrow_out" transform="scale(0.3 0.3)">
          <a xlink:href="classns_sd_d_1_1_c_list_af41da388e9983741e7a559f1b6a0ae01_icgraph_org.svg" target="_base">
           <rect id="button" ry="5" rx="5" y="6" x="6" height="38" width="38"
                fill="#f2f5e9" fill-opacity="0.5" stroke="#606060" stroke-width="1.0"/>
           <path id="arrow"
             d="M 11.500037,31.436501 C 11.940474,20.09759 22.043105,11.32322 32.158766,21.979434 L 37.068811,17.246167 C 37.068811,17.246167 37.088388,32 37.088388,32 L 22.160133,31.978069 C 22.160133,31.978069 26.997745,27.140456 26.997745,27.140456 C 18.528582,18.264221 13.291696,25.230495 11.500037,31.436501 z"
             style="fill:#404040;"/>
          </a>
         </g>
        </svg>
</svg>
