<?xml version="1.0" encoding="UTF-8" standalone="no"?>
<!DOCTYPE svg PUBLIC "-//W3C//DTD SVG 1.1//EN"
 "http://www.w3.org/Graphics/SVG/1.1/DTD/svg11.dtd">
<!-- Generated by graphviz version 2.38.0 (20140413.2041)
 -->
<!-- Title: nsSdD::CList::erase Pages: 1 -->
<svg width="453pt" height="332pt"
 viewBox="0.00 0.00 453.00 332.00" xmlns="http://www.w3.org/2000/svg" xmlns:xlink="http://www.w3.org/1999/xlink">
<g id="graph0" class="graph" transform="scale(1 1) rotate(0) translate(4 328)">
<title>nsSdD::CList::erase</title>
<polygon fill="white" stroke="none" points="-4,4 -4,-328 449,-328 449,4 -4,4"/>
<!-- Node1 -->
<g id="node1" class="node"><title>Node1</title>
<polygon fill="#bfbfbf" stroke="black" points="0,-152.5 0,-171.5 110,-171.5 110,-152.5 0,-152.5"/>
<text text-anchor="middle" x="55" y="-159.5" font-family="Helvetica,sans-Serif" font-size="10.00">nsSdD::CList::erase</text>
</g>
<!-- Node2 -->
<g id="node2" class="node"><title>Node2</title>
<g id="a_node2"><a xlink:href="classns_sd_d_1_1_c_list.html#a3d320af3b5706fdcd52a350fe3b71dde" target="_top" xlink:title="Remove duplicated consecutive elements. ">
<polygon fill="white" stroke="black" points="154,-304.5 154,-323.5 269,-323.5 269,-304.5 154,-304.5"/>
<text text-anchor="middle" x="211.5" y="-311.5" font-family="Helvetica,sans-Serif" font-size="10.00">nsSdD::CList::unique</text>
</a>
</g>
</g>
<!-- Node1&#45;&gt;Node2 -->
<g id="edge1" class="edge"><title>Node1&#45;&gt;Node2</title>
<path fill="none" stroke="midnightblue" d="M63.8216,-181.133C76.6488,-210.12 104.904,-264.962 146,-295 151.278,-298.858 157.333,-301.937 163.573,-304.393"/>
<polygon fill="midnightblue" stroke="midnightblue" points="66.9462,-179.537 59.7987,-171.717 60.5091,-182.288 66.9462,-179.537"/>
</g>
<!-- Node4 -->
<g id="node4" class="node"><title>Node4</title>
<g id="a_node4"><a xlink:href="classns_sd_d_1_1_c_list.html#a37b247ba8ad19c1b28dbe49576dbb556" target="_top" xlink:title="Remove every elements equal to val Remove every elements in the list that are equal to val...">
<polygon fill="white" stroke="black" points="151.5,-266.5 151.5,-285.5 271.5,-285.5 271.5,-266.5 151.5,-266.5"/>
<text text-anchor="middle" x="211.5" y="-273.5" font-family="Helvetica,sans-Serif" font-size="10.00">nsSdD::CList::remove</text>
</a>
</g>
</g>
<!-- Node1&#45;&gt;Node4 -->
<g id="edge3" class="edge"><title>Node1&#45;&gt;Node4</title>
<path fill="none" stroke="midnightblue" d="M68.3224,-179.896C83.9694,-201.296 112.941,-236.757 146,-257 152.272,-260.841 159.363,-263.942 166.491,-266.434"/>
<polygon fill="midnightblue" stroke="midnightblue" points="71.1138,-177.782 62.4593,-171.67 65.4137,-181.845 71.1138,-177.782"/>
</g>
<!-- Node6 -->
<g id="node6" class="node"><title>Node6</title>
<g id="a_node6"><a xlink:href="classns_sd_d_1_1_c_list.html#a4df5ac6a378172689d7a0369f3f34cb8" target="_top" xlink:title="nsSdD::CList::remove_if">
<polygon fill="white" stroke="black" points="146,-228.5 146,-247.5 277,-247.5 277,-228.5 146,-228.5"/>
<text text-anchor="middle" x="211.5" y="-235.5" font-family="Helvetica,sans-Serif" font-size="10.00">nsSdD::CList::remove_if</text>
</a>
</g>
</g>
<!-- Node1&#45;&gt;Node6 -->
<g id="edge5" class="edge"><title>Node1&#45;&gt;Node6</title>
<path fill="none" stroke="midnightblue" d="M77.1655,-177.798C94.8225,-190.375 121.039,-207.688 146,-219 154.081,-222.662 163.048,-225.825 171.664,-228.461"/>
<polygon fill="midnightblue" stroke="midnightblue" points="78.9154,-174.743 68.7644,-171.709 74.8076,-180.411 78.9154,-174.743"/>
</g>
<!-- Node8 -->
<g id="node8" class="node"><title>Node8</title>
<g id="a_node8"><a xlink:href="classns_sd_d_1_1_c_list.html#a257a4b4168de30c672465c649971f258" target="_top" xlink:title="Removes a range [first;last[ from the list. ">
<polygon fill="white" stroke="black" points="156.5,-190.5 156.5,-209.5 266.5,-209.5 266.5,-190.5 156.5,-190.5"/>
<text text-anchor="middle" x="211.5" y="-197.5" font-family="Helvetica,sans-Serif" font-size="10.00">nsSdD::CList::erase</text>
</a>
</g>
</g>
<!-- Node1&#45;&gt;Node8 -->
<g id="edge7" class="edge"><title>Node1&#45;&gt;Node8</title>
<path fill="none" stroke="midnightblue" d="M104.952,-174.04C126.536,-179.349 151.541,-185.499 171.793,-190.48"/>
<polygon fill="midnightblue" stroke="midnightblue" points="105.533,-170.579 94.9869,-171.589 103.862,-177.376 105.533,-170.579"/>
</g>
<!-- Node9 -->
<g id="node9" class="node"><title>Node9</title>
<g id="a_node9"><a xlink:href="classns_sd_d_1_1_c_list.html#abdbbecf160c26dcb207ab9e2866d68de" target="_top" xlink:title="Removes the first element of a list. ">
<polygon fill="white" stroke="black" points="147,-152.5 147,-171.5 276,-171.5 276,-152.5 147,-152.5"/>
<text text-anchor="middle" x="211.5" y="-159.5" font-family="Helvetica,sans-Serif" font-size="10.00">nsSdD::CList::pop_front</text>
</a>
</g>
</g>
<!-- Node1&#45;&gt;Node9 -->
<g id="edge8" class="edge"><title>Node1&#45;&gt;Node9</title>
<path fill="none" stroke="midnightblue" d="M120.26,-162C129.084,-162 138.141,-162 146.952,-162"/>
<polygon fill="midnightblue" stroke="midnightblue" points="120.037,-158.5 110.037,-162 120.037,-165.5 120.037,-158.5"/>
</g>
<!-- Node11 -->
<g id="node11" class="node"><title>Node11</title>
<g id="a_node11"><a xlink:href="classns_sd_d_1_1_c_list.html#a99fba05885d5eec5ee004337244943bf" target="_top" xlink:title="Removes the last element of a list. ">
<polygon fill="white" stroke="black" points="147,-114.5 147,-133.5 276,-133.5 276,-114.5 147,-114.5"/>
<text text-anchor="middle" x="211.5" y="-121.5" font-family="Helvetica,sans-Serif" font-size="10.00">nsSdD::CList::pop_back</text>
</a>
</g>
</g>
<!-- Node1&#45;&gt;Node11 -->
<g id="edge10" class="edge"><title>Node1&#45;&gt;Node11</title>
<path fill="none" stroke="midnightblue" d="M104.952,-149.96C126.536,-144.651 151.541,-138.501 171.793,-133.52"/>
<polygon fill="midnightblue" stroke="midnightblue" points="103.862,-146.624 94.9869,-152.411 105.533,-153.421 103.862,-146.624"/>
</g>
<!-- Node13 -->
<g id="node13" class="node"><title>Node13</title>
<g id="a_node13"><a xlink:href="classns_sd_d_1_1_c_list.html#ac9c0f95ce50cfe935e81bc158c34c7aa" target="_top" xlink:title="Assigns the content of the list by the elements in the [first; last[ range If the range is smaller th...">
<polygon fill="white" stroke="black" points="155,-76.5 155,-95.5 268,-95.5 268,-76.5 155,-76.5"/>
<text text-anchor="middle" x="211.5" y="-83.5" font-family="Helvetica,sans-Serif" font-size="10.00">nsSdD::CList::assign</text>
</a>
</g>
</g>
<!-- Node1&#45;&gt;Node13 -->
<g id="edge12" class="edge"><title>Node1&#45;&gt;Node13</title>
<path fill="none" stroke="midnightblue" d="M77.1655,-146.202C94.8225,-133.625 121.039,-116.312 146,-105 154.081,-101.338 163.048,-98.1753 171.664,-95.5388"/>
<polygon fill="midnightblue" stroke="midnightblue" points="74.8076,-143.589 68.7644,-152.291 78.9154,-149.257 74.8076,-143.589"/>
</g>
<!-- Node15 -->
<g id="node15" class="node"><title>Node15</title>
<g id="a_node15"><a xlink:href="classns_sd_d_1_1_c_list.html#a3982b8ab302ebe53b0f7b8866d1d5aa9" target="_top" xlink:title="Resize the container to n elements. If n &gt; size(), the extra element are default constructed or copie...">
<polygon fill="white" stroke="black" points="156,-38.5 156,-57.5 267,-57.5 267,-38.5 156,-38.5"/>
<text text-anchor="middle" x="211.5" y="-45.5" font-family="Helvetica,sans-Serif" font-size="10.00">nsSdD::CList::resize</text>
</a>
</g>
</g>
<!-- Node1&#45;&gt;Node15 -->
<g id="edge14" class="edge"><title>Node1&#45;&gt;Node15</title>
<path fill="none" stroke="midnightblue" d="M68.3224,-144.104C83.9694,-122.704 112.941,-87.2434 146,-67 152.272,-63.1594 159.363,-60.0585 166.491,-57.5657"/>
<polygon fill="midnightblue" stroke="midnightblue" points="65.4137,-142.155 62.4593,-152.33 71.1138,-146.218 65.4137,-142.155"/>
</g>
<!-- Node16 -->
<g id="node16" class="node"><title>Node16</title>
<g id="a_node16"><a xlink:href="test_2main_8cpp.html#a155f681cf85282a57b58ecbc3197a5d6" target="_top" xlink:title="TEST">
<polygon fill="white" stroke="black" points="191,-0.5 191,-19.5 232,-19.5 232,-0.5 191,-0.5"/>
<text text-anchor="middle" x="211.5" y="-7.5" font-family="Helvetica,sans-Serif" font-size="10.00">TEST</text>
</a>
</g>
</g>
<!-- Node1&#45;&gt;Node16 -->
<g id="edge15" class="edge"><title>Node1&#45;&gt;Node16</title>
<path fill="none" stroke="midnightblue" d="M63.8216,-142.867C76.6488,-113.88 104.904,-59.0377 146,-29 159.194,-19.356 177.248,-14.5777 190.899,-12.2276"/>
<polygon fill="midnightblue" stroke="midnightblue" points="60.5091,-141.712 59.7987,-152.283 66.9462,-144.463 60.5091,-141.712"/>
</g>
<!-- Node3 -->
<g id="node3" class="node"><title>Node3</title>
<g id="a_node3"><a xlink:href="test_2main_8cpp.html#a4507235c78fce25dde5282f27b610d3b" target="_top" xlink:title="TEST">
<polygon fill="white" stroke="black" points="358.5,-304.5 358.5,-323.5 399.5,-323.5 399.5,-304.5 358.5,-304.5"/>
<text text-anchor="middle" x="379" y="-311.5" font-family="Helvetica,sans-Serif" font-size="10.00">TEST</text>
</a>
</g>
</g>
<!-- Node2&#45;&gt;Node3 -->
<g id="edge2" class="edge"><title>Node2&#45;&gt;Node3</title>
<path fill="none" stroke="midnightblue" d="M279.745,-314C308.052,-314 338.87,-314 358.301,-314"/>
<polygon fill="midnightblue" stroke="midnightblue" points="279.456,-310.5 269.456,-314 279.456,-317.5 279.456,-310.5"/>
</g>
<!-- Node5 -->
<g id="node5" class="node"><title>Node5</title>
<g id="a_node5"><a xlink:href="test_2main_8cpp.html#ac01eb8c418210780d9e70f125aa52140" target="_top" xlink:title="TEST">
<polygon fill="white" stroke="black" points="358.5,-266.5 358.5,-285.5 399.5,-285.5 399.5,-266.5 358.5,-266.5"/>
<text text-anchor="middle" x="379" y="-273.5" font-family="Helvetica,sans-Serif" font-size="10.00">TEST</text>
</a>
</g>
</g>
<!-- Node4&#45;&gt;Node5 -->
<g id="edge4" class="edge"><title>Node4&#45;&gt;Node5</title>
<path fill="none" stroke="midnightblue" d="M281.906,-276C309.703,-276 339.564,-276 358.493,-276"/>
<polygon fill="midnightblue" stroke="midnightblue" points="281.782,-272.5 271.782,-276 281.782,-279.5 281.782,-272.5"/>
</g>
<!-- Node7 -->
<g id="node7" class="node"><title>Node7</title>
<g id="a_node7"><a xlink:href="test_2main_8cpp.html#ac0772c644307b326a919bf04ed741e61" target="_top" xlink:title="TEST">
<polygon fill="white" stroke="black" points="358.5,-228.5 358.5,-247.5 399.5,-247.5 399.5,-228.5 358.5,-228.5"/>
<text text-anchor="middle" x="379" y="-235.5" font-family="Helvetica,sans-Serif" font-size="10.00">TEST</text>
</a>
</g>
</g>
<!-- Node6&#45;&gt;Node7 -->
<g id="edge6" class="edge"><title>Node6&#45;&gt;Node7</title>
<path fill="none" stroke="midnightblue" d="M287.724,-238C313.757,-238 340.79,-238 358.406,-238"/>
<polygon fill="midnightblue" stroke="midnightblue" points="287.435,-234.5 277.435,-238 287.435,-241.5 287.435,-234.5"/>
</g>
<!-- Node10 -->
<g id="node10" class="node"><title>Node10</title>
<g id="a_node10"><a xlink:href="test_2main_8cpp.html#adbbafc21068a029870c5e9619a10bf21" target="_top" xlink:title="TEST">
<polygon fill="white" stroke="black" points="358.5,-152.5 358.5,-171.5 399.5,-171.5 399.5,-152.5 358.5,-152.5"/>
<text text-anchor="middle" x="379" y="-159.5" font-family="Helvetica,sans-Serif" font-size="10.00">TEST</text>
</a>
</g>
</g>
<!-- Node9&#45;&gt;Node10 -->
<g id="edge9" class="edge"><title>Node9&#45;&gt;Node10</title>
<path fill="none" stroke="midnightblue" d="M286.097,-162C312.63,-162 340.434,-162 358.416,-162"/>
<polygon fill="midnightblue" stroke="midnightblue" points="286.013,-158.5 276.013,-162 286.013,-165.5 286.013,-158.5"/>
</g>
<!-- Node12 -->
<g id="node12" class="node"><title>Node12</title>
<g id="a_node12"><a xlink:href="test_2main_8cpp.html#aa39807b16fb2f8695b25bfdd4893b59b" target="_top" xlink:title="TEST">
<polygon fill="white" stroke="black" points="358.5,-114.5 358.5,-133.5 399.5,-133.5 399.5,-114.5 358.5,-114.5"/>
<text text-anchor="middle" x="379" y="-121.5" font-family="Helvetica,sans-Serif" font-size="10.00">TEST</text>
</a>
</g>
</g>
<!-- Node11&#45;&gt;Node12 -->
<g id="edge11" class="edge"><title>Node11&#45;&gt;Node12</title>
<path fill="none" stroke="midnightblue" d="M286.097,-124C312.63,-124 340.434,-124 358.416,-124"/>
<polygon fill="midnightblue" stroke="midnightblue" points="286.013,-120.5 276.013,-124 286.013,-127.5 286.013,-120.5"/>
</g>
<!-- Node14 -->
<g id="node14" class="node"><title>Node14</title>
<g id="a_node14"><a xlink:href="classns_sd_d_1_1_c_list.html#a054317243498e5a560050e16db28c5f2" target="_top" xlink:title="Assigns the content of rhs to this Assigns the content of rhs to this. ">
<polygon fill="white" stroke="black" points="313,-76.5 313,-95.5 445,-95.5 445,-76.5 313,-76.5"/>
<text text-anchor="middle" x="379" y="-83.5" font-family="Helvetica,sans-Serif" font-size="10.00">nsSdD::CList::operator=</text>
</a>
</g>
</g>
<!-- Node13&#45;&gt;Node14 -->
<g id="edge13" class="edge"><title>Node13&#45;&gt;Node14</title>
<path fill="none" stroke="midnightblue" d="M278.348,-86C289.705,-86 301.505,-86 312.843,-86"/>
<polygon fill="midnightblue" stroke="midnightblue" points="278.07,-82.5001 268.07,-86 278.069,-89.5001 278.07,-82.5001"/>
</g>
</g>
</svg>
