<?xml version="1.0" encoding="UTF-8" standalone="no"?>
<!DOCTYPE svg PUBLIC "-//W3C//DTD SVG 1.1//EN"
 "http://www.w3.org/Graphics/SVG/1.1/DTD/svg11.dtd">
<!-- Generated by graphviz version 2.38.0 (20140413.2041)
 -->
<!-- Title: /home/mirai/docs/src/main.cpp Pages: 1 -->
<svg width="298pt" height="207pt"
 viewBox="0.00 0.00 297.50 207.00" xmlns="http://www.w3.org/2000/svg" xmlns:xlink="http://www.w3.org/1999/xlink">
<g id="graph0" class="graph" transform="scale(1 1) rotate(0) translate(4 203)">
<title>/home/mirai/docs/src/main.cpp</title>
<polygon fill="white" stroke="none" points="-4,4 -4,-203 293.5,-203 293.5,4 -4,4"/>
<!-- Node1 -->
<g id="node1" class="node"><title>Node1</title>
<polygon fill="#bfbfbf" stroke="black" points="107,-168.5 107,-198.5 224,-198.5 224,-168.5 107,-168.5"/>
<text text-anchor="start" x="115" y="-186.5" font-family="Helvetica,sans-Serif" font-size="10.00">/home/mirai/docs/src</text>
<text text-anchor="middle" x="165.5" y="-175.5" font-family="Helvetica,sans-Serif" font-size="10.00">/main.cpp</text>
</g>
<!-- Node2 -->
<g id="node2" class="node"><title>Node2</title>
<g id="a_node2"><a xlink:href="_c_list_8hpp.html" target="_top" xlink:title="CList.hpp">
<polygon fill="white" stroke="black" points="96,-112.5 96,-131.5 157,-131.5 157,-112.5 96,-112.5"/>
<text text-anchor="middle" x="126.5" y="-119.5" font-family="Helvetica,sans-Serif" font-size="10.00">CList.hpp</text>
</a>
</g>
</g>
<!-- Node1&#45;&gt;Node2 -->
<g id="edge1" class="edge"><title>Node1&#45;&gt;Node2</title>
<path fill="none" stroke="midnightblue" d="M156.258,-168.399C150.707,-159.932 143.607,-149.099 137.734,-140.139"/>
<polygon fill="midnightblue" stroke="midnightblue" points="140.584,-138.103 132.175,-131.658 134.73,-141.94 140.584,-138.103"/>
</g>
<!-- Node8 -->
<g id="node8" class="node"><title>Node8</title>
<polygon fill="white" stroke="#bfbfbf" points="175,-112.5 175,-131.5 234,-131.5 234,-112.5 175,-112.5"/>
<text text-anchor="middle" x="204.5" y="-119.5" font-family="Helvetica,sans-Serif" font-size="10.00">iostream</text>
</g>
<!-- Node1&#45;&gt;Node8 -->
<g id="edge7" class="edge"><title>Node1&#45;&gt;Node8</title>
<path fill="none" stroke="midnightblue" d="M174.742,-168.399C180.293,-159.932 187.393,-149.099 193.266,-140.139"/>
<polygon fill="midnightblue" stroke="midnightblue" points="196.27,-141.94 198.825,-131.658 190.416,-138.103 196.27,-141.94"/>
</g>
<!-- Node3 -->
<g id="node3" class="node"><title>Node3</title>
<polygon fill="white" stroke="#bfbfbf" points="-3.55271e-15,-56.5 -3.55271e-15,-75.5 53,-75.5 53,-56.5 -3.55271e-15,-56.5"/>
<text text-anchor="middle" x="26.5" y="-63.5" font-family="Helvetica,sans-Serif" font-size="10.00">cstddef</text>
</g>
<!-- Node2&#45;&gt;Node3 -->
<g id="edge2" class="edge"><title>Node2&#45;&gt;Node3</title>
<path fill="none" stroke="midnightblue" d="M110.433,-112.324C94.5422,-103.743 69.9926,-90.486 51.5415,-80.5224"/>
<polygon fill="midnightblue" stroke="midnightblue" points="52.989,-77.3264 42.5269,-75.6545 49.6629,-83.4857 52.989,-77.3264"/>
</g>
<!-- Node4 -->
<g id="node4" class="node"><title>Node4</title>
<polygon fill="white" stroke="#bfbfbf" points="71.5,-56.5 71.5,-75.5 113.5,-75.5 113.5,-56.5 71.5,-56.5"/>
<text text-anchor="middle" x="92.5" y="-63.5" font-family="Helvetica,sans-Serif" font-size="10.00">limits</text>
</g>
<!-- Node2&#45;&gt;Node4 -->
<g id="edge3" class="edge"><title>Node2&#45;&gt;Node4</title>
<path fill="none" stroke="midnightblue" d="M120.886,-112.083C116.133,-104.534 109.182,-93.4948 103.348,-84.2298"/>
<polygon fill="midnightblue" stroke="midnightblue" points="106.3,-82.3486 98.0099,-75.7511 100.376,-86.0783 106.3,-82.3486"/>
</g>
<!-- Node5 -->
<g id="node5" class="node"><title>Node5</title>
<polygon fill="white" stroke="#bfbfbf" points="131.5,-56.5 131.5,-75.5 189.5,-75.5 189.5,-56.5 131.5,-56.5"/>
<text text-anchor="middle" x="160.5" y="-63.5" font-family="Helvetica,sans-Serif" font-size="10.00">memory</text>
</g>
<!-- Node2&#45;&gt;Node5 -->
<g id="edge4" class="edge"><title>Node2&#45;&gt;Node5</title>
<path fill="none" stroke="midnightblue" d="M132.114,-112.083C136.867,-104.534 143.818,-93.4948 149.652,-84.2298"/>
<polygon fill="midnightblue" stroke="midnightblue" points="152.624,-86.0783 154.99,-75.7511 146.7,-82.3486 152.624,-86.0783"/>
</g>
<!-- Node6 -->
<g id="node6" class="node"><title>Node6</title>
<g id="a_node6"><a xlink:href="_c_node_8hpp.html" target="_top" xlink:title="CNode.hpp">
<polygon fill="white" stroke="black" points="207.5,-56.5 207.5,-75.5 277.5,-75.5 277.5,-56.5 207.5,-56.5"/>
<text text-anchor="middle" x="242.5" y="-63.5" font-family="Helvetica,sans-Serif" font-size="10.00">CNode.hpp</text>
</a>
</g>
</g>
<!-- Node2&#45;&gt;Node6 -->
<g id="edge5" class="edge"><title>Node2&#45;&gt;Node6</title>
<path fill="none" stroke="midnightblue" d="M144.881,-112.444C163.716,-103.675 193.231,-89.9355 214.879,-79.8579"/>
<polygon fill="midnightblue" stroke="midnightblue" points="216.617,-82.9098 224.205,-75.5164 213.662,-76.5637 216.617,-82.9098"/>
</g>
<!-- Node7 -->
<g id="node7" class="node"><title>Node7</title>
<g id="a_node7"><a xlink:href="_c_base_node_8hpp.html" target="_top" xlink:title="CBaseNode.hpp">
<polygon fill="white" stroke="black" points="195.5,-0.5 195.5,-19.5 289.5,-19.5 289.5,-0.5 195.5,-0.5"/>
<text text-anchor="middle" x="242.5" y="-7.5" font-family="Helvetica,sans-Serif" font-size="10.00">CBaseNode.hpp</text>
</a>
</g>
</g>
<!-- Node6&#45;&gt;Node7 -->
<g id="edge6" class="edge"><title>Node6&#45;&gt;Node7</title>
<path fill="none" stroke="midnightblue" d="M242.5,-56.083C242.5,-49.0059 242.5,-38.8611 242.5,-29.9865"/>
<polygon fill="midnightblue" stroke="midnightblue" points="246,-29.751 242.5,-19.7511 239,-29.7511 246,-29.751"/>
</g>
</g>
</svg>
