<?xml version="1.0" encoding="UTF-8" standalone="no"?>
<!DOCTYPE svg PUBLIC "-//W3C//DTD SVG 1.1//EN"
 "http://www.w3.org/Graphics/SVG/1.1/DTD/svg11.dtd">
<!-- Generated by graphviz version 2.38.0 (20140413.2041)
 -->
<!-- Title: nsSdD::CList::merge Pages: 1 -->
<svg width="267pt" height="66pt"
 viewBox="0.00 0.00 267.00 66.00" xmlns="http://www.w3.org/2000/svg" xmlns:xlink="http://www.w3.org/1999/xlink">
<g id="graph0" class="graph" transform="scale(1 1) rotate(0) translate(4 62)">
<title>nsSdD::CList::merge</title>
<polygon fill="white" stroke="none" points="-4,4 -4,-62 263,-62 263,4 -4,4"/>
<!-- Node1 -->
<g id="node1" class="node"><title>Node1</title>
<polygon fill="#bfbfbf" stroke="black" points="0,-19.5 0,-38.5 114,-38.5 114,-19.5 0,-19.5"/>
<text text-anchor="middle" x="57" y="-26.5" font-family="Helvetica,sans-Serif" font-size="10.00">nsSdD::CList::merge</text>
</g>
<!-- Node2 -->
<g id="node2" class="node"><title>Node2</title>
<g id="a_node2"><a xlink:href="classns_sd_d_1_1_c_list.html#af41da388e9983741e7a559f1b6a0ae01" target="_top" xlink:title="Returns an iterator to the first element. ">
<polygon fill="white" stroke="black" points="150,-38.5 150,-57.5 259,-57.5 259,-38.5 150,-38.5"/>
<text text-anchor="middle" x="204.5" y="-45.5" font-family="Helvetica,sans-Serif" font-size="10.00">nsSdD::CList::begin</text>
</a>
</g>
</g>
<!-- Node1&#45;&gt;Node2 -->
<g id="edge1" class="edge"><title>Node1&#45;&gt;Node2</title>
<path fill="none" stroke="midnightblue" d="M114.254,-36.3459C122.555,-37.4298 131.157,-38.5532 139.599,-39.6555"/>
<polygon fill="midnightblue" stroke="midnightblue" points="139.416,-43.1612 149.785,-40.9856 140.322,-36.2201 139.416,-43.1612"/>
</g>
<!-- Node3 -->
<g id="node3" class="node"><title>Node3</title>
<g id="a_node3"><a xlink:href="classns_sd_d_1_1_c_list.html#a9d67e4a55aac8ccd2b7cd8fd3939a176" target="_top" xlink:title="Returns an iterator pointing after the last element. ">
<polygon fill="white" stroke="black" points="154,-0.5 154,-19.5 255,-19.5 255,-0.5 154,-0.5"/>
<text text-anchor="middle" x="204.5" y="-7.5" font-family="Helvetica,sans-Serif" font-size="10.00">nsSdD::CList::end</text>
</a>
</g>
</g>
<!-- Node1&#45;&gt;Node3 -->
<g id="edge2" class="edge"><title>Node1&#45;&gt;Node3</title>
<path fill="none" stroke="midnightblue" d="M114.254,-21.6541C123.869,-20.3985 133.89,-19.09 143.595,-17.8226"/>
<polygon fill="midnightblue" stroke="midnightblue" points="144.103,-21.2861 153.566,-16.5207 143.196,-14.3451 144.103,-21.2861"/>
</g>
</g>
</svg>
