<?xml version="1.0" encoding="UTF-8" standalone="no"?>
<!DOCTYPE svg PUBLIC "-//W3C//DTD SVG 1.1//EN"
 "http://www.w3.org/Graphics/SVG/1.1/DTD/svg11.dtd">
<!-- Generated by graphviz version 2.38.0 (20140413.2041)
 -->
<!-- Title: nsSdD::CList::operator= Pages: 1 -->
<svg width="726pt" height="150pt"
 viewBox="0.00 0.00 726.00 150.44" xmlns="http://www.w3.org/2000/svg" xmlns:xlink="http://www.w3.org/1999/xlink">
<g id="graph0" class="graph" transform="scale(1 1) rotate(0) translate(4 146.439)">
<title>nsSdD::CList::operator=</title>
<polygon fill="white" stroke="none" points="-4,4 -4,-146.439 722,-146.439 722,4 -4,4"/>
<!-- Node1 -->
<g id="node1" class="node"><title>Node1</title>
<polygon fill="#bfbfbf" stroke="black" points="0,-60.405 0,-79.405 132,-79.405 132,-60.405 0,-60.405"/>
<text text-anchor="middle" x="66" y="-67.405" font-family="Helvetica,sans-Serif" font-size="10.00">nsSdD::CList::operator=</text>
</g>
<!-- Node2 -->
<g id="node2" class="node"><title>Node2</title>
<g id="a_node2"><a xlink:href="classns_sd_d_1_1_c_list.html#ac9c0f95ce50cfe935e81bc158c34c7aa" target="_top" xlink:title="Assigns the content of the list by the elements in the [first; last[ range If the range is smaller th...">
<polygon fill="white" stroke="black" points="168,-60.405 168,-79.405 281,-79.405 281,-60.405 168,-60.405"/>
<text text-anchor="middle" x="224.5" y="-67.405" font-family="Helvetica,sans-Serif" font-size="10.00">nsSdD::CList::assign</text>
</a>
</g>
</g>
<!-- Node1&#45;&gt;Node2 -->
<g id="edge1" class="edge"><title>Node1&#45;&gt;Node2</title>
<path fill="none" stroke="midnightblue" d="M132.01,-69.905C140.489,-69.905 149.18,-69.905 157.672,-69.905"/>
<polygon fill="midnightblue" stroke="midnightblue" points="157.902,-73.4051 167.902,-69.905 157.902,-66.4051 157.902,-73.4051"/>
</g>
<!-- Node3 -->
<g id="node3" class="node"><title>Node3</title>
<g id="a_node3"><a xlink:href="classns_sd_d_1_1_c_list.html#af41da388e9983741e7a559f1b6a0ae01" target="_top" xlink:title="Returns an iterator to the first element. ">
<polygon fill="white" stroke="black" points="609,-98.405 609,-117.405 718,-117.405 718,-98.405 609,-98.405"/>
<text text-anchor="middle" x="663.5" y="-105.405" font-family="Helvetica,sans-Serif" font-size="10.00">nsSdD::CList::begin</text>
</a>
</g>
</g>
<!-- Node1&#45;&gt;Node3 -->
<g id="edge10" class="edge"><title>Node1&#45;&gt;Node3</title>
<path fill="none" stroke="midnightblue" d="M98.9953,-79.4332C146.194,-93.0057 237.488,-117.421 317,-127.905 429.823,-142.781 460.254,-148.356 573,-132.905 590.737,-130.474 609.914,-125.453 625.949,-120.545"/>
<polygon fill="midnightblue" stroke="midnightblue" points="627.009,-123.881 635.487,-117.527 624.897,-117.207 627.009,-123.881"/>
</g>
<!-- Node4 -->
<g id="node4" class="node"><title>Node4</title>
<g id="a_node4"><a xlink:href="classns_sd_d_1_1_c_list.html#a9d67e4a55aac8ccd2b7cd8fd3939a176" target="_top" xlink:title="Returns an iterator pointing after the last element. ">
<polygon fill="white" stroke="black" points="613,-3.40496 613,-22.405 714,-22.405 714,-3.40496 613,-3.40496"/>
<text text-anchor="middle" x="663.5" y="-10.405" font-family="Helvetica,sans-Serif" font-size="10.00">nsSdD::CList::end</text>
</a>
</g>
</g>
<!-- Node1&#45;&gt;Node4 -->
<g id="edge11" class="edge"><title>Node1&#45;&gt;Node4</title>
<path fill="none" stroke="midnightblue" d="M98.5995,-60.393C145.678,-46.6928 237.254,-21.8516 317,-10.905 429.752,4.57232 459.304,0.166319 573,-4.90496 582.6,-5.33317 592.763,-6.01853 602.661,-6.81248"/>
<polygon fill="midnightblue" stroke="midnightblue" points="602.586,-10.3186 612.845,-7.67295 603.176,-3.3434 602.586,-10.3186"/>
</g>
<!-- Node2&#45;&gt;Node3 -->
<g id="edge2" class="edge"><title>Node2&#45;&gt;Node3</title>
<path fill="none" stroke="midnightblue" d="M242.729,-79.4829C260.653,-88.8559 289.841,-102.49 317,-107.905 413.856,-127.218 529.045,-121.687 598.918,-115.282"/>
<polygon fill="midnightblue" stroke="midnightblue" points="599.267,-118.765 608.891,-114.333 598.604,-111.796 599.267,-118.765"/>
</g>
<!-- Node2&#45;&gt;Node4 -->
<g id="edge3" class="edge"><title>Node2&#45;&gt;Node4</title>
<path fill="none" stroke="midnightblue" d="M243.47,-60.2922C261.497,-51.1733 290.336,-37.9876 317,-31.905 415.187,-9.50657 532.941,-8.2958 602.528,-10.1282"/>
<polygon fill="midnightblue" stroke="midnightblue" points="602.757,-13.6363 612.855,-10.432 602.962,-6.63933 602.757,-13.6363"/>
</g>
<!-- Node5 -->
<g id="node5" class="node"><title>Node5</title>
<g id="a_node5"><a xlink:href="classns_sd_d_1_1_c_list.html#a0ab43df16936388ddf36555d762006db" target="_top" xlink:title="Removes a node from the list, given an iterator position to it. ">
<polygon fill="white" stroke="black" points="317,-79.405 317,-98.405 427,-98.405 427,-79.405 317,-79.405"/>
<text text-anchor="middle" x="372" y="-86.405" font-family="Helvetica,sans-Serif" font-size="10.00">nsSdD::CList::erase</text>
</a>
</g>
</g>
<!-- Node2&#45;&gt;Node5 -->
<g id="edge4" class="edge"><title>Node2&#45;&gt;Node5</title>
<path fill="none" stroke="midnightblue" d="M281.338,-77.1965C289.748,-78.2947 298.477,-79.4345 307.041,-80.5529"/>
<polygon fill="midnightblue" stroke="midnightblue" points="306.62,-84.0276 316.989,-81.852 307.527,-77.0865 306.62,-84.0276"/>
</g>
<!-- Node6 -->
<g id="node6" class="node"><title>Node6</title>
<g id="a_node6"><a xlink:href="classns_sd_d_1_1_c_list.html#a14b55f9a1acefa302eb5df42c7c99c9b" target="_top" xlink:title="Inserts a copy of every element in the range [first;last[ before position. ">
<polygon fill="white" stroke="black" points="317,-41.405 317,-60.405 427,-60.405 427,-41.405 317,-41.405"/>
<text text-anchor="middle" x="372" y="-48.405" font-family="Helvetica,sans-Serif" font-size="10.00">nsSdD::CList::insert</text>
</a>
</g>
</g>
<!-- Node2&#45;&gt;Node6 -->
<g id="edge5" class="edge"><title>Node2&#45;&gt;Node6</title>
<path fill="none" stroke="midnightblue" d="M281.338,-62.6134C289.748,-61.5152 298.477,-60.3754 307.041,-59.257"/>
<polygon fill="midnightblue" stroke="midnightblue" points="307.527,-62.7234 316.989,-57.9579 306.62,-55.7823 307.527,-62.7234"/>
</g>
<!-- Node6&#45;&gt;Node3 -->
<g id="edge6" class="edge"><title>Node6&#45;&gt;Node3</title>
<path fill="none" stroke="midnightblue" d="M417.368,-60.4539C431.897,-63.5322 448.126,-66.9186 463,-69.905 509.11,-79.1626 561.332,-89.0896 600.777,-96.475"/>
<polygon fill="midnightblue" stroke="midnightblue" points="600.303,-99.9469 610.776,-98.3438 601.589,-93.066 600.303,-99.9469"/>
</g>
<!-- Node7 -->
<g id="node7" class="node"><title>Node7</title>
<g id="a_node7"><a xlink:href="classns_sd_d_1_1_c_list.html#aa8b0bd58b9cb6a6463b6e22341e87ea7" target="_top" xlink:title="Move the content of a list before an element in another Moves the content of x before the element poi...">
<polygon fill="white" stroke="black" points="463,-41.405 463,-60.405 573,-60.405 573,-41.405 463,-41.405"/>
<text text-anchor="middle" x="518" y="-48.405" font-family="Helvetica,sans-Serif" font-size="10.00">nsSdD::CList::splice</text>
</a>
</g>
</g>
<!-- Node6&#45;&gt;Node7 -->
<g id="edge7" class="edge"><title>Node6&#45;&gt;Node7</title>
<path fill="none" stroke="midnightblue" d="M427.03,-50.905C435.314,-50.905 443.936,-50.905 452.42,-50.905"/>
<polygon fill="midnightblue" stroke="midnightblue" points="452.667,-54.4051 462.667,-50.905 452.667,-47.4051 452.667,-54.4051"/>
</g>
<!-- Node7&#45;&gt;Node3 -->
<g id="edge8" class="edge"><title>Node7&#45;&gt;Node3</title>
<path fill="none" stroke="midnightblue" d="M543.019,-60.4455C566.507,-69.7754 602.486,-84.0666 628.826,-94.5292"/>
<polygon fill="midnightblue" stroke="midnightblue" points="627.817,-97.8945 638.403,-98.3333 630.401,-91.3889 627.817,-97.8945"/>
</g>
<!-- Node7&#45;&gt;Node4 -->
<g id="edge9" class="edge"><title>Node7&#45;&gt;Node4</title>
<path fill="none" stroke="midnightblue" d="M555.211,-41.316C573.821,-36.388 596.697,-30.3301 616.539,-25.0759"/>
<polygon fill="midnightblue" stroke="midnightblue" points="617.53,-28.4342 626.3,-22.4909 615.738,-21.6674 617.53,-28.4342"/>
</g>
</g>
</svg>
