<?xml version="1.0" encoding="UTF-8" standalone="no"?>
<!DOCTYPE svg PUBLIC "-//W3C//DTD SVG 1.1//EN"
 "http://www.w3.org/Graphics/SVG/1.1/DTD/svg11.dtd">
<!-- Generated by graphviz version 2.38.0 (20140413.2041)
 -->
<!-- Title: nsSdD::CList::CList Pages: 1 -->
<svg width="721pt" height="66pt"
 viewBox="0.00 0.00 721.00 66.00" xmlns="http://www.w3.org/2000/svg" xmlns:xlink="http://www.w3.org/1999/xlink">
<g id="graph0" class="graph" transform="scale(1 1) rotate(0) translate(4 62)">
<title>nsSdD::CList::CList</title>
<polygon fill="white" stroke="none" points="-4,4 -4,-62 717,-62 717,4 -4,4"/>
<!-- Node1 -->
<g id="node1" class="node"><title>Node1</title>
<polygon fill="#bfbfbf" stroke="black" points="0,-0.5 0,-19.5 106,-19.5 106,-0.5 0,-0.5"/>
<text text-anchor="middle" x="53" y="-7.5" font-family="Helvetica,sans-Serif" font-size="10.00">nsSdD::CList::CList</text>
</g>
<!-- Node2 -->
<g id="node2" class="node"><title>Node2</title>
<g id="a_node2"><a xlink:href="classns_sd_d_1_1_c_list.html#a24058246d6dcac6b17dccc3569d81189" target="_top" xlink:title="nsSdD::CList::push_back">
<polygon fill="white" stroke="black" points="142,-0.5 142,-19.5 276,-19.5 276,-0.5 142,-0.5"/>
<text text-anchor="middle" x="209" y="-7.5" font-family="Helvetica,sans-Serif" font-size="10.00">nsSdD::CList::push_back</text>
</a>
</g>
</g>
<!-- Node1&#45;&gt;Node2 -->
<g id="edge1" class="edge"><title>Node1&#45;&gt;Node2</title>
<path fill="none" stroke="midnightblue" d="M106.137,-10C114.416,-10 123.124,-10 131.819,-10"/>
<polygon fill="midnightblue" stroke="midnightblue" points="131.992,-13.5001 141.992,-10 131.992,-6.5001 131.992,-13.5001"/>
</g>
<!-- Node3 -->
<g id="node3" class="node"><title>Node3</title>
<g id="a_node3"><a xlink:href="classns_sd_d_1_1_c_list.html#a14b55f9a1acefa302eb5df42c7c99c9b" target="_top" xlink:title="Inserts a copy of every element in the range [first;last[ before position. ">
<polygon fill="white" stroke="black" points="312,-19.5 312,-38.5 422,-38.5 422,-19.5 312,-19.5"/>
<text text-anchor="middle" x="367" y="-26.5" font-family="Helvetica,sans-Serif" font-size="10.00">nsSdD::CList::insert</text>
</a>
</g>
</g>
<!-- Node2&#45;&gt;Node3 -->
<g id="edge2" class="edge"><title>Node2&#45;&gt;Node3</title>
<path fill="none" stroke="midnightblue" d="M276.158,-18.0577C284.541,-19.0788 293.112,-20.1226 301.469,-21.1405"/>
<polygon fill="midnightblue" stroke="midnightblue" points="301.181,-24.6312 311.531,-22.366 302.028,-17.6825 301.181,-24.6312"/>
</g>
<!-- Node6 -->
<g id="node6" class="node"><title>Node6</title>
<g id="a_node6"><a xlink:href="classns_sd_d_1_1_c_list.html#a9d67e4a55aac8ccd2b7cd8fd3939a176" target="_top" xlink:title="Returns an iterator pointing after the last element. ">
<polygon fill="white" stroke="black" points="608,-0.5 608,-19.5 709,-19.5 709,-0.5 608,-0.5"/>
<text text-anchor="middle" x="658.5" y="-7.5" font-family="Helvetica,sans-Serif" font-size="10.00">nsSdD::CList::end</text>
</a>
</g>
</g>
<!-- Node2&#45;&gt;Node6 -->
<g id="edge7" class="edge"><title>Node2&#45;&gt;Node6</title>
<path fill="none" stroke="midnightblue" d="M276.03,-10C362.851,-10 514.134,-10 597.723,-10"/>
<polygon fill="midnightblue" stroke="midnightblue" points="597.819,-13.5001 607.819,-10 597.819,-6.5001 597.819,-13.5001"/>
</g>
<!-- Node4 -->
<g id="node4" class="node"><title>Node4</title>
<g id="a_node4"><a xlink:href="classns_sd_d_1_1_c_list.html#af41da388e9983741e7a559f1b6a0ae01" target="_top" xlink:title="Returns an iterator to the first element. ">
<polygon fill="white" stroke="black" points="604,-38.5 604,-57.5 713,-57.5 713,-38.5 604,-38.5"/>
<text text-anchor="middle" x="658.5" y="-45.5" font-family="Helvetica,sans-Serif" font-size="10.00">nsSdD::CList::begin</text>
</a>
</g>
</g>
<!-- Node3&#45;&gt;Node4 -->
<g id="edge3" class="edge"><title>Node3&#45;&gt;Node4</title>
<path fill="none" stroke="midnightblue" d="M404.508,-38.509C420.761,-42.2739 440.211,-46.1427 458,-48 503.22,-52.7212 554.52,-52.6006 593.776,-51.3623"/>
<polygon fill="midnightblue" stroke="midnightblue" points="594.126,-54.8523 603.998,-51.0062 593.882,-47.8566 594.126,-54.8523"/>
</g>
<!-- Node5 -->
<g id="node5" class="node"><title>Node5</title>
<g id="a_node5"><a xlink:href="classns_sd_d_1_1_c_list.html#aa8b0bd58b9cb6a6463b6e22341e87ea7" target="_top" xlink:title="Move the content of a list before an element in another Moves the content of x before the element poi...">
<polygon fill="white" stroke="black" points="458,-19.5 458,-38.5 568,-38.5 568,-19.5 458,-19.5"/>
<text text-anchor="middle" x="513" y="-26.5" font-family="Helvetica,sans-Serif" font-size="10.00">nsSdD::CList::splice</text>
</a>
</g>
</g>
<!-- Node3&#45;&gt;Node5 -->
<g id="edge4" class="edge"><title>Node3&#45;&gt;Node5</title>
<path fill="none" stroke="midnightblue" d="M422.03,-29C430.314,-29 438.936,-29 447.42,-29"/>
<polygon fill="midnightblue" stroke="midnightblue" points="447.667,-32.5001 457.667,-29 447.667,-25.5001 447.667,-32.5001"/>
</g>
<!-- Node5&#45;&gt;Node4 -->
<g id="edge5" class="edge"><title>Node5&#45;&gt;Node4</title>
<path fill="none" stroke="midnightblue" d="M568.251,-36.1831C576.489,-37.2739 585.055,-38.408 593.478,-39.5232"/>
<polygon fill="midnightblue" stroke="midnightblue" points="593.275,-43.0268 603.648,-40.8698 594.194,-36.0874 593.275,-43.0268"/>
</g>
<!-- Node5&#45;&gt;Node6 -->
<g id="edge6" class="edge"><title>Node5&#45;&gt;Node6</title>
<path fill="none" stroke="midnightblue" d="M568.251,-21.8169C577.912,-20.5378 588.023,-19.199 597.825,-17.9012"/>
<polygon fill="midnightblue" stroke="midnightblue" points="598.442,-21.3502 607.896,-16.5678 597.523,-14.4108 598.442,-21.3502"/>
</g>
</g>
</svg>
