<?xml version="1.0" encoding="UTF-8" standalone="no"?>
<!DOCTYPE svg PUBLIC "-//W3C//DTD SVG 1.1//EN"
 "http://www.w3.org/Graphics/SVG/1.1/DTD/svg11.dtd">
<!-- Generated by graphviz version 2.38.0 (20140413.2041)
 -->
<!-- Title: nsSdD::CBaseNode::reverse Pages: 1 -->
<svg width="596pt" height="47pt"
 viewBox="0.00 0.00 596.00 47.00" xmlns="http://www.w3.org/2000/svg" xmlns:xlink="http://www.w3.org/1999/xlink">
<g id="graph0" class="graph" transform="scale(1 1) rotate(0) translate(4 43)">
<title>nsSdD::CBaseNode::reverse</title>
<polygon fill="white" stroke="none" points="-4,4 -4,-43 592,-43 592,4 -4,4"/>
<!-- Node1 -->
<g id="node1" class="node"><title>Node1</title>
<polygon fill="#bfbfbf" stroke="black" points="0,-0.5 0,-19.5 152,-19.5 152,-0.5 0,-0.5"/>
<text text-anchor="middle" x="76" y="-7.5" font-family="Helvetica,sans-Serif" font-size="10.00">nsSdD::CBaseNode::reverse</text>
</g>
<!-- Node2 -->
<g id="node2" class="node"><title>Node2</title>
<g id="a_node2"><a xlink:href="namespacens_sd_d.html#a5e97bcc4eb3c219b6b25ce9a669c2905" target="_top" xlink:title="Swaps the content of two lists. ">
<polygon fill="white" stroke="black" points="188,-0.5 188,-19.5 267,-19.5 267,-0.5 188,-0.5"/>
<text text-anchor="middle" x="227.5" y="-7.5" font-family="Helvetica,sans-Serif" font-size="10.00">nsSdD::swap</text>
</a>
</g>
</g>
<!-- Node1&#45;&gt;Node2 -->
<g id="edge1" class="edge"><title>Node1&#45;&gt;Node2</title>
<path fill="none" stroke="midnightblue" d="M152.188,-10C160.879,-10 169.563,-10 177.768,-10"/>
<polygon fill="midnightblue" stroke="midnightblue" points="177.871,-13.5001 187.871,-10 177.871,-6.5001 177.871,-13.5001"/>
</g>
<!-- Node3 -->
<g id="node3" class="node"><title>Node3</title>
<g id="a_node3"><a xlink:href="classns_sd_d_1_1_c_list.html#a46b0ba608257cee1897c1ca772eeacd3" target="_top" xlink:title="Swaps the content of two lists. ">
<polygon fill="white" stroke="black" points="303,-19.5 303,-38.5 411,-38.5 411,-19.5 303,-19.5"/>
<text text-anchor="middle" x="357" y="-26.5" font-family="Helvetica,sans-Serif" font-size="10.00">nsSdD::CList::swap</text>
</a>
</g>
</g>
<!-- Node2&#45;&gt;Node3 -->
<g id="edge2" class="edge"><title>Node2&#45;&gt;Node3</title>
<path fill="none" stroke="midnightblue" d="M267.1,-15.7522C275.301,-16.9743 284.163,-18.2949 293.006,-19.6127"/>
<polygon fill="midnightblue" stroke="midnightblue" points="292.539,-23.0816 302.945,-21.0938 293.571,-16.158 292.539,-23.0816"/>
</g>
<!-- Node4 -->
<g id="node4" class="node"><title>Node4</title>
<g id="a_node4"><a xlink:href="classns_sd_d_1_1_c_base_node.html#aa988b77c9d11ded6ac33e0450616dceb" target="_top" xlink:title="Swaps two nodes, that could be in differents lists. ">
<polygon fill="white" stroke="black" points="447,-0.5 447,-19.5 588,-19.5 588,-0.5 447,-0.5"/>
<text text-anchor="middle" x="517.5" y="-7.5" font-family="Helvetica,sans-Serif" font-size="10.00">nsSdD::CBaseNode::swap</text>
</a>
</g>
</g>
<!-- Node3&#45;&gt;Node4 -->
<g id="edge3" class="edge"><title>Node3&#45;&gt;Node4</title>
<path fill="none" stroke="midnightblue" d="M411.219,-22.6204C419.428,-21.6363 428.057,-20.602 436.694,-19.5666"/>
<polygon fill="midnightblue" stroke="midnightblue" points="437.301,-23.0191 446.813,-18.3537 436.467,-16.0688 437.301,-23.0191"/>
</g>
<!-- Node4&#45;&gt;Node2 -->
<g id="edge4" class="edge"><title>Node4&#45;&gt;Node2</title>
<path fill="none" stroke="midnightblue" d="M446.979,-10C394.478,-10 323.751,-10 277.177,-10"/>
<polygon fill="midnightblue" stroke="midnightblue" points="277.042,-6.5001 267.042,-10 277.042,-13.5001 277.042,-6.5001"/>
</g>
</g>
</svg>
