<?xml version="1.0" encoding="UTF-8" standalone="no"?>
<!DOCTYPE svg PUBLIC "-//W3C//DTD SVG 1.1//EN"
 "http://www.w3.org/Graphics/SVG/1.1/DTD/svg11.dtd">
<!-- Generated by graphviz version 2.38.0 (20140413.2041)
 -->
<!-- Title: nsSdD::CList::sort Pages: 1 -->
<svg width="551pt" height="180pt"
 viewBox="0.00 0.00 551.00 180.00" xmlns="http://www.w3.org/2000/svg" xmlns:xlink="http://www.w3.org/1999/xlink">
<g id="graph0" class="graph" transform="scale(1 1) rotate(0) translate(4 176)">
<title>nsSdD::CList::sort</title>
<polygon fill="white" stroke="none" points="-4,4 -4,-176 547,-176 547,4 -4,4"/>
<!-- Node1 -->
<g id="node1" class="node"><title>Node1</title>
<polygon fill="#bfbfbf" stroke="black" points="0,-76.5 0,-95.5 101,-95.5 101,-76.5 0,-76.5"/>
<text text-anchor="middle" x="50.5" y="-83.5" font-family="Helvetica,sans-Serif" font-size="10.00">nsSdD::CList::sort</text>
</g>
<!-- Node2 -->
<g id="node2" class="node"><title>Node2</title>
<g id="a_node2"><a xlink:href="classns_sd_d_1_1_c_list.html#aa8b0bd58b9cb6a6463b6e22341e87ea7" target="_top" xlink:title="Move the content of a list before an element in another Moves the content of x before the element poi...">
<polygon fill="white" stroke="black" points="139,-114.5 139,-133.5 249,-133.5 249,-114.5 139,-114.5"/>
<text text-anchor="middle" x="194" y="-121.5" font-family="Helvetica,sans-Serif" font-size="10.00">nsSdD::CList::splice</text>
</a>
</g>
</g>
<!-- Node1&#45;&gt;Node2 -->
<g id="edge1" class="edge"><title>Node1&#45;&gt;Node2</title>
<path fill="none" stroke="midnightblue" d="M87.2064,-95.589C105.473,-100.494 127.908,-106.52 147.411,-111.757"/>
<polygon fill="midnightblue" stroke="midnightblue" points="146.739,-115.201 157.305,-114.414 148.555,-108.44 146.739,-115.201"/>
</g>
<!-- Node3 -->
<g id="node3" class="node"><title>Node3</title>
<g id="a_node3"><a xlink:href="classns_sd_d_1_1_c_list.html#af41da388e9983741e7a559f1b6a0ae01" target="_top" xlink:title="Returns an iterator to the first element. ">
<polygon fill="white" stroke="black" points="303,-152.5 303,-171.5 412,-171.5 412,-152.5 303,-152.5"/>
<text text-anchor="middle" x="357.5" y="-159.5" font-family="Helvetica,sans-Serif" font-size="10.00">nsSdD::CList::begin</text>
</a>
</g>
</g>
<!-- Node1&#45;&gt;Node3 -->
<g id="edge4" class="edge"><title>Node1&#45;&gt;Node3</title>
<path fill="none" stroke="midnightblue" d="M61.8732,-95.5009C77.0701,-108.777 106.865,-132.436 137,-143 187.232,-160.609 247.713,-164.688 292.458,-164.744"/>
<polygon fill="midnightblue" stroke="midnightblue" points="292.635,-168.243 302.615,-164.688 292.596,-161.243 292.635,-168.243"/>
</g>
<!-- Node5 -->
<g id="node5" class="node"><title>Node5</title>
<g id="a_node5"><a xlink:href="classns_sd_d_1_1_c_list.html#ad9c0ecbdedb0a8ad28625874f3c11c4d" target="_top" xlink:title="Checks whether a list is empty. ">
<polygon fill="white" stroke="black" points="137,-76.5 137,-95.5 251,-95.5 251,-76.5 137,-76.5"/>
<text text-anchor="middle" x="194" y="-83.5" font-family="Helvetica,sans-Serif" font-size="10.00">nsSdD::CList::empty</text>
</a>
</g>
</g>
<!-- Node1&#45;&gt;Node5 -->
<g id="edge5" class="edge"><title>Node1&#45;&gt;Node5</title>
<path fill="none" stroke="midnightblue" d="M101.388,-86C109.533,-86 118.084,-86 126.553,-86"/>
<polygon fill="midnightblue" stroke="midnightblue" points="126.809,-89.5001 136.809,-86 126.809,-82.5001 126.809,-89.5001"/>
</g>
<!-- Node6 -->
<g id="node6" class="node"><title>Node6</title>
<g id="a_node6"><a xlink:href="classns_sd_d_1_1_c_list.html#a7df8704c811cf6e7ae2ad83d03aa3342" target="_top" xlink:title="Merges two sorted lists into one If the lists aren&#39;t sorted this causes undefined behavior x is empti...">
<polygon fill="white" stroke="black" points="137,-38.5 137,-57.5 251,-57.5 251,-38.5 137,-38.5"/>
<text text-anchor="middle" x="194" y="-45.5" font-family="Helvetica,sans-Serif" font-size="10.00">nsSdD::CList::merge</text>
</a>
</g>
</g>
<!-- Node1&#45;&gt;Node6 -->
<g id="edge6" class="edge"><title>Node1&#45;&gt;Node6</title>
<path fill="none" stroke="midnightblue" d="M87.2064,-76.411C105.473,-71.5056 127.908,-65.4804 147.411,-60.2429"/>
<polygon fill="midnightblue" stroke="midnightblue" points="148.555,-63.5599 157.305,-57.5859 146.739,-56.7994 148.555,-63.5599"/>
</g>
<!-- Node7 -->
<g id="node7" class="node"><title>Node7</title>
<g id="a_node7"><a xlink:href="classns_sd_d_1_1_c_list.html#a46b0ba608257cee1897c1ca772eeacd3" target="_top" xlink:title="Swaps the content of two lists. ">
<polygon fill="white" stroke="black" points="140,-0.5 140,-19.5 248,-19.5 248,-0.5 140,-0.5"/>
<text text-anchor="middle" x="194" y="-7.5" font-family="Helvetica,sans-Serif" font-size="10.00">nsSdD::CList::swap</text>
</a>
</g>
</g>
<!-- Node1&#45;&gt;Node7 -->
<g id="edge7" class="edge"><title>Node1&#45;&gt;Node7</title>
<path fill="none" stroke="midnightblue" d="M63.6254,-76.4226C79.6607,-64.1173 109.151,-42.7127 137,-29 141.32,-26.8727 145.937,-24.887 150.598,-23.0626"/>
<polygon fill="midnightblue" stroke="midnightblue" points="151.966,-26.2885 160.142,-19.5503 149.549,-19.7191 151.966,-26.2885"/>
</g>
<!-- Node2&#45;&gt;Node3 -->
<g id="edge2" class="edge"><title>Node2&#45;&gt;Node3</title>
<path fill="none" stroke="midnightblue" d="M235.753,-133.589C257.161,-138.626 283.586,-144.844 306.253,-150.177"/>
<polygon fill="midnightblue" stroke="midnightblue" points="305.504,-153.596 316.04,-152.48 307.107,-146.783 305.504,-153.596"/>
</g>
<!-- Node4 -->
<g id="node4" class="node"><title>Node4</title>
<g id="a_node4"><a xlink:href="classns_sd_d_1_1_c_list.html#a9d67e4a55aac8ccd2b7cd8fd3939a176" target="_top" xlink:title="Returns an iterator pointing after the last element. ">
<polygon fill="white" stroke="black" points="307,-114.5 307,-133.5 408,-133.5 408,-114.5 307,-114.5"/>
<text text-anchor="middle" x="357.5" y="-121.5" font-family="Helvetica,sans-Serif" font-size="10.00">nsSdD::CList::end</text>
</a>
</g>
</g>
<!-- Node2&#45;&gt;Node4 -->
<g id="edge3" class="edge"><title>Node2&#45;&gt;Node4</title>
<path fill="none" stroke="midnightblue" d="M249.226,-124C264.486,-124 281.167,-124 296.731,-124"/>
<polygon fill="midnightblue" stroke="midnightblue" points="296.771,-127.5 306.771,-124 296.771,-120.5 296.771,-127.5"/>
</g>
<!-- Node8 -->
<g id="node8" class="node"><title>Node8</title>
<g id="a_node8"><a xlink:href="classns_sd_d_1_1_c_base_node.html#aa988b77c9d11ded6ac33e0450616dceb" target="_top" xlink:title="Swaps two nodes, that could be in differents lists. ">
<polygon fill="white" stroke="black" points="287,-19.5 287,-38.5 428,-38.5 428,-19.5 287,-19.5"/>
<text text-anchor="middle" x="357.5" y="-26.5" font-family="Helvetica,sans-Serif" font-size="10.00">nsSdD::CBaseNode::swap</text>
</a>
</g>
</g>
<!-- Node7&#45;&gt;Node8 -->
<g id="edge8" class="edge"><title>Node7&#45;&gt;Node8</title>
<path fill="none" stroke="midnightblue" d="M248.329,-16.274C257.466,-17.349 267.135,-18.4865 276.785,-19.6217"/>
<polygon fill="midnightblue" stroke="midnightblue" points="276.47,-23.1087 286.81,-20.8012 277.288,-16.1567 276.47,-23.1087"/>
</g>
<!-- Node9 -->
<g id="node9" class="node"><title>Node9</title>
<g id="a_node9"><a xlink:href="namespacens_sd_d.html#a5e97bcc4eb3c219b6b25ce9a669c2905" target="_top" xlink:title="Swaps the content of two lists. ">
<polygon fill="white" stroke="black" points="464,-0.5 464,-19.5 543,-19.5 543,-0.5 464,-0.5"/>
<text text-anchor="middle" x="503.5" y="-7.5" font-family="Helvetica,sans-Serif" font-size="10.00">nsSdD::swap</text>
</a>
</g>
</g>
<!-- Node8&#45;&gt;Node9 -->
<g id="edge9" class="edge"><title>Node8&#45;&gt;Node9</title>
<path fill="none" stroke="midnightblue" d="M428.391,-19.7783C436.956,-18.6481 445.562,-17.5127 453.721,-16.4361"/>
<polygon fill="midnightblue" stroke="midnightblue" points="454.326,-19.8868 463.782,-15.1086 453.41,-12.9469 454.326,-19.8868"/>
</g>
<!-- Node9&#45;&gt;Node7 -->
<g id="edge10" class="edge"><title>Node9&#45;&gt;Node7</title>
<path fill="none" stroke="midnightblue" d="M463.568,-10C411.875,-10 319.939,-10 258.225,-10"/>
<polygon fill="midnightblue" stroke="midnightblue" points="258.211,-6.5001 248.211,-10 258.211,-13.5001 258.211,-6.5001"/>
</g>
</g>
</svg>
