<?xml version="1.0" encoding="UTF-8" standalone="no"?>
<!DOCTYPE svg PUBLIC "-//W3C//DTD SVG 1.1//EN"
 "http://www.w3.org/Graphics/SVG/1.1/DTD/svg11.dtd">
<!-- Generated by graphviz version 2.38.0 (20140413.2041)
 -->
<!-- Title: nsSdD::CList::end Pages: 1 -->
<!--zoomable 574 -->
<svg id="main" version="1.1" xmlns="http://www.w3.org/2000/svg" xmlns:xlink="http://www.w3.org/1999/xlink" xml:space="preserve" onload="init(evt)">
<style type="text/css"><![CDATA[
.edge:hover path { stroke: red; }
.edge:hover polygon { stroke: red; fill: red; }
]]></style>
<script type="text/javascript"><![CDATA[
var edges = document.getElementsByTagName('g');
if (edges && edges.length) {
  for (var i=0;i<edges.length;i++) {
    if (edges[i].id.substr(0,4)=='edge') {
      edges[i].setAttribute('class','edge');
    }
  }
}
]]></script>
        <defs>
                <circle id="rim" cx="0" cy="0" r="7"/>
                <circle id="rim2" cx="0" cy="0" r="3.5"/>
                <g id="zoomPlus">
                        <use xlink:href="#rim" fill="#404040">
                                <set attributeName="fill" to="#808080" begin="zoomplus.mouseover" end="zoomplus.mouseout"/>
                        </use>
                        <path d="M-4,0h8M0,-4v8" fill="none" stroke="white" stroke-width="1.5" pointer-events="none"/>
                </g>
                <g id="zoomMin">
                        <use xlink:href="#rim" fill="#404040">
                                <set attributeName="fill" to="#808080" begin="zoomminus.mouseover" end="zoomminus.mouseout"/>
                        </use>
                        <path d="M-4,0h8" fill="none" stroke="white" stroke-width="1.5" pointer-events="none"/>
                </g>
                <g id="dirArrow">
                        <path fill="none" stroke="white" stroke-width="1.5" d="M0,-3.0v7 M-2.5,-0.5L0,-3.0L2.5,-0.5"/>
                </g>
               <g id="resetDef">
                       <use xlink:href="#rim2" fill="#404040">
                               <set attributeName="fill" to="#808080" begin="reset.mouseover" end="reset.mouseout"/>
                       </use>
               </g>
        </defs>

<script type="text/javascript">
var viewWidth = 760;
var viewHeight = 574;
var sectionId = 'dynsection-10';
</script>
<script xlink:href="svgpan.js"/>
<svg id="graph" class="graph">
<g id="viewport">
<title>nsSdD::CList::end</title>
<polygon fill="white" stroke="none" points="-4,4 -4,-569.56 756,-569.56 756,4 -4,4"/>
<!-- Node1 -->
<g id="node1" class="node"><title>Node1</title>
<polygon fill="#bfbfbf" stroke="black" points="0,-247.5 0,-266.5 101,-266.5 101,-247.5 0,-247.5"/>
<text text-anchor="middle" x="50.5" y="-254.5" font-family="Helvetica,sans-Serif" font-size="10.00">nsSdD::CList::end</text>
</g>
<!-- Node2 -->
<g id="node2" class="node"><title>Node2</title>
<g id="a_node2"><a xlink:href="classns_sd_d_1_1_c_list.html#abb9078f033ce1db015873f77bcaa2c64" target="_top" xlink:title="Creates a list by copying the elements in the range [first;last[. ">
<polygon fill="white" stroke="black" points="464,-544.5 464,-563.5 570,-563.5 570,-544.5 464,-544.5"/>
<text text-anchor="middle" x="517" y="-551.5" font-family="Helvetica,sans-Serif" font-size="10.00">nsSdD::CList::CList</text>
</a>
</g>
</g>
<!-- Node1&#45;&gt;Node2 -->
<g id="edge1" class="edge"><title>Node1&#45;&gt;Node2</title>
<path fill="none" stroke="midnightblue" d="M52.727,-277.011C56.6136,-322.244 72.5636,-432.935 137,-491 227.926,-572.936 383.231,-569.778 463.903,-561.418"/>
<polygon fill="midnightblue" stroke="midnightblue" points="56.197,-276.476 51.9623,-266.765 49.2164,-276.998 56.197,-276.476"/>
</g>
<!-- Node3 -->
<g id="node3" class="node"><title>Node3</title>
<g id="a_node3"><a xlink:href="classns_sd_d_1_1_c_list.html#a054317243498e5a560050e16db28c5f2" target="_top" xlink:title="Assigns the content of rhs to this Assigns the content of rhs to this. ">
<polygon fill="white" stroke="black" points="620,-310.5 620,-329.5 752,-329.5 752,-310.5 620,-310.5"/>
<text text-anchor="middle" x="686" y="-317.5" font-family="Helvetica,sans-Serif" font-size="10.00">nsSdD::CList::operator=</text>
</a>
</g>
</g>
<!-- Node1&#45;&gt;Node3 -->
<g id="edge2" class="edge"><title>Node1&#45;&gt;Node3</title>
<path fill="none" stroke="midnightblue" d="M111.103,-257.929C209.954,-260.211 413.801,-268.067 584,-295 607.194,-298.67 632.877,-305.06 652.54,-310.46"/>
<polygon fill="midnightblue" stroke="midnightblue" points="111.083,-254.428 101.009,-257.707 110.929,-261.426 111.083,-254.428"/>
</g>
<!-- Node4 -->
<g id="node4" class="node"><title>Node4</title>
<g id="a_node4"><a xlink:href="classns_sd_d_1_1_c_list.html#a3d320af3b5706fdcd52a350fe3b71dde" target="_top" xlink:title="Remove duplicated consecutive elements. ">
<polygon fill="white" stroke="black" points="145,-228.5 145,-247.5 260,-247.5 260,-228.5 145,-228.5"/>
<text text-anchor="middle" x="202.5" y="-235.5" font-family="Helvetica,sans-Serif" font-size="10.00">nsSdD::CList::unique</text>
</a>
</g>
</g>
<!-- Node1&#45;&gt;Node4 -->
<g id="edge3" class="edge"><title>Node1&#45;&gt;Node4</title>
<path fill="none" stroke="midnightblue" d="M111.063,-249.455C122.163,-248.049 133.735,-246.584 144.748,-245.189"/>
<polygon fill="midnightblue" stroke="midnightblue" points="110.512,-245.997 101.031,-250.726 111.392,-252.942 110.512,-245.997"/>
</g>
<!-- Node6 -->
<g id="node6" class="node"><title>Node6</title>
<g id="a_node6"><a xlink:href="classns_sd_d_1_1_c_list.html#a37b247ba8ad19c1b28dbe49576dbb556" target="_top" xlink:title="Remove every elements equal to val Remove every elements in the list that are equal to val...">
<polygon fill="white" stroke="black" points="142.5,-190.5 142.5,-209.5 262.5,-209.5 262.5,-190.5 142.5,-190.5"/>
<text text-anchor="middle" x="202.5" y="-197.5" font-family="Helvetica,sans-Serif" font-size="10.00">nsSdD::CList::remove</text>
</a>
</g>
</g>
<!-- Node1&#45;&gt;Node6 -->
<g id="edge5" class="edge"><title>Node1&#45;&gt;Node6</title>
<path fill="none" stroke="midnightblue" d="M79.9772,-243.212C96.4233,-235.536 117.628,-226.123 137,-219 146.313,-215.576 156.552,-212.331 166.076,-209.523"/>
<polygon fill="midnightblue" stroke="midnightblue" points="78.4427,-240.066 70.8938,-247.5 81.431,-246.396 78.4427,-240.066"/>
</g>
<!-- Node8 -->
<g id="node8" class="node"><title>Node8</title>
<g id="a_node8"><a xlink:href="classns_sd_d_1_1_c_list.html#a4df5ac6a378172689d7a0369f3f34cb8" target="_top" xlink:title="nsSdD::CList::remove_if">
<polygon fill="white" stroke="black" points="137,-152.5 137,-171.5 268,-171.5 268,-152.5 137,-152.5"/>
<text text-anchor="middle" x="202.5" y="-159.5" font-family="Helvetica,sans-Serif" font-size="10.00">nsSdD::CList::remove_if</text>
</a>
</g>
</g>
<!-- Node1&#45;&gt;Node8 -->
<g id="edge7" class="edge"><title>Node1&#45;&gt;Node8</title>
<path fill="none" stroke="midnightblue" d="M66.6211,-239.683C82.5296,-222.477 109.092,-196.485 137,-181 143.839,-177.205 151.516,-174.095 159.125,-171.572"/>
<polygon fill="midnightblue" stroke="midnightblue" points="63.812,-237.572 59.7081,-247.34 69.0075,-242.263 63.812,-237.572"/>
</g>
<!-- Node10 -->
<g id="node10" class="node"><title>Node10</title>
<g id="a_node10"><a xlink:href="classns_sd_d_1_1_c_list.html#a24058246d6dcac6b17dccc3569d81189" target="_top" xlink:title="nsSdD::CList::push_back">
<polygon fill="white" stroke="black" points="450,-506.5 450,-525.5 584,-525.5 584,-506.5 450,-506.5"/>
<text text-anchor="middle" x="517" y="-513.5" font-family="Helvetica,sans-Serif" font-size="10.00">nsSdD::CList::push_back</text>
</a>
</g>
</g>
<!-- Node1&#45;&gt;Node10 -->
<g id="edge9" class="edge"><title>Node1&#45;&gt;Node10</title>
<path fill="none" stroke="midnightblue" d="M54.2254,-276.816C60.7571,-316.207 81.1405,-404.314 137,-448 227.703,-518.937 367.931,-525.199 449.974,-521.705"/>
<polygon fill="midnightblue" stroke="midnightblue" points="57.6757,-276.224 52.7037,-266.869 50.7562,-277.283 57.6757,-276.224"/>
</g>
<!-- Node13 -->
<g id="node13" class="node"><title>Node13</title>
<g id="a_node13"><a xlink:href="classns_sd_d_1_1_c_list.html#a99fba05885d5eec5ee004337244943bf" target="_top" xlink:title="Removes the last element of a list. ">
<polygon fill="white" stroke="black" points="138,-114.5 138,-133.5 267,-133.5 267,-114.5 138,-114.5"/>
<text text-anchor="middle" x="202.5" y="-121.5" font-family="Helvetica,sans-Serif" font-size="10.00">nsSdD::CList::pop_back</text>
</a>
</g>
</g>
<!-- Node1&#45;&gt;Node13 -->
<g id="edge12" class="edge"><title>Node1&#45;&gt;Node13</title>
<path fill="none" stroke="midnightblue" d="M60.525,-238.457C73.791,-213.136 100.94,-168.036 137,-143 142.562,-139.139 148.914,-136.052 155.413,-133.586"/>
<polygon fill="midnightblue" stroke="midnightblue" points="57.3901,-236.9 55.9875,-247.402 63.6329,-240.067 57.3901,-236.9"/>
</g>
<!-- Node15 -->
<g id="node15" class="node"><title>Node15</title>
<g id="a_node15"><a xlink:href="classns_sd_d_1_1_c_list.html#af317152a38e8088b3c58449168735851" target="_top" xlink:title="Computes the size of a list. ">
<polygon fill="white" stroke="black" points="152,-76.5 152,-95.5 253,-95.5 253,-76.5 152,-76.5"/>
<text text-anchor="middle" x="202.5" y="-83.5" font-family="Helvetica,sans-Serif" font-size="10.00">nsSdD::CList::size</text>
</a>
</g>
</g>
<!-- Node1&#45;&gt;Node15 -->
<g id="edge14" class="edge"><title>Node1&#45;&gt;Node15</title>
<path fill="none" stroke="midnightblue" d="M57.0045,-237.912C67.2937,-205.653 92.524,-140.413 137,-105 141.84,-101.146 147.441,-98.0736 153.28,-95.6241"/>
<polygon fill="midnightblue" stroke="midnightblue" points="53.6508,-236.911 54.0817,-247.497 60.3464,-238.953 53.6508,-236.911"/>
</g>
<!-- Node17 -->
<g id="node17" class="node"><title>Node17</title>
<g id="a_node17"><a xlink:href="classns_sd_d_1_1_c_list.html#aab19bd6c6f972e4a37db465523d6b2ef" target="_top" xlink:title="Returns a reference to the last element of the list. ">
<polygon fill="white" stroke="black" points="149.5,-38.5 149.5,-57.5 255.5,-57.5 255.5,-38.5 149.5,-38.5"/>
<text text-anchor="middle" x="202.5" y="-45.5" font-family="Helvetica,sans-Serif" font-size="10.00">nsSdD::CList::back</text>
</a>
</g>
</g>
<!-- Node1&#45;&gt;Node17 -->
<g id="edge16" class="edge"><title>Node1&#45;&gt;Node17</title>
<path fill="none" stroke="midnightblue" d="M54.721,-237.541C62.1088,-199.135 83.903,-113.308 137,-67 141.487,-63.0868 146.746,-59.9787 152.291,-57.5103"/>
<polygon fill="midnightblue" stroke="midnightblue" points="51.2654,-236.982 52.9382,-247.444 58.1547,-238.223 51.2654,-236.982"/>
</g>
<!-- Node19 -->
<g id="node19" class="node"><title>Node19</title>
<g id="a_node19"><a xlink:href="classns_sd_d_1_1_c_list.html#ac9c0f95ce50cfe935e81bc158c34c7aa" target="_top" xlink:title="Assigns the content of the list by the elements in the [first; last[ range If the range is smaller th...">
<polygon fill="white" stroke="black" points="460.5,-380.5 460.5,-399.5 573.5,-399.5 573.5,-380.5 460.5,-380.5"/>
<text text-anchor="middle" x="517" y="-387.5" font-family="Helvetica,sans-Serif" font-size="10.00">nsSdD::CList::assign</text>
</a>
</g>
</g>
<!-- Node1&#45;&gt;Node19 -->
<g id="edge18" class="edge"><title>Node1&#45;&gt;Node19</title>
<path fill="none" stroke="midnightblue" d="M63.5315,-275.027C78.2459,-295.463 105.163,-328.009 137,-344 241.984,-396.733 383.28,-398.495 460.276,-394.589"/>
<polygon fill="midnightblue" stroke="midnightblue" points="66.2437,-272.797 57.6557,-266.592 60.5,-276.798 66.2437,-272.797"/>
</g>
<!-- Node20 -->
<g id="node20" class="node"><title>Node20</title>
<g id="a_node20"><a xlink:href="classns_sd_d_1_1_c_list.html#aa8b0bd58b9cb6a6463b6e22341e87ea7" target="_top" xlink:title="Move the content of a list before an element in another Moves the content of x before the element poi...">
<polygon fill="white" stroke="black" points="147.5,-419.5 147.5,-438.5 257.5,-438.5 257.5,-419.5 147.5,-419.5"/>
<text text-anchor="middle" x="202.5" y="-426.5" font-family="Helvetica,sans-Serif" font-size="10.00">nsSdD::CList::splice</text>
</a>
</g>
</g>
<!-- Node1&#45;&gt;Node20 -->
<g id="edge20" class="edge"><title>Node1&#45;&gt;Node20</title>
<path fill="none" stroke="midnightblue" d="M57.9673,-276.379C69.2645,-307.445 95.4305,-368.495 137,-404 144.854,-410.708 154.71,-415.73 164.336,-419.443"/>
<polygon fill="midnightblue" stroke="midnightblue" points="61.1979,-275.015 54.5906,-266.733 54.591,-277.327 61.1979,-275.015"/>
</g>
<!-- Node25 -->
<g id="node25" class="node"><title>Node25</title>
<g id="a_node25"><a xlink:href="classns_sd_d_1_1_c_list.html#a3982b8ab302ebe53b0f7b8866d1d5aa9" target="_top" xlink:title="Resize the container to n elements. If n &gt; size(), the extra element are default constructed or copie...">
<polygon fill="white" stroke="black" points="461.5,-342.5 461.5,-361.5 572.5,-361.5 572.5,-342.5 461.5,-342.5"/>
<text text-anchor="middle" x="517" y="-349.5" font-family="Helvetica,sans-Serif" font-size="10.00">nsSdD::CList::resize</text>
</a>
</g>
</g>
<!-- Node1&#45;&gt;Node25 -->
<g id="edge32" class="edge"><title>Node1&#45;&gt;Node25</title>
<path fill="none" stroke="midnightblue" d="M69.8646,-273.163C86.2569,-286.577 111.542,-304.881 137,-314 247.191,-353.471 386.187,-356.527 461.48,-354.654"/>
<polygon fill="midnightblue" stroke="midnightblue" points="72.0536,-270.43 62.1493,-266.668 67.5455,-275.785 72.0536,-270.43"/>
</g>
<!-- Node26 -->
<g id="node26" class="node"><title>Node26</title>
<g id="a_node26"><a xlink:href="test_2main_8cpp.html#ae2423dc27cca68542e2b91dbd7f4a659" target="_top" xlink:title="TEST">
<polygon fill="white" stroke="black" points="496.5,-304.5 496.5,-323.5 537.5,-323.5 537.5,-304.5 496.5,-304.5"/>
<text text-anchor="middle" x="517" y="-311.5" font-family="Helvetica,sans-Serif" font-size="10.00">TEST</text>
</a>
</g>
</g>
<!-- Node1&#45;&gt;Node26 -->
<g id="edge34" class="edge"><title>Node1&#45;&gt;Node26</title>
<path fill="none" stroke="midnightblue" d="M80.4728,-270.727C96.7168,-277.768 117.565,-285.74 137,-290 271.921,-319.576 439.835,-316.817 496.384,-314.84"/>
<polygon fill="midnightblue" stroke="midnightblue" points="81.5659,-267.382 71.0074,-266.504 78.7141,-273.775 81.5659,-267.382"/>
</g>
<!-- Node28 -->
<g id="node28" class="node"><title>Node28</title>
<g id="a_node28"><a xlink:href="classns_sd_d_1_1_c_list.html#a4e22bae1385d8646f782c6a4e1749e00" target="_top" xlink:title="Merges two sorted lists into one If the lists aren&#39;t sorted this causes undefined behavior x is empti...">
<polygon fill="white" stroke="black" points="145.5,-0.5 145.5,-19.5 259.5,-19.5 259.5,-0.5 145.5,-0.5"/>
<text text-anchor="middle" x="202.5" y="-7.5" font-family="Helvetica,sans-Serif" font-size="10.00">nsSdD::CList::merge</text>
</a>
</g>
</g>
<!-- Node1&#45;&gt;Node28 -->
<g id="edge33" class="edge"><title>Node1&#45;&gt;Node28</title>
<path fill="none" stroke="midnightblue" d="M53.1232,-237.06C57.796,-192.952 75.2091,-86.4775 137,-29 141.188,-25.1041 146.136,-22.0035 151.4,-19.5365"/>
<polygon fill="midnightblue" stroke="midnightblue" points="49.6321,-236.802 52.1717,-247.088 56.6008,-237.463 49.6321,-236.802"/>
</g>
<!-- Node5 -->
<g id="node5" class="node"><title>Node5</title>
<g id="a_node5"><a xlink:href="test_2main_8cpp.html#a4507235c78fce25dde5282f27b610d3b" target="_top" xlink:title="TEST">
<polygon fill="white" stroke="black" points="338.5,-228.5 338.5,-247.5 379.5,-247.5 379.5,-228.5 338.5,-228.5"/>
<text text-anchor="middle" x="359" y="-235.5" font-family="Helvetica,sans-Serif" font-size="10.00">TEST</text>
</a>
</g>
</g>
<!-- Node4&#45;&gt;Node5 -->
<g id="edge4" class="edge"><title>Node4&#45;&gt;Node5</title>
<path fill="none" stroke="midnightblue" d="M270.239,-238C294.906,-238 321.031,-238 338.298,-238"/>
<polygon fill="midnightblue" stroke="midnightblue" points="270.153,-234.5 260.153,-238 270.153,-241.5 270.153,-234.5"/>
</g>
<!-- Node7 -->
<g id="node7" class="node"><title>Node7</title>
<g id="a_node7"><a xlink:href="test_2main_8cpp.html#ac01eb8c418210780d9e70f125aa52140" target="_top" xlink:title="TEST">
<polygon fill="white" stroke="black" points="338.5,-190.5 338.5,-209.5 379.5,-209.5 379.5,-190.5 338.5,-190.5"/>
<text text-anchor="middle" x="359" y="-197.5" font-family="Helvetica,sans-Serif" font-size="10.00">TEST</text>
</a>
</g>
</g>
<!-- Node6&#45;&gt;Node7 -->
<g id="edge6" class="edge"><title>Node6&#45;&gt;Node7</title>
<path fill="none" stroke="midnightblue" d="M272.927,-200C296.783,-200 321.645,-200 338.285,-200"/>
<polygon fill="midnightblue" stroke="midnightblue" points="272.792,-196.5 262.792,-200 272.792,-203.5 272.792,-196.5"/>
</g>
<!-- Node9 -->
<g id="node9" class="node"><title>Node9</title>
<g id="a_node9"><a xlink:href="test_2main_8cpp.html#ac0772c644307b326a919bf04ed741e61" target="_top" xlink:title="TEST">
<polygon fill="white" stroke="black" points="338.5,-152.5 338.5,-171.5 379.5,-171.5 379.5,-152.5 338.5,-152.5"/>
<text text-anchor="middle" x="359" y="-159.5" font-family="Helvetica,sans-Serif" font-size="10.00">TEST</text>
</a>
</g>
</g>
<!-- Node8&#45;&gt;Node9 -->
<g id="edge8" class="edge"><title>Node8&#45;&gt;Node9</title>
<path fill="none" stroke="midnightblue" d="M278.28,-162C300.478,-162 322.948,-162 338.349,-162"/>
<polygon fill="midnightblue" stroke="midnightblue" points="278.127,-158.5 268.127,-162 278.127,-165.5 278.127,-158.5"/>
</g>
<!-- Node11 -->
<g id="node11" class="node"><title>Node11</title>
<g id="a_node11"><a xlink:href="classns_sd_d_1_1_c_list.html#a847ac0924d9e5f86718bd1a9af55d0f4" target="_top" xlink:title="Creates a list of n elements with a value of val. ">
<polygon fill="white" stroke="black" points="633,-506.5 633,-525.5 739,-525.5 739,-506.5 633,-506.5"/>
<text text-anchor="middle" x="686" y="-513.5" font-family="Helvetica,sans-Serif" font-size="10.00">nsSdD::CList::CList</text>
</a>
</g>
</g>
<!-- Node10&#45;&gt;Node11 -->
<g id="edge10" class="edge"><title>Node10&#45;&gt;Node11</title>
<path fill="none" stroke="midnightblue" d="M594.371,-516C607.392,-516 620.646,-516 632.854,-516"/>
<polygon fill="midnightblue" stroke="midnightblue" points="594.003,-512.5 584.003,-516 594.003,-519.5 594.003,-512.5"/>
</g>
<!-- Node12 -->
<g id="node12" class="node"><title>Node12</title>
<g id="a_node12"><a xlink:href="test_2main_8cpp.html#aed75b3aafd0856fd8d1c9050617a8696" target="_top" xlink:title="TEST">
<polygon fill="white" stroke="black" points="665.5,-468.5 665.5,-487.5 706.5,-487.5 706.5,-468.5 665.5,-468.5"/>
<text text-anchor="middle" x="686" y="-475.5" font-family="Helvetica,sans-Serif" font-size="10.00">TEST</text>
</a>
</g>
</g>
<!-- Node10&#45;&gt;Node12 -->
<g id="edge11" class="edge"><title>Node10&#45;&gt;Node12</title>
<path fill="none" stroke="midnightblue" d="M570.305,-504.098C602.483,-496.776 641.88,-487.812 665.125,-482.522"/>
<polygon fill="midnightblue" stroke="midnightblue" points="569.115,-500.779 560.141,-506.411 570.668,-507.605 569.115,-500.779"/>
</g>
<!-- Node14 -->
<g id="node14" class="node"><title>Node14</title>
<g id="a_node14"><a xlink:href="test_2main_8cpp.html#aa39807b16fb2f8695b25bfdd4893b59b" target="_top" xlink:title="TEST">
<polygon fill="white" stroke="black" points="338.5,-114.5 338.5,-133.5 379.5,-133.5 379.5,-114.5 338.5,-114.5"/>
<text text-anchor="middle" x="359" y="-121.5" font-family="Helvetica,sans-Serif" font-size="10.00">TEST</text>
</a>
</g>
</g>
<!-- Node13&#45;&gt;Node14 -->
<g id="edge13" class="edge"><title>Node13&#45;&gt;Node14</title>
<path fill="none" stroke="midnightblue" d="M277.514,-124C300.008,-124 322.867,-124 338.447,-124"/>
<polygon fill="midnightblue" stroke="midnightblue" points="277.233,-120.5 267.233,-124 277.233,-127.5 277.233,-120.5"/>
</g>
<!-- Node16 -->
<g id="node16" class="node"><title>Node16</title>
<g id="a_node16"><a xlink:href="test_2main_8cpp.html#a5bb77ef627dbb255fb52e6c146bb9d81" target="_top" xlink:title="TEST">
<polygon fill="white" stroke="black" points="338.5,-76.5 338.5,-95.5 379.5,-95.5 379.5,-76.5 338.5,-76.5"/>
<text text-anchor="middle" x="359" y="-83.5" font-family="Helvetica,sans-Serif" font-size="10.00">TEST</text>
</a>
</g>
</g>
<!-- Node15&#45;&gt;Node16 -->
<g id="edge15" class="edge"><title>Node15&#45;&gt;Node16</title>
<path fill="none" stroke="midnightblue" d="M263.268,-86C289.893,-86 319.442,-86 338.344,-86"/>
<polygon fill="midnightblue" stroke="midnightblue" points="263.235,-82.5001 253.235,-86 263.235,-89.5001 263.235,-82.5001"/>
</g>
<!-- Node18 -->
<g id="node18" class="node"><title>Node18</title>
<g id="a_node18"><a xlink:href="test_2main_8cpp.html#a854eb5ee413a311d774389769c209a97" target="_top" xlink:title="TEST">
<polygon fill="white" stroke="black" points="338.5,-38.5 338.5,-57.5 379.5,-57.5 379.5,-38.5 338.5,-38.5"/>
<text text-anchor="middle" x="359" y="-45.5" font-family="Helvetica,sans-Serif" font-size="10.00">TEST</text>
</a>
</g>
</g>
<!-- Node17&#45;&gt;Node18 -->
<g id="edge17" class="edge"><title>Node17&#45;&gt;Node18</title>
<path fill="none" stroke="midnightblue" d="M265.957,-48C291.822,-48 319.985,-48 338.256,-48"/>
<polygon fill="midnightblue" stroke="midnightblue" points="265.807,-44.5001 255.807,-48 265.807,-51.5001 265.807,-44.5001"/>
</g>
<!-- Node19&#45;&gt;Node3 -->
<g id="edge19" class="edge"><title>Node19&#45;&gt;Node3</title>
<path fill="none" stroke="midnightblue" d="M565.532,-377.478C571.804,-375.488 578.1,-373.315 584,-371 614.72,-358.945 648.617,-340.748 668.291,-329.663"/>
<polygon fill="midnightblue" stroke="midnightblue" points="564.305,-374.193 555.755,-380.449 566.34,-380.891 564.305,-374.193"/>
</g>
<!-- Node21 -->
<g id="node21" class="node"><title>Node21</title>
<g id="a_node21"><a xlink:href="classns_sd_d_1_1_c_list.html#a14b55f9a1acefa302eb5df42c7c99c9b" target="_top" xlink:title="Inserts a copy of every element in the range [first;last[ before position. ">
<polygon fill="white" stroke="black" points="304,-419.5 304,-438.5 414,-438.5 414,-419.5 304,-419.5"/>
<text text-anchor="middle" x="359" y="-426.5" font-family="Helvetica,sans-Serif" font-size="10.00">nsSdD::CList::insert</text>
</a>
</g>
</g>
<!-- Node20&#45;&gt;Node21 -->
<g id="edge21" class="edge"><title>Node20&#45;&gt;Node21</title>
<path fill="none" stroke="midnightblue" d="M267.575,-429C279.682,-429 292.234,-429 303.994,-429"/>
<polygon fill="midnightblue" stroke="midnightblue" points="267.537,-425.5 257.537,-429 267.537,-432.5 267.537,-425.5"/>
</g>
<!-- Node27 -->
<g id="node27" class="node"><title>Node27</title>
<g id="a_node27"><a xlink:href="classns_sd_d_1_1_c_list.html#a55df73e3651d4bcd13b671bf5cf7e5eb" target="_top" xlink:title="Swaps the content of two lists. This sort is stable, it means consecutive equal elements keep their o...">
<polygon fill="white" stroke="black" points="466.5,-468.5 466.5,-487.5 567.5,-487.5 567.5,-468.5 466.5,-468.5"/>
<text text-anchor="middle" x="517" y="-475.5" font-family="Helvetica,sans-Serif" font-size="10.00">nsSdD::CList::sort</text>
</a>
</g>
</g>
<!-- Node20&#45;&gt;Node27 -->
<g id="edge30" class="edge"><title>Node20&#45;&gt;Node27</title>
<path fill="none" stroke="midnightblue" d="M261.42,-440.424C275.344,-443.039 290.184,-445.718 304,-448 359.38,-457.148 423.187,-465.942 466.212,-471.616"/>
<polygon fill="midnightblue" stroke="midnightblue" points="261.949,-436.962 251.472,-438.538 260.645,-443.839 261.949,-436.962"/>
</g>
<!-- Node21&#45;&gt;Node2 -->
<g id="edge22" class="edge"><title>Node21&#45;&gt;Node2</title>
<path fill="none" stroke="midnightblue" d="M370.696,-447.275C385.519,-471.005 414.533,-512.088 450,-535 456.009,-538.882 462.827,-541.988 469.745,-544.469"/>
<polygon fill="midnightblue" stroke="midnightblue" points="373.579,-445.279 365.397,-438.548 367.595,-448.912 373.579,-445.279"/>
</g>
<!-- Node21&#45;&gt;Node10 -->
<g id="edge26" class="edge"><title>Node21&#45;&gt;Node10</title>
<path fill="none" stroke="midnightblue" d="M377.543,-445.396C394.787,-460.713 422.454,-483.226 450,-497 457.465,-500.733 465.783,-503.845 473.928,-506.397"/>
<polygon fill="midnightblue" stroke="midnightblue" points="379.722,-442.647 369.962,-438.525 375.021,-447.834 379.722,-442.647"/>
</g>
<!-- Node21&#45;&gt;Node19 -->
<g id="edge27" class="edge"><title>Node21&#45;&gt;Node19</title>
<path fill="none" stroke="midnightblue" d="M407.866,-417.034C430.377,-411.406 456.846,-404.788 477.962,-399.509"/>
<polygon fill="midnightblue" stroke="midnightblue" points="407.014,-413.639 398.162,-419.46 408.712,-420.43 407.014,-413.639"/>
</g>
<!-- Node22 -->
<g id="node22" class="node"><title>Node22</title>
<g id="a_node22"><a xlink:href="classns_sd_d_1_1_c_list.html#a72562c1a0ba029b9f019790afe8a5425" target="_top" xlink:title="nsSdD::CList::push\l_front">
<polygon fill="white" stroke="black" points="464,-419 464,-449 570,-449 570,-419 464,-419"/>
<text text-anchor="start" x="472" y="-437" font-family="Helvetica,sans-Serif" font-size="10.00">nsSdD::CList::push</text>
<text text-anchor="middle" x="517" y="-426" font-family="Helvetica,sans-Serif" font-size="10.00">_front</text>
</a>
</g>
</g>
<!-- Node21&#45;&gt;Node22 -->
<g id="edge23" class="edge"><title>Node21&#45;&gt;Node22</title>
<path fill="none" stroke="midnightblue" d="M424.486,-431.067C437.583,-431.487 451.205,-431.923 463.813,-432.327"/>
<polygon fill="midnightblue" stroke="midnightblue" points="424.23,-427.557 414.123,-430.735 424.006,-434.553 424.23,-427.557"/>
</g>
<!-- Node21&#45;&gt;Node25 -->
<g id="edge28" class="edge"><title>Node21&#45;&gt;Node25</title>
<path fill="none" stroke="midnightblue" d="M380.801,-413.082C398.423,-400.229 424.779,-382.457 450,-371 458.142,-367.301 467.178,-364.139 475.886,-361.517"/>
<polygon fill="midnightblue" stroke="midnightblue" points="378.375,-410.524 372.433,-419.295 382.549,-416.144 378.375,-410.524"/>
</g>
<!-- Node21&#45;&gt;Node26 -->
<g id="edge29" class="edge"><title>Node21&#45;&gt;Node26</title>
<path fill="none" stroke="midnightblue" d="M372.258,-410.877C387.84,-389.213 416.748,-353.34 450,-333 464.24,-324.289 482.644,-319.424 496.399,-316.802"/>
<polygon fill="midnightblue" stroke="midnightblue" points="369.294,-409.007 366.422,-419.205 375.027,-413.024 369.294,-409.007"/>
</g>
<!-- Node23 -->
<g id="node23" class="node"><title>Node23</title>
<g id="a_node23"><a xlink:href="src_2main_8cpp.html#ae66f6b31b5ad750f1fe042a706a4e3d4" target="_top" xlink:title="main">
<polygon fill="white" stroke="black" points="665.5,-389.5 665.5,-408.5 706.5,-408.5 706.5,-389.5 665.5,-389.5"/>
<text text-anchor="middle" x="686" y="-396.5" font-family="Helvetica,sans-Serif" font-size="10.00">main</text>
</a>
</g>
</g>
<!-- Node22&#45;&gt;Node23 -->
<g id="edge24" class="edge"><title>Node22&#45;&gt;Node23</title>
<path fill="none" stroke="midnightblue" d="M580.433,-420.915C610.587,-414.596 644.662,-407.454 665.487,-403.09"/>
<polygon fill="midnightblue" stroke="midnightblue" points="579.451,-417.545 570.382,-423.022 580.887,-424.396 579.451,-417.545"/>
</g>
<!-- Node24 -->
<g id="node24" class="node"><title>Node24</title>
<g id="a_node24"><a xlink:href="test_2main_8cpp.html#adbbafc21068a029870c5e9619a10bf21" target="_top" xlink:title="TEST">
<polygon fill="white" stroke="black" points="665.5,-427.5 665.5,-446.5 706.5,-446.5 706.5,-427.5 665.5,-427.5"/>
<text text-anchor="middle" x="686" y="-434.5" font-family="Helvetica,sans-Serif" font-size="10.00">TEST</text>
</a>
</g>
</g>
<!-- Node22&#45;&gt;Node24 -->
<g id="edge25" class="edge"><title>Node22&#45;&gt;Node24</title>
<path fill="none" stroke="midnightblue" d="M580.433,-435.122C610.587,-435.663 644.662,-436.275 665.487,-436.649"/>
<polygon fill="midnightblue" stroke="midnightblue" points="580.443,-431.621 570.382,-434.941 580.317,-438.62 580.443,-431.621"/>
</g>
<!-- Node27&#45;&gt;Node12 -->
<g id="edge31" class="edge"><title>Node27&#45;&gt;Node12</title>
<path fill="none" stroke="midnightblue" d="M577.845,-478C608.499,-478 643.789,-478 665.236,-478"/>
<polygon fill="midnightblue" stroke="midnightblue" points="577.653,-474.5 567.653,-478 577.653,-481.5 577.653,-474.5"/>
</g>
</g>
</svg>
        <g id="navigator" transform="translate(0 0)" fill="#404254">
                <rect fill="#f2f5e9" fill-opacity="0.5" stroke="#606060" stroke-width=".5" x="0" y="0" width="60" height="60"/>
                <use id="zoomplus" xlink:href="#zoomPlus" x="17" y="9" onmousedown="handleZoom(evt,'in')"/>
                <use id="zoomminus" xlink:href="#zoomMin" x="42" y="9" onmousedown="handleZoom(evt,'out')"/>
                <use id="reset" xlink:href="#resetDef" x="30" y="36" onmousedown="handleReset()"/>
                <g id="arrowUp" xlink:href="#dirArrow" transform="translate(30 24)" onmousedown="handlePan(0,-1)">
                  <use xlink:href="#rim" fill="#404040">
                        <set attributeName="fill" to="#808080" begin="arrowUp.mouseover" end="arrowUp.mouseout"/>
                  </use>
                  <path fill="none" stroke="white" stroke-width="1.5" d="M0,-3.0v7 M-2.5,-0.5L0,-3.0L2.5,-0.5"/>
                </g>
                <g id="arrowRight" xlink:href="#dirArrow" transform="rotate(90) translate(36 -43)" onmousedown="handlePan(1,0)">
                  <use xlink:href="#rim" fill="#404040">
                        <set attributeName="fill" to="#808080" begin="arrowRight.mouseover" end="arrowRight.mouseout"/>
                  </use>
                  <path fill="none" stroke="white" stroke-width="1.5" d="M0,-3.0v7 M-2.5,-0.5L0,-3.0L2.5,-0.5"/>
                </g>
                <g id="arrowDown" xlink:href="#dirArrow" transform="rotate(180) translate(-30 -48)" onmousedown="handlePan(0,1)">
                  <use xlink:href="#rim" fill="#404040">
                        <set attributeName="fill" to="#808080" begin="arrowDown.mouseover" end="arrowDown.mouseout"/>
                  </use>
                  <path fill="none" stroke="white" stroke-width="1.5" d="M0,-3.0v7 M-2.5,-0.5L0,-3.0L2.5,-0.5"/>
                </g>
                <g id="arrowLeft" xlink:href="#dirArrow" transform="rotate(270) translate(-36 17)" onmousedown="handlePan(-1,0)">
                  <use xlink:href="#rim" fill="#404040">
                        <set attributeName="fill" to="#808080" begin="arrowLeft.mouseover" end="arrowLeft.mouseout"/>
                  </use>
                  <path fill="none" stroke="white" stroke-width="1.5" d="M0,-3.0v7 M-2.5,-0.5L0,-3.0L2.5,-0.5"/>
                </g>
        </g>
        <svg viewBox="0 0 15 15" width="100%" height="30px" preserveAspectRatio="xMaxYMin meet">
         <g id="arrow_out" transform="scale(0.3 0.3)">
          <a xlink:href="classns_sd_d_1_1_c_list_a9d67e4a55aac8ccd2b7cd8fd3939a176_icgraph_org.svg" target="_base">
           <rect id="button" ry="5" rx="5" y="6" x="6" height="38" width="38"
                fill="#f2f5e9" fill-opacity="0.5" stroke="#606060" stroke-width="1.0"/>
           <path id="arrow"
             d="M 11.500037,31.436501 C 11.940474,20.09759 22.043105,11.32322 32.158766,21.979434 L 37.068811,17.246167 C 37.068811,17.246167 37.088388,32 37.088388,32 L 22.160133,31.978069 C 22.160133,31.978069 26.997745,27.140456 26.997745,27.140456 C 18.528582,18.264221 13.291696,25.230495 11.500037,31.436501 z"
             style="fill:#404040;"/>
          </a>
         </g>
        </svg>
</svg>
