<?xml version="1.0" encoding="UTF-8" standalone="no"?>
<!DOCTYPE svg PUBLIC "-//W3C//DTD SVG 1.1//EN"
 "http://www.w3.org/Graphics/SVG/1.1/DTD/svg11.dtd">
<!-- Generated by graphviz version 2.38.0 (20140413.2041)
 -->
<!-- Title: nsSdD::CList::swap Pages: 1 -->
<svg width="408pt" height="47pt"
 viewBox="0.00 0.00 408.00 47.00" xmlns="http://www.w3.org/2000/svg" xmlns:xlink="http://www.w3.org/1999/xlink">
<g id="graph0" class="graph" transform="scale(1 1) rotate(0) translate(4 43)">
<title>nsSdD::CList::swap</title>
<polygon fill="white" stroke="none" points="-4,4 -4,-43 404,-43 404,4 -4,4"/>
<!-- Node1 -->
<g id="node1" class="node"><title>Node1</title>
<polygon fill="#bfbfbf" stroke="black" points="0,-0.5 0,-19.5 108,-19.5 108,-0.5 0,-0.5"/>
<text text-anchor="middle" x="54" y="-7.5" font-family="Helvetica,sans-Serif" font-size="10.00">nsSdD::CList::swap</text>
</g>
<!-- Node2 -->
<g id="node2" class="node"><title>Node2</title>
<g id="a_node2"><a xlink:href="classns_sd_d_1_1_c_base_node.html#aa988b77c9d11ded6ac33e0450616dceb" target="_top" xlink:title="Swaps two nodes, that could be in differents lists. ">
<polygon fill="white" stroke="black" points="144,-19.5 144,-38.5 285,-38.5 285,-19.5 144,-19.5"/>
<text text-anchor="middle" x="214.5" y="-26.5" font-family="Helvetica,sans-Serif" font-size="10.00">nsSdD::CBaseNode::swap</text>
</a>
</g>
</g>
<!-- Node1&#45;&gt;Node2 -->
<g id="edge1" class="edge"><title>Node1&#45;&gt;Node2</title>
<path fill="none" stroke="midnightblue" d="M108.219,-16.3796C116.428,-17.3637 125.057,-18.398 133.694,-19.4334"/>
<polygon fill="midnightblue" stroke="midnightblue" points="133.467,-22.9312 143.813,-20.6463 134.301,-15.9809 133.467,-22.9312"/>
</g>
<!-- Node3 -->
<g id="node3" class="node"><title>Node3</title>
<g id="a_node3"><a xlink:href="namespacens_sd_d.html#a5e97bcc4eb3c219b6b25ce9a669c2905" target="_top" xlink:title="Swaps the content of two lists. ">
<polygon fill="white" stroke="black" points="321,-0.5 321,-19.5 400,-19.5 400,-0.5 321,-0.5"/>
<text text-anchor="middle" x="360.5" y="-7.5" font-family="Helvetica,sans-Serif" font-size="10.00">nsSdD::swap</text>
</a>
</g>
</g>
<!-- Node2&#45;&gt;Node3 -->
<g id="edge2" class="edge"><title>Node2&#45;&gt;Node3</title>
<path fill="none" stroke="midnightblue" d="M285.391,-19.7783C293.956,-18.6481 302.562,-17.5127 310.721,-16.4361"/>
<polygon fill="midnightblue" stroke="midnightblue" points="311.326,-19.8868 320.782,-15.1086 310.41,-12.9469 311.326,-19.8868"/>
</g>
<!-- Node3&#45;&gt;Node1 -->
<g id="edge3" class="edge"><title>Node3&#45;&gt;Node1</title>
<path fill="none" stroke="midnightblue" d="M320.587,-10C269.529,-10 179.274,-10 118.313,-10"/>
<polygon fill="midnightblue" stroke="midnightblue" points="118.04,-6.5001 108.04,-10 118.04,-13.5001 118.04,-6.5001"/>
</g>
</g>
</svg>
