<?xml version="1.0" encoding="UTF-8" standalone="no"?>
<!DOCTYPE svg PUBLIC "-//W3C//DTD SVG 1.1//EN"
 "http://www.w3.org/Graphics/SVG/1.1/DTD/svg11.dtd">
<!-- Generated by graphviz version 2.38.0 (20140413.2041)
 -->
<!-- Title: nsSdD::CList::push_front Pages: 1 -->
<svg width="551pt" height="91pt"
 viewBox="0.00 0.00 551.00 90.50" xmlns="http://www.w3.org/2000/svg" xmlns:xlink="http://www.w3.org/1999/xlink">
<g id="graph0" class="graph" transform="scale(1 1) rotate(0) translate(4 86.5)">
<title>nsSdD::CList::push_front</title>
<polygon fill="white" stroke="none" points="-4,4 -4,-86.5 547,-86.5 547,4 -4,4"/>
<!-- Node1 -->
<g id="node1" class="node"><title>Node1</title>
<polygon fill="#bfbfbf" stroke="black" points="0,-0.5 0,-30.5 106,-30.5 106,-0.5 0,-0.5"/>
<text text-anchor="start" x="8" y="-18.5" font-family="Helvetica,sans-Serif" font-size="10.00">nsSdD::CList::push</text>
<text text-anchor="middle" x="53" y="-7.5" font-family="Helvetica,sans-Serif" font-size="10.00">_front</text>
</g>
<!-- Node2 -->
<g id="node2" class="node"><title>Node2</title>
<g id="a_node2"><a xlink:href="classns_sd_d_1_1_c_list.html#a14b55f9a1acefa302eb5df42c7c99c9b" target="_top" xlink:title="Inserts a copy of every element in the range [first;last[ before position. ">
<polygon fill="white" stroke="black" points="142,-25 142,-44 252,-44 252,-25 142,-25"/>
<text text-anchor="middle" x="197" y="-32" font-family="Helvetica,sans-Serif" font-size="10.00">nsSdD::CList::insert</text>
</a>
</g>
</g>
<!-- Node1&#45;&gt;Node2 -->
<g id="edge1" class="edge"><title>Node1&#45;&gt;Node2</title>
<path fill="none" stroke="midnightblue" d="M106.069,-22.467C114.375,-23.5784 123.055,-24.7397 131.605,-25.8837"/>
<polygon fill="midnightblue" stroke="midnightblue" points="131.177,-29.3576 141.553,-27.2148 132.105,-22.4194 131.177,-29.3576"/>
</g>
<!-- Node3 -->
<g id="node3" class="node"><title>Node3</title>
<g id="a_node3"><a xlink:href="classns_sd_d_1_1_c_list.html#af41da388e9983741e7a559f1b6a0ae01" target="_top" xlink:title="Returns an iterator to the first element. ">
<polygon fill="white" stroke="black" points="434,-25 434,-44 543,-44 543,-25 434,-25"/>
<text text-anchor="middle" x="488.5" y="-32" font-family="Helvetica,sans-Serif" font-size="10.00">nsSdD::CList::begin</text>
</a>
</g>
</g>
<!-- Node1&#45;&gt;Node3 -->
<g id="edge6" class="edge"><title>Node1&#45;&gt;Node3</title>
<path fill="none" stroke="midnightblue" d="M106.133,-14.3562C146.074,-13.757 202.54,-13.508 252,-15.5 310.23,-17.8452 376.361,-23.4394 423.689,-27.954"/>
<polygon fill="midnightblue" stroke="midnightblue" points="423.503,-31.4522 433.793,-28.9286 424.176,-24.4845 423.503,-31.4522"/>
</g>
<!-- Node2&#45;&gt;Node3 -->
<g id="edge2" class="edge"><title>Node2&#45;&gt;Node3</title>
<path fill="none" stroke="midnightblue" d="M252.113,-34.5C300.75,-34.5 372.23,-34.5 423.649,-34.5"/>
<polygon fill="midnightblue" stroke="midnightblue" points="423.652,-38.0001 433.652,-34.5 423.652,-31.0001 423.652,-38.0001"/>
</g>
<!-- Node4 -->
<g id="node4" class="node"><title>Node4</title>
<g id="a_node4"><a xlink:href="classns_sd_d_1_1_c_list.html#aa8b0bd58b9cb6a6463b6e22341e87ea7" target="_top" xlink:title="Move the content of a list before an element in another Moves the content of x before the element poi...">
<polygon fill="white" stroke="black" points="288,-63 288,-82 398,-82 398,-63 288,-63"/>
<text text-anchor="middle" x="343" y="-70" font-family="Helvetica,sans-Serif" font-size="10.00">nsSdD::CList::splice</text>
</a>
</g>
</g>
<!-- Node2&#45;&gt;Node4 -->
<g id="edge3" class="edge"><title>Node2&#45;&gt;Node4</title>
<path fill="none" stroke="midnightblue" d="M234.337,-44.089C253.083,-49.0358 276.143,-55.1211 296.107,-60.3892"/>
<polygon fill="midnightblue" stroke="midnightblue" points="295.362,-63.8125 305.924,-62.9799 297.148,-57.0442 295.362,-63.8125"/>
</g>
<!-- Node4&#45;&gt;Node3 -->
<g id="edge4" class="edge"><title>Node4&#45;&gt;Node3</title>
<path fill="none" stroke="midnightblue" d="M380.211,-62.911C398.821,-57.9831 421.697,-51.9251 441.539,-46.6709"/>
<polygon fill="midnightblue" stroke="midnightblue" points="442.53,-50.0292 451.3,-44.0859 440.738,-43.2625 442.53,-50.0292"/>
</g>
<!-- Node5 -->
<g id="node5" class="node"><title>Node5</title>
<g id="a_node5"><a xlink:href="classns_sd_d_1_1_c_list.html#a9d67e4a55aac8ccd2b7cd8fd3939a176" target="_top" xlink:title="Returns an iterator pointing after the last element. ">
<polygon fill="white" stroke="black" points="438,-63 438,-82 539,-82 539,-63 438,-63"/>
<text text-anchor="middle" x="488.5" y="-70" font-family="Helvetica,sans-Serif" font-size="10.00">nsSdD::CList::end</text>
</a>
</g>
</g>
<!-- Node4&#45;&gt;Node5 -->
<g id="edge5" class="edge"><title>Node4&#45;&gt;Node5</title>
<path fill="none" stroke="midnightblue" d="M398.251,-72.5C407.912,-72.5 418.023,-72.5 427.825,-72.5"/>
<polygon fill="midnightblue" stroke="midnightblue" points="427.896,-76.0001 437.896,-72.5 427.896,-69.0001 427.896,-76.0001"/>
</g>
</g>
</svg>
