<?xml version="1.0" encoding="UTF-8" standalone="no"?>
<!DOCTYPE svg PUBLIC "-//W3C//DTD SVG 1.1//EN"
 "http://www.w3.org/Graphics/SVG/1.1/DTD/svg11.dtd">
<!-- Generated by graphviz version 2.38.0 (20140413.2041)
 -->
<!-- Title: nsSdD::CList::empty Pages: 1 -->
<svg width="354pt" height="142pt"
 viewBox="0.00 0.00 354.00 142.00" xmlns="http://www.w3.org/2000/svg" xmlns:xlink="http://www.w3.org/1999/xlink">
<g id="graph0" class="graph" transform="scale(1 1) rotate(0) translate(4 138)">
<title>nsSdD::CList::empty</title>
<polygon fill="white" stroke="none" points="-4,4 -4,-138 350,-138 350,4 -4,4"/>
<!-- Node1 -->
<g id="node1" class="node"><title>Node1</title>
<polygon fill="#bfbfbf" stroke="black" points="0,-57.5 0,-76.5 114,-76.5 114,-57.5 0,-57.5"/>
<text text-anchor="middle" x="57" y="-64.5" font-family="Helvetica,sans-Serif" font-size="10.00">nsSdD::CList::empty</text>
</g>
<!-- Node2 -->
<g id="node2" class="node"><title>Node2</title>
<g id="a_node2"><a xlink:href="classns_sd_d_1_1_c_list.html#a3d320af3b5706fdcd52a350fe3b71dde" target="_top" xlink:title="Remove duplicated consecutive elements. ">
<polygon fill="white" stroke="black" points="152,-114.5 152,-133.5 267,-133.5 267,-114.5 152,-114.5"/>
<text text-anchor="middle" x="209.5" y="-121.5" font-family="Helvetica,sans-Serif" font-size="10.00">nsSdD::CList::unique</text>
</a>
</g>
</g>
<!-- Node1&#45;&gt;Node2 -->
<g id="edge1" class="edge"><title>Node1&#45;&gt;Node2</title>
<path fill="none" stroke="midnightblue" d="M89.0344,-80.5231C106.759,-88.0687 129.476,-97.4414 150,-105 158.918,-108.284 168.706,-111.582 177.681,-114.486"/>
<polygon fill="midnightblue" stroke="midnightblue" points="90.3165,-77.2647 79.7463,-76.5422 87.5588,-83.6987 90.3165,-77.2647"/>
</g>
<!-- Node4 -->
<g id="node4" class="node"><title>Node4</title>
<g id="a_node4"><a xlink:href="classns_sd_d_1_1_c_list.html#af0ff3280e71844768357a3373b38e3cf" target="_top" xlink:title="Reverse the order of elements in a list. ">
<polygon fill="white" stroke="black" points="150,-76.5 150,-95.5 269,-95.5 269,-76.5 150,-76.5"/>
<text text-anchor="middle" x="209.5" y="-83.5" font-family="Helvetica,sans-Serif" font-size="10.00">nsSdD::CList::reverse</text>
</a>
</g>
</g>
<!-- Node1&#45;&gt;Node4 -->
<g id="edge3" class="edge"><title>Node1&#45;&gt;Node4</title>
<path fill="none" stroke="midnightblue" d="M124.043,-75.3376C132.65,-76.4243 141.421,-77.5316 149.895,-78.6014"/>
<polygon fill="midnightblue" stroke="midnightblue" points="124.4,-71.8551 114.041,-74.0749 123.523,-78.7999 124.4,-71.8551"/>
</g>
<!-- Node6 -->
<g id="node6" class="node"><title>Node6</title>
<g id="a_node6"><a xlink:href="classns_sd_d_1_1_c_list.html#a55df73e3651d4bcd13b671bf5cf7e5eb" target="_top" xlink:title="Swaps the content of two lists. This sort is stable, it means consecutive equal elements keep their o...">
<polygon fill="white" stroke="black" points="159,-38.5 159,-57.5 260,-57.5 260,-38.5 159,-38.5"/>
<text text-anchor="middle" x="209.5" y="-45.5" font-family="Helvetica,sans-Serif" font-size="10.00">nsSdD::CList::sort</text>
</a>
</g>
</g>
<!-- Node1&#45;&gt;Node6 -->
<g id="edge5" class="edge"><title>Node1&#45;&gt;Node6</title>
<path fill="none" stroke="midnightblue" d="M124.171,-58.6462C135.818,-57.1759 147.758,-55.6684 158.856,-54.2674"/>
<polygon fill="midnightblue" stroke="midnightblue" points="123.523,-55.2001 114.041,-59.9251 124.4,-62.1449 123.523,-55.2001"/>
</g>
<!-- Node8 -->
<g id="node8" class="node"><title>Node8</title>
<g id="a_node8"><a xlink:href="test_2main_8cpp.html#aa45dbd0e50d6e07f9bd50841b34af13d" target="_top" xlink:title="TEST">
<polygon fill="white" stroke="black" points="189,-0.5 189,-19.5 230,-19.5 230,-0.5 189,-0.5"/>
<text text-anchor="middle" x="209.5" y="-7.5" font-family="Helvetica,sans-Serif" font-size="10.00">TEST</text>
</a>
</g>
</g>
<!-- Node1&#45;&gt;Node8 -->
<g id="edge7" class="edge"><title>Node1&#45;&gt;Node8</title>
<path fill="none" stroke="midnightblue" d="M89.0344,-53.4769C106.759,-45.9313 129.476,-36.5586 150,-29 162.826,-24.2763 177.451,-19.5263 188.87,-15.9572"/>
<polygon fill="midnightblue" stroke="midnightblue" points="87.5588,-50.3013 79.7463,-57.4578 90.3165,-56.7353 87.5588,-50.3013"/>
</g>
<!-- Node3 -->
<g id="node3" class="node"><title>Node3</title>
<g id="a_node3"><a xlink:href="test_2main_8cpp.html#a4507235c78fce25dde5282f27b610d3b" target="_top" xlink:title="TEST">
<polygon fill="white" stroke="black" points="305,-114.5 305,-133.5 346,-133.5 346,-114.5 305,-114.5"/>
<text text-anchor="middle" x="325.5" y="-121.5" font-family="Helvetica,sans-Serif" font-size="10.00">TEST</text>
</a>
</g>
</g>
<!-- Node2&#45;&gt;Node3 -->
<g id="edge2" class="edge"><title>Node2&#45;&gt;Node3</title>
<path fill="none" stroke="midnightblue" d="M277.265,-124C287.274,-124 296.869,-124 304.766,-124"/>
<polygon fill="midnightblue" stroke="midnightblue" points="277.166,-120.5 267.166,-124 277.166,-127.5 277.166,-120.5"/>
</g>
<!-- Node5 -->
<g id="node5" class="node"><title>Node5</title>
<g id="a_node5"><a xlink:href="test_2main_8cpp.html#aff8eaabe5f0e1e3fc8a1e9845bc99743" target="_top" xlink:title="TEST">
<polygon fill="white" stroke="black" points="305,-76.5 305,-95.5 346,-95.5 346,-76.5 305,-76.5"/>
<text text-anchor="middle" x="325.5" y="-83.5" font-family="Helvetica,sans-Serif" font-size="10.00">TEST</text>
</a>
</g>
</g>
<!-- Node4&#45;&gt;Node5 -->
<g id="edge4" class="edge"><title>Node4&#45;&gt;Node5</title>
<path fill="none" stroke="midnightblue" d="M279.356,-86C288.631,-86 297.467,-86 304.824,-86"/>
<polygon fill="midnightblue" stroke="midnightblue" points="279.17,-82.5001 269.17,-86 279.17,-89.5001 279.17,-82.5001"/>
</g>
<!-- Node7 -->
<g id="node7" class="node"><title>Node7</title>
<g id="a_node7"><a xlink:href="test_2main_8cpp.html#aed75b3aafd0856fd8d1c9050617a8696" target="_top" xlink:title="TEST">
<polygon fill="white" stroke="black" points="305,-38.5 305,-57.5 346,-57.5 346,-38.5 305,-38.5"/>
<text text-anchor="middle" x="325.5" y="-45.5" font-family="Helvetica,sans-Serif" font-size="10.00">TEST</text>
</a>
</g>
</g>
<!-- Node6&#45;&gt;Node7 -->
<g id="edge6" class="edge"><title>Node6&#45;&gt;Node7</title>
<path fill="none" stroke="midnightblue" d="M270.25,-48C282.829,-48 295.229,-48 304.992,-48"/>
<polygon fill="midnightblue" stroke="midnightblue" points="270.17,-44.5001 260.17,-48 270.17,-51.5001 270.17,-44.5001"/>
</g>
</g>
</svg>
