<?xml version="1.0" encoding="UTF-8" standalone="no"?>
<!DOCTYPE svg PUBLIC "-//W3C//DTD SVG 1.1//EN"
 "http://www.w3.org/Graphics/SVG/1.1/DTD/svg11.dtd">
<!-- Generated by graphviz version 2.38.0 (20140413.2041)
 -->
<!-- Title: nsSdD::CNode&lt; T &gt; Pages: 1 -->
<svg width="233pt" height="97pt"
 viewBox="0.00 0.00 233.00 97.00" xmlns="http://www.w3.org/2000/svg" xmlns:xlink="http://www.w3.org/1999/xlink">
<g id="graph0" class="graph" transform="scale(1 1) rotate(0) translate(4 93)">
<title>nsSdD::CNode&lt; T &gt;</title>
<polygon fill="white" stroke="none" points="-4,4 -4,-93 229,-93 229,4 -4,4"/>
<!-- Node1 -->
<g id="node1" class="node"><title>Node1</title>
<polygon fill="#bfbfbf" stroke="black" points="107,-0.5 107,-19.5 221,-19.5 221,-0.5 107,-0.5"/>
<text text-anchor="middle" x="164" y="-7.5" font-family="Helvetica,sans-Serif" font-size="10.00">nsSdD::CNode&lt; T &gt;</text>
</g>
<!-- Node2 -->
<g id="node2" class="node"><title>Node2</title>
<g id="a_node2"><a xlink:href="classns_sd_d_1_1_c_base_node.html" target="_top" xlink:title="Doubly&#45;linked node in a circular list. ">
<polygon fill="white" stroke="black" points="0,-68.5 0,-87.5 110,-87.5 110,-68.5 0,-68.5"/>
<text text-anchor="middle" x="55" y="-75.5" font-family="Helvetica,sans-Serif" font-size="10.00">nsSdD::CBaseNode</text>
</a>
</g>
</g>
<!-- Node2&#45;&gt;Node1 -->
<g id="edge1" class="edge"><title>Node2&#45;&gt;Node1</title>
<path fill="none" stroke="midnightblue" d="M77.8495,-63.1646C99.5399,-50.0309 131.466,-30.6993 149.747,-19.6305"/>
<polygon fill="midnightblue" stroke="midnightblue" points="75.9911,-60.1981 69.2498,-68.3717 79.6168,-66.186 75.9911,-60.1981"/>
</g>
<!-- Node2&#45;&gt;Node2 -->
<g id="edge2" class="edge"><title>Node2&#45;&gt;Node2</title>
<path fill="none" stroke="#9a32cd" stroke-dasharray="5,2" d="M120.001,-82.7844C124.952,-81.7219 128,-80.1271 128,-78 128,-74.6797 120.574,-72.6564 110.073,-71.9301"/>
<polygon fill="#9a32cd" stroke="#9a32cd" points="119.541,-79.3146 110.073,-84.0699 120.44,-86.2567 119.541,-79.3146"/>
<text text-anchor="middle" x="148" y="-81" font-family="Helvetica,sans-Serif" font-size="10.00"> m_prev</text>
<text text-anchor="middle" x="148" y="-70" font-family="Helvetica,sans-Serif" font-size="10.00">m_next</text>
</g>
<!-- Node3 -->
<g id="node3" class="node"><title>Node3</title>
<polygon fill="white" stroke="#bfbfbf" points="186.5,-68.5 186.5,-87.5 215.5,-87.5 215.5,-68.5 186.5,-68.5"/>
<text text-anchor="middle" x="201" y="-75.5" font-family="Helvetica,sans-Serif" font-size="10.00">T</text>
</g>
<!-- Node3&#45;&gt;Node1 -->
<g id="edge3" class="edge"><title>Node3&#45;&gt;Node1</title>
<path fill="none" stroke="#9a32cd" stroke-dasharray="5,2" d="M191.225,-59.563C184.059,-46.7815 174.629,-29.9599 168.956,-19.8411"/>
<polygon fill="#9a32cd" stroke="#9a32cd" points="188.22,-61.3604 196.163,-68.3717 194.326,-57.9373 188.22,-61.3604"/>
<text text-anchor="middle" x="205" y="-41" font-family="Helvetica,sans-Serif" font-size="10.00"> m_data</text>
</g>
</g>
</svg>
