<?xml version="1.0" encoding="UTF-8" standalone="no"?>
<!DOCTYPE svg PUBLIC "-//W3C//DTD SVG 1.1//EN"
 "http://www.w3.org/Graphics/SVG/1.1/DTD/svg11.dtd">
<!-- Generated by graphviz version 2.38.0 (20140413.2041)
 -->
<!-- Title: nsSdD::CBaseNode::swap Pages: 1 -->
<svg width="618pt" height="66pt"
 viewBox="0.00 0.00 618.00 66.00" xmlns="http://www.w3.org/2000/svg" xmlns:xlink="http://www.w3.org/1999/xlink">
<g id="graph0" class="graph" transform="scale(1 1) rotate(0) translate(4 62)">
<title>nsSdD::CBaseNode::swap</title>
<polygon fill="white" stroke="none" points="-4,4 -4,-62 614,-62 614,4 -4,4"/>
<!-- Node1 -->
<g id="node1" class="node"><title>Node1</title>
<polygon fill="#bfbfbf" stroke="black" points="0,-19.5 0,-38.5 141,-38.5 141,-19.5 0,-19.5"/>
<text text-anchor="middle" x="70.5" y="-26.5" font-family="Helvetica,sans-Serif" font-size="10.00">nsSdD::CBaseNode::swap</text>
</g>
<!-- Node2 -->
<g id="node2" class="node"><title>Node2</title>
<g id="a_node2"><a xlink:href="classns_sd_d_1_1_c_list.html#a46b0ba608257cee1897c1ca772eeacd3" target="_top" xlink:title="Swaps the content of two lists. ">
<polygon fill="white" stroke="black" points="177,-38.5 177,-57.5 285,-57.5 285,-38.5 177,-38.5"/>
<text text-anchor="middle" x="231" y="-45.5" font-family="Helvetica,sans-Serif" font-size="10.00">nsSdD::CList::swap</text>
</a>
</g>
</g>
<!-- Node1&#45;&gt;Node2 -->
<g id="edge1" class="edge"><title>Node1&#45;&gt;Node2</title>
<path fill="none" stroke="midnightblue" d="M151.173,-38.5507C159.84,-39.5897 168.501,-40.6278 176.739,-41.6155"/>
<polygon fill="midnightblue" stroke="midnightblue" points="151.366,-35.0489 141.02,-37.3337 150.533,-41.9991 151.366,-35.0489"/>
</g>
<!-- Node3 -->
<g id="node3" class="node"><title>Node3</title>
<g id="a_node3"><a xlink:href="classns_sd_d_1_1_c_list.html#a55df73e3651d4bcd13b671bf5cf7e5eb" target="_top" xlink:title="Swaps the content of two lists. This sort is stable, it means consecutive equal elements keep their o...">
<polygon fill="white" stroke="black" points="321,-38.5 321,-57.5 422,-57.5 422,-38.5 321,-38.5"/>
<text text-anchor="middle" x="371.5" y="-45.5" font-family="Helvetica,sans-Serif" font-size="10.00">nsSdD::CList::sort</text>
</a>
</g>
</g>
<!-- Node2&#45;&gt;Node3 -->
<g id="edge2" class="edge"><title>Node2&#45;&gt;Node3</title>
<path fill="none" stroke="midnightblue" d="M295.187,-48C303.812,-48 312.564,-48 320.902,-48"/>
<polygon fill="midnightblue" stroke="midnightblue" points="295.152,-44.5001 285.152,-48 295.152,-51.5001 295.152,-44.5001"/>
</g>
<!-- Node5 -->
<g id="node5" class="node"><title>Node5</title>
<g id="a_node5"><a xlink:href="namespacens_sd_d.html#a5e97bcc4eb3c219b6b25ce9a669c2905" target="_top" xlink:title="Swaps the content of two lists. ">
<polygon fill="white" stroke="black" points="332,-0.5 332,-19.5 411,-19.5 411,-0.5 332,-0.5"/>
<text text-anchor="middle" x="371.5" y="-7.5" font-family="Helvetica,sans-Serif" font-size="10.00">nsSdD::swap</text>
</a>
</g>
</g>
<!-- Node2&#45;&gt;Node5 -->
<g id="edge4" class="edge"><title>Node2&#45;&gt;Node5</title>
<path fill="none" stroke="midnightblue" d="M276.634,-35.7538C295.725,-30.516 317.684,-24.4909 335.562,-19.5859"/>
<polygon fill="midnightblue" stroke="midnightblue" points="275.667,-32.3898 266.949,-38.411 277.519,-39.1403 275.667,-32.3898"/>
</g>
<!-- Node4 -->
<g id="node4" class="node"><title>Node4</title>
<g id="a_node4"><a xlink:href="test_2main_8cpp.html#aed75b3aafd0856fd8d1c9050617a8696" target="_top" xlink:title="TEST">
<polygon fill="white" stroke="black" points="513.5,-38.5 513.5,-57.5 554.5,-57.5 554.5,-38.5 513.5,-38.5"/>
<text text-anchor="middle" x="534" y="-45.5" font-family="Helvetica,sans-Serif" font-size="10.00">TEST</text>
</a>
</g>
</g>
<!-- Node3&#45;&gt;Node4 -->
<g id="edge3" class="edge"><title>Node3&#45;&gt;Node4</title>
<path fill="none" stroke="midnightblue" d="M432.709,-48C461.204,-48 493.299,-48 513.337,-48"/>
<polygon fill="midnightblue" stroke="midnightblue" points="432.403,-44.5001 422.403,-48 432.403,-51.5001 432.403,-44.5001"/>
</g>
<!-- Node5&#45;&gt;Node1 -->
<g id="edge6" class="edge"><title>Node5&#45;&gt;Node1</title>
<path fill="none" stroke="midnightblue" d="M321.783,-13.0958C272.748,-16.2117 196.644,-21.0477 141.225,-24.5693"/>
<polygon fill="midnightblue" stroke="midnightblue" points="322.06,-16.5853 331.818,-12.4581 321.616,-9.59937 322.06,-16.5853"/>
</g>
<!-- Node6 -->
<g id="node6" class="node"><title>Node6</title>
<g id="a_node6"><a xlink:href="classns_sd_d_1_1_c_base_node.html#a0656434b7fb2980ab261d51ac4b7741d" target="_top" xlink:title="Reverse the order of the elements in a list. ">
<polygon fill="white" stroke="black" points="458,-0.5 458,-19.5 610,-19.5 610,-0.5 458,-0.5"/>
<text text-anchor="middle" x="534" y="-7.5" font-family="Helvetica,sans-Serif" font-size="10.00">nsSdD::CBaseNode::reverse</text>
</a>
</g>
</g>
<!-- Node5&#45;&gt;Node6 -->
<g id="edge5" class="edge"><title>Node5&#45;&gt;Node6</title>
<path fill="none" stroke="midnightblue" d="M421.551,-10C433,-10 445.452,-10 457.747,-10"/>
<polygon fill="midnightblue" stroke="midnightblue" points="421.353,-6.5001 411.353,-10 421.353,-13.5001 421.353,-6.5001"/>
</g>
</g>
</svg>
