<?xml version="1.0" encoding="UTF-8" standalone="no"?>
<!DOCTYPE svg PUBLIC "-//W3C//DTD SVG 1.1//EN"
 "http://www.w3.org/Graphics/SVG/1.1/DTD/svg11.dtd">
<!-- Generated by graphviz version 2.38.0 (20140413.2041)
 -->
<!-- Title: nsSdD::CList::resize Pages: 1 -->
<svg width="556pt" height="108pt"
 viewBox="0.00 0.00 556.00 107.91" xmlns="http://www.w3.org/2000/svg" xmlns:xlink="http://www.w3.org/1999/xlink">
<g id="graph0" class="graph" transform="scale(1 1) rotate(0) translate(4 103.91)">
<title>nsSdD::CList::resize</title>
<polygon fill="white" stroke="none" points="-4,4 -4,-103.91 552,-103.91 552,4 -4,4"/>
<!-- Node1 -->
<g id="node1" class="node"><title>Node1</title>
<polygon fill="#bfbfbf" stroke="black" points="0,-42.032 0,-61.032 111,-61.032 111,-42.032 0,-42.032"/>
<text text-anchor="middle" x="55.5" y="-49.032" font-family="Helvetica,sans-Serif" font-size="10.00">nsSdD::CList::resize</text>
</g>
<!-- Node2 -->
<g id="node2" class="node"><title>Node2</title>
<g id="a_node2"><a xlink:href="classns_sd_d_1_1_c_list.html#af41da388e9983741e7a559f1b6a0ae01" target="_top" xlink:title="Returns an iterator to the first element. ">
<polygon fill="white" stroke="black" points="439,-61.032 439,-80.032 548,-80.032 548,-61.032 439,-61.032"/>
<text text-anchor="middle" x="493.5" y="-68.032" font-family="Helvetica,sans-Serif" font-size="10.00">nsSdD::CList::begin</text>
</a>
</g>
</g>
<!-- Node1&#45;&gt;Node2 -->
<g id="edge1" class="edge"><title>Node1&#45;&gt;Node2</title>
<path fill="none" stroke="midnightblue" d="M73.5274,-61.1091C91.2438,-70.4814 120.105,-84.1146 147,-89.532 248.247,-109.926 369.33,-94.3582 437.942,-81.933"/>
<polygon fill="midnightblue" stroke="midnightblue" points="438.891,-85.3167 448.084,-80.0496 437.613,-78.4344 438.891,-85.3167"/>
</g>
<!-- Node3 -->
<g id="node3" class="node"><title>Node3</title>
<g id="a_node3"><a xlink:href="classns_sd_d_1_1_c_list.html#a9d67e4a55aac8ccd2b7cd8fd3939a176" target="_top" xlink:title="Returns an iterator pointing after the last element. ">
<polygon fill="white" stroke="black" points="443,-4.03203 443,-23.032 544,-23.032 544,-4.03203 443,-4.03203"/>
<text text-anchor="middle" x="493.5" y="-11.032" font-family="Helvetica,sans-Serif" font-size="10.00">nsSdD::CList::end</text>
</a>
</g>
</g>
<!-- Node1&#45;&gt;Node3 -->
<g id="edge2" class="edge"><title>Node1&#45;&gt;Node3</title>
<path fill="none" stroke="midnightblue" d="M73.5274,-41.955C91.2438,-32.5827 120.105,-18.9495 147,-13.532 245.577,6.3241 363.211,0.174276 432.668,-6.43613"/>
<polygon fill="midnightblue" stroke="midnightblue" points="432.679,-9.95418 442.975,-7.45434 433.367,-2.98809 432.679,-9.95418"/>
</g>
<!-- Node4 -->
<g id="node4" class="node"><title>Node4</title>
<g id="a_node4"><a xlink:href="classns_sd_d_1_1_c_list.html#a0ab43df16936388ddf36555d762006db" target="_top" xlink:title="Removes a node from the list, given an iterator position to it. ">
<polygon fill="white" stroke="black" points="147,-23.032 147,-42.032 257,-42.032 257,-23.032 147,-23.032"/>
<text text-anchor="middle" x="202" y="-30.032" font-family="Helvetica,sans-Serif" font-size="10.00">nsSdD::CList::erase</text>
</a>
</g>
</g>
<!-- Node1&#45;&gt;Node4 -->
<g id="edge3" class="edge"><title>Node1&#45;&gt;Node4</title>
<path fill="none" stroke="midnightblue" d="M111.129,-44.3489C119.516,-43.2462 128.24,-42.0991 136.811,-40.9721"/>
<polygon fill="midnightblue" stroke="midnightblue" points="137.314,-44.4361 146.773,-39.6623 136.402,-37.4959 137.314,-44.4361"/>
</g>
<!-- Node5 -->
<g id="node5" class="node"><title>Node5</title>
<g id="a_node5"><a xlink:href="classns_sd_d_1_1_c_list.html#a14b55f9a1acefa302eb5df42c7c99c9b" target="_top" xlink:title="Inserts a copy of every element in the range [first;last[ before position. ">
<polygon fill="white" stroke="black" points="147,-61.032 147,-80.032 257,-80.032 257,-61.032 147,-61.032"/>
<text text-anchor="middle" x="202" y="-68.032" font-family="Helvetica,sans-Serif" font-size="10.00">nsSdD::CList::insert</text>
</a>
</g>
</g>
<!-- Node1&#45;&gt;Node5 -->
<g id="edge4" class="edge"><title>Node1&#45;&gt;Node5</title>
<path fill="none" stroke="midnightblue" d="M111.129,-58.7151C119.516,-59.8179 128.24,-60.965 136.811,-62.092"/>
<polygon fill="midnightblue" stroke="midnightblue" points="136.402,-65.5682 146.773,-63.4018 137.314,-58.6279 136.402,-65.5682"/>
</g>
<!-- Node5&#45;&gt;Node2 -->
<g id="edge5" class="edge"><title>Node5&#45;&gt;Node2</title>
<path fill="none" stroke="midnightblue" d="M257.113,-70.532C305.75,-70.532 377.23,-70.532 428.649,-70.532"/>
<polygon fill="midnightblue" stroke="midnightblue" points="428.652,-74.0321 438.652,-70.532 428.652,-67.0321 428.652,-74.0321"/>
</g>
<!-- Node6 -->
<g id="node6" class="node"><title>Node6</title>
<g id="a_node6"><a xlink:href="classns_sd_d_1_1_c_list.html#aa8b0bd58b9cb6a6463b6e22341e87ea7" target="_top" xlink:title="Move the content of a list before an element in another Moves the content of x before the element poi...">
<polygon fill="white" stroke="black" points="293,-23.032 293,-42.032 403,-42.032 403,-23.032 293,-23.032"/>
<text text-anchor="middle" x="348" y="-30.032" font-family="Helvetica,sans-Serif" font-size="10.00">nsSdD::CList::splice</text>
</a>
</g>
</g>
<!-- Node5&#45;&gt;Node6 -->
<g id="edge6" class="edge"><title>Node5&#45;&gt;Node6</title>
<path fill="none" stroke="midnightblue" d="M239.337,-60.943C258.083,-55.9963 281.143,-49.9109 301.107,-44.6428"/>
<polygon fill="midnightblue" stroke="midnightblue" points="302.148,-47.9878 310.924,-42.0521 300.362,-41.2195 302.148,-47.9878"/>
</g>
<!-- Node6&#45;&gt;Node2 -->
<g id="edge7" class="edge"><title>Node6&#45;&gt;Node2</title>
<path fill="none" stroke="midnightblue" d="M385.211,-42.121C403.821,-47.049 426.697,-53.1069 446.539,-58.3611"/>
<polygon fill="midnightblue" stroke="midnightblue" points="445.738,-61.7696 456.3,-60.9461 447.53,-55.0028 445.738,-61.7696"/>
</g>
<!-- Node6&#45;&gt;Node3 -->
<g id="edge8" class="edge"><title>Node6&#45;&gt;Node3</title>
<path fill="none" stroke="midnightblue" d="M403.251,-25.3489C412.912,-24.0698 423.023,-22.731 432.825,-21.4332"/>
<polygon fill="midnightblue" stroke="midnightblue" points="433.442,-24.8822 442.896,-20.0999 432.523,-17.9428 433.442,-24.8822"/>
</g>
</g>
</svg>
