<?xml version="1.0" encoding="UTF-8" standalone="no"?>
<!DOCTYPE svg PUBLIC "-//W3C//DTD SVG 1.1//EN"
 "http://www.w3.org/Graphics/SVG/1.1/DTD/svg11.dtd">
<!-- Generated by graphviz version 2.38.0 (20140413.2041)
 -->
<!-- Title: nsSdD::swap Pages: 1 -->
<svg width="633pt" height="85pt"
 viewBox="0.00 0.00 633.00 85.00" xmlns="http://www.w3.org/2000/svg" xmlns:xlink="http://www.w3.org/1999/xlink">
<g id="graph0" class="graph" transform="scale(1 1) rotate(0) translate(4 81)">
<title>nsSdD::swap</title>
<polygon fill="white" stroke="none" points="-4,4 -4,-81 629,-81 629,4 -4,4"/>
<!-- Node1 -->
<g id="node1" class="node"><title>Node1</title>
<polygon fill="#bfbfbf" stroke="black" points="0,-19.5 0,-38.5 79,-38.5 79,-19.5 0,-19.5"/>
<text text-anchor="middle" x="39.5" y="-26.5" font-family="Helvetica,sans-Serif" font-size="10.00">nsSdD::swap</text>
</g>
<!-- Node2 -->
<g id="node2" class="node"><title>Node2</title>
<g id="a_node2"><a xlink:href="classns_sd_d_1_1_c_base_node.html#a0656434b7fb2980ab261d51ac4b7741d" target="_top" xlink:title="Reverse the order of the elements in a list. ">
<polygon fill="white" stroke="black" points="115,-57.5 115,-76.5 267,-76.5 267,-57.5 115,-57.5"/>
<text text-anchor="middle" x="191" y="-64.5" font-family="Helvetica,sans-Serif" font-size="10.00">nsSdD::CBaseNode::reverse</text>
</a>
</g>
</g>
<!-- Node1&#45;&gt;Node2 -->
<g id="edge1" class="edge"><title>Node1&#45;&gt;Node2</title>
<path fill="none" stroke="midnightblue" d="M87.9616,-41.1164C96.9416,-43.4054 106.259,-45.7781 115,-48 127.107,-51.0774 140.315,-54.4263 152.227,-57.4434"/>
<polygon fill="midnightblue" stroke="midnightblue" points="88.5697,-37.6595 78.0149,-38.58 86.84,-44.4425 88.5697,-37.6595"/>
</g>
<!-- Node3 -->
<g id="node3" class="node"><title>Node3</title>
<g id="a_node3"><a xlink:href="classns_sd_d_1_1_c_base_node.html#aa988b77c9d11ded6ac33e0450616dceb" target="_top" xlink:title="Swaps two nodes, that could be in differents lists. ">
<polygon fill="white" stroke="black" points="120.5,-19.5 120.5,-38.5 261.5,-38.5 261.5,-19.5 120.5,-19.5"/>
<text text-anchor="middle" x="191" y="-26.5" font-family="Helvetica,sans-Serif" font-size="10.00">nsSdD::CBaseNode::swap</text>
</a>
</g>
</g>
<!-- Node1&#45;&gt;Node3 -->
<g id="edge2" class="edge"><title>Node1&#45;&gt;Node3</title>
<path fill="none" stroke="midnightblue" d="M89.4095,-29C99.2969,-29 109.872,-29 120.315,-29"/>
<polygon fill="midnightblue" stroke="midnightblue" points="89.3891,-25.5001 79.3891,-29 89.3891,-32.5001 89.3891,-25.5001"/>
</g>
<!-- Node4 -->
<g id="node4" class="node"><title>Node4</title>
<g id="a_node4"><a xlink:href="classns_sd_d_1_1_c_list.html#a46b0ba608257cee1897c1ca772eeacd3" target="_top" xlink:title="Swaps the content of two lists. ">
<polygon fill="white" stroke="black" points="303,-0.5 303,-19.5 411,-19.5 411,-0.5 303,-0.5"/>
<text text-anchor="middle" x="357" y="-7.5" font-family="Helvetica,sans-Serif" font-size="10.00">nsSdD::CList::swap</text>
</a>
</g>
</g>
<!-- Node3&#45;&gt;Node4 -->
<g id="edge3" class="edge"><title>Node3&#45;&gt;Node4</title>
<path fill="none" stroke="midnightblue" d="M271.634,-19.7741C282.192,-18.5509 292.803,-17.3216 302.765,-16.1675"/>
<polygon fill="midnightblue" stroke="midnightblue" points="271.081,-16.3146 261.551,-20.9423 271.887,-23.2681 271.081,-16.3146"/>
</g>
<!-- Node4&#45;&gt;Node1 -->
<g id="edge6" class="edge"><title>Node4&#45;&gt;Node1</title>
<path fill="none" stroke="midnightblue" d="M292.547,-5.70294C243.792,-3.43803 174.881,-2.48448 115,-10 100.167,-11.8617 84.0526,-15.7311 70.6178,-19.4952"/>
<polygon fill="midnightblue" stroke="midnightblue" points="292.473,-9.2035 302.635,-6.20358 292.82,-2.2121 292.473,-9.2035"/>
</g>
<!-- Node5 -->
<g id="node5" class="node"><title>Node5</title>
<g id="a_node5"><a xlink:href="classns_sd_d_1_1_c_list.html#a55df73e3651d4bcd13b671bf5cf7e5eb" target="_top" xlink:title="Swaps the content of two lists. This sort is stable, it means consecutive equal elements keep their o...">
<polygon fill="white" stroke="black" points="447,-0.5 447,-19.5 548,-19.5 548,-0.5 447,-0.5"/>
<text text-anchor="middle" x="497.5" y="-7.5" font-family="Helvetica,sans-Serif" font-size="10.00">nsSdD::CList::sort</text>
</a>
</g>
</g>
<!-- Node4&#45;&gt;Node5 -->
<g id="edge4" class="edge"><title>Node4&#45;&gt;Node5</title>
<path fill="none" stroke="midnightblue" d="M421.187,-10C429.812,-10 438.564,-10 446.902,-10"/>
<polygon fill="midnightblue" stroke="midnightblue" points="421.152,-6.5001 411.152,-10 421.152,-13.5001 421.152,-6.5001"/>
</g>
<!-- Node6 -->
<g id="node6" class="node"><title>Node6</title>
<g id="a_node6"><a xlink:href="test_2main_8cpp.html#aed75b3aafd0856fd8d1c9050617a8696" target="_top" xlink:title="TEST">
<polygon fill="white" stroke="black" points="584,-0.5 584,-19.5 625,-19.5 625,-0.5 584,-0.5"/>
<text text-anchor="middle" x="604.5" y="-7.5" font-family="Helvetica,sans-Serif" font-size="10.00">TEST</text>
</a>
</g>
</g>
<!-- Node5&#45;&gt;Node6 -->
<g id="edge5" class="edge"><title>Node5&#45;&gt;Node6</title>
<path fill="none" stroke="midnightblue" d="M558.276,-10C567.472,-10 576.365,-10 583.796,-10"/>
<polygon fill="midnightblue" stroke="midnightblue" points="558.233,-6.5001 548.233,-10 558.233,-13.5001 558.233,-6.5001"/>
</g>
</g>
</svg>
