<?xml version="1.0" encoding="UTF-8" standalone="no"?>
<!DOCTYPE svg PUBLIC "-//W3C//DTD SVG 1.1//EN"
 "http://www.w3.org/Graphics/SVG/1.1/DTD/svg11.dtd">
<!-- Generated by graphviz version 2.38.0 (20140413.2041)
 -->
<!-- Title: main Pages: 1 -->
<svg width="628pt" height="120pt"
 viewBox="0.00 0.00 628.00 120.00" xmlns="http://www.w3.org/2000/svg" xmlns:xlink="http://www.w3.org/1999/xlink">
<g id="graph0" class="graph" transform="scale(1 1) rotate(0) translate(4 116)">
<title>main</title>
<polygon fill="white" stroke="none" points="-4,4 -4,-116 624,-116 624,4 -4,4"/>
<!-- Node1 -->
<g id="node1" class="node"><title>Node1</title>
<polygon fill="#bfbfbf" stroke="black" points="0,-0.5 0,-19.5 41,-19.5 41,-0.5 0,-0.5"/>
<text text-anchor="middle" x="20.5" y="-7.5" font-family="Helvetica,sans-Serif" font-size="10.00">main</text>
</g>
<!-- Node2 -->
<g id="node2" class="node"><title>Node2</title>
<g id="a_node2"><a xlink:href="classns_sd_d_1_1_c_list.html#a72562c1a0ba029b9f019790afe8a5425" target="_top" xlink:title="nsSdD::CList::push\l_front">
<polygon fill="white" stroke="black" points="77,-17 77,-47 183,-47 183,-17 77,-17"/>
<text text-anchor="start" x="85" y="-35" font-family="Helvetica,sans-Serif" font-size="10.00">nsSdD::CList::push</text>
<text text-anchor="middle" x="130" y="-24" font-family="Helvetica,sans-Serif" font-size="10.00">_front</text>
</a>
</g>
</g>
<!-- Node1&#45;&gt;Node2 -->
<g id="edge1" class="edge"><title>Node1&#45;&gt;Node2</title>
<path fill="none" stroke="midnightblue" d="M41.2172,-14.0351C48.6064,-15.5474 57.4533,-17.3579 66.645,-19.239"/>
<polygon fill="midnightblue" stroke="midnightblue" points="66.2028,-22.721 76.7015,-21.2971 67.6063,-15.8631 66.2028,-22.721"/>
</g>
<!-- Node4 -->
<g id="node4" class="node"><title>Node4</title>
<g id="a_node4"><a xlink:href="classns_sd_d_1_1_c_list.html#af41da388e9983741e7a559f1b6a0ae01" target="_top" xlink:title="Returns an iterator to the first element. ">
<polygon fill="white" stroke="black" points="511,-35.5 511,-54.5 620,-54.5 620,-35.5 511,-35.5"/>
<text text-anchor="middle" x="565.5" y="-42.5" font-family="Helvetica,sans-Serif" font-size="10.00">nsSdD::CList::begin</text>
</a>
</g>
</g>
<!-- Node1&#45;&gt;Node4 -->
<g id="edge8" class="edge"><title>Node1&#45;&gt;Node4</title>
<path fill="none" stroke="midnightblue" d="M41.0102,-8.68737C51.6439,-8.03699 65.039,-7.32303 77,-7 124.094,-5.72812 135.947,-4.66918 183,-7 313.257,-13.4523 345.23,-23.0312 475,-36 483.265,-36.826 491.959,-37.6972 500.547,-38.5593"/>
<polygon fill="midnightblue" stroke="midnightblue" points="500.248,-42.0468 510.548,-39.5638 500.947,-35.0818 500.248,-42.0468"/>
</g>
<!-- Node3 -->
<g id="node3" class="node"><title>Node3</title>
<g id="a_node3"><a xlink:href="classns_sd_d_1_1_c_list.html#a14b55f9a1acefa302eb5df42c7c99c9b" target="_top" xlink:title="Inserts a copy of every element in the range [first;last[ before position. ">
<polygon fill="white" stroke="black" points="219,-54.5 219,-73.5 329,-73.5 329,-54.5 219,-54.5"/>
<text text-anchor="middle" x="274" y="-61.5" font-family="Helvetica,sans-Serif" font-size="10.00">nsSdD::CList::insert</text>
</a>
</g>
</g>
<!-- Node2&#45;&gt;Node3 -->
<g id="edge2" class="edge"><title>Node2&#45;&gt;Node3</title>
<path fill="none" stroke="midnightblue" d="M183.069,-43.7339C195.313,-46.4931 208.368,-49.435 220.625,-52.1972"/>
<polygon fill="midnightblue" stroke="midnightblue" points="220.174,-55.6832 230.699,-54.4673 221.713,-48.8545 220.174,-55.6832"/>
</g>
<!-- Node2&#45;&gt;Node4 -->
<g id="edge7" class="edge"><title>Node2&#45;&gt;Node4</title>
<path fill="none" stroke="midnightblue" d="M183.29,-33.5681C262.923,-35.9562 414.404,-40.4989 500.498,-43.0807"/>
<polygon fill="midnightblue" stroke="midnightblue" points="500.564,-46.5841 510.664,-43.3856 500.774,-39.5873 500.564,-46.5841"/>
</g>
<!-- Node3&#45;&gt;Node4 -->
<g id="edge3" class="edge"><title>Node3&#45;&gt;Node4</title>
<path fill="none" stroke="midnightblue" d="M329.113,-60.4485C377.75,-57.2565 449.23,-52.5652 500.649,-49.1906"/>
<polygon fill="midnightblue" stroke="midnightblue" points="500.903,-52.6815 510.652,-48.534 500.445,-45.6965 500.903,-52.6815"/>
</g>
<!-- Node5 -->
<g id="node5" class="node"><title>Node5</title>
<g id="a_node5"><a xlink:href="classns_sd_d_1_1_c_list.html#aa8b0bd58b9cb6a6463b6e22341e87ea7" target="_top" xlink:title="Move the content of a list before an element in another Moves the content of x before the element poi...">
<polygon fill="white" stroke="black" points="365,-92.5 365,-111.5 475,-111.5 475,-92.5 365,-92.5"/>
<text text-anchor="middle" x="420" y="-99.5" font-family="Helvetica,sans-Serif" font-size="10.00">nsSdD::CList::splice</text>
</a>
</g>
</g>
<!-- Node3&#45;&gt;Node5 -->
<g id="edge4" class="edge"><title>Node3&#45;&gt;Node5</title>
<path fill="none" stroke="midnightblue" d="M311.337,-73.589C330.083,-78.5358 353.143,-84.6211 373.107,-89.8892"/>
<polygon fill="midnightblue" stroke="midnightblue" points="372.362,-93.3125 382.924,-92.4799 374.148,-86.5442 372.362,-93.3125"/>
</g>
<!-- Node5&#45;&gt;Node4 -->
<g id="edge5" class="edge"><title>Node5&#45;&gt;Node4</title>
<path fill="none" stroke="midnightblue" d="M445.019,-92.4595C468.507,-83.1295 504.486,-68.8384 530.826,-58.3758"/>
<polygon fill="midnightblue" stroke="midnightblue" points="532.401,-61.5161 540.403,-54.5716 529.817,-55.0105 532.401,-61.5161"/>
</g>
<!-- Node6 -->
<g id="node6" class="node"><title>Node6</title>
<g id="a_node6"><a xlink:href="classns_sd_d_1_1_c_list.html#a9d67e4a55aac8ccd2b7cd8fd3939a176" target="_top" xlink:title="Returns an iterator pointing after the last element. ">
<polygon fill="white" stroke="black" points="515,-92.5 515,-111.5 616,-111.5 616,-92.5 515,-92.5"/>
<text text-anchor="middle" x="565.5" y="-99.5" font-family="Helvetica,sans-Serif" font-size="10.00">nsSdD::CList::end</text>
</a>
</g>
</g>
<!-- Node5&#45;&gt;Node6 -->
<g id="edge6" class="edge"><title>Node5&#45;&gt;Node6</title>
<path fill="none" stroke="midnightblue" d="M475.251,-102C484.912,-102 495.023,-102 504.825,-102"/>
<polygon fill="midnightblue" stroke="midnightblue" points="504.896,-105.5 514.896,-102 504.896,-98.5001 504.896,-105.5"/>
</g>
</g>
</svg>
